<svg width="208" height="196" viewBox="0 0 208 196" fill="none" xmlns="http://www.w3.org/2000/svg">
<path d="M43.1444 169.135C43.249 168.999 43.3226 168.844 43.3605 168.679C43.3983 168.513 43.3994 168.342 43.3637 168.176C43.1272 167.557 42.1554 167.733 41.6437 168.151C40.1775 169.331 39.5153 171.537 37.675 171.997C37.2356 172.055 36.8034 172.156 36.385 172.299C35.581 172.692 35.3746 173.692 35.0951 174.529C34.8156 175.366 34.1233 176.3 33.2462 176.099C32.756 175.986 32.4292 175.555 32.0336 175.262C31.638 174.969 30.9759 174.822 30.6964 175.232C30.6272 175.385 30.5915 175.551 30.5915 175.718C30.5915 175.885 30.6272 176.05 30.6964 176.203C31.337 178.484 30.8082 180.953 29.7375 183.075C28.6668 185.197 27.0931 187.034 25.5323 188.846C25.0464 184.347 29.587 180.476 29.3075 175.969C29.2387 174.877 28.8775 173.822 28.7786 172.734C28.5035 169.997 30.1761 166.967 32.9323 166.368C33.4354 166.26 34.0158 166.201 34.3168 165.795C34.7769 165.176 34.1276 164.247 33.3494 164.121C32.5711 163.995 31.8186 164.389 31.135 164.766C31.3191 164.051 31.7212 163.407 32.2883 162.918C32.8554 162.43 33.561 162.12 34.3125 162.028C35.0607 161.949 35.8476 162.095 36.557 161.84C37.2665 161.585 37.7825 160.643 37.2579 160.116C36.428 159.279 34.7855 160.836 33.8653 160.091C33.2505 159.593 33.6374 158.639 34.0244 157.961C34.4114 157.283 34.6651 156.241 33.9599 155.868C33.2548 155.496 32.4851 156.374 32.1368 157.124C30.2277 161.144 28.32 165.164 26.4137 169.185C25.8591 170.353 25.2915 171.596 25.4549 172.872C25.5667 173.755 26.0224 174.546 26.3535 175.383C26.6846 176.22 26.891 177.166 26.5083 177.978C26.1256 178.79 24.9432 179.254 24.2509 178.677C23.9185 178.33 23.7051 177.891 23.6403 177.421C23.1846 175.542 22.7331 173.571 23.2405 171.709C23.7306 169.913 25.0851 168.36 25.1195 166.481C25.1453 165.058 24.3971 163.523 25.1195 162.296C25.5306 161.728 26.0575 161.248 26.6674 160.886C27.2393 160.467 27.8026 159.949 27.9144 159.262C28.0262 158.576 27.4156 157.776 26.7233 157.936C25.7559 158.162 25.6613 159.823 24.668 159.877C24.0488 159.911 23.6274 159.174 23.7607 158.584C23.9542 158.005 24.3247 157.497 24.8228 157.128L27.2952 154.901C27.88 154.374 28.5207 153.646 28.2756 152.922C28.0305 152.198 27.0544 151.972 26.3406 152.252C25.655 152.597 25.0796 153.118 24.6766 153.759C24.8713 153.222 24.9532 152.653 24.9174 152.085C24.8968 151.802 24.7901 151.531 24.6109 151.308C24.4317 151.084 24.1881 150.918 23.9112 150.829C23.0857 150.637 22.3418 151.461 22.1913 152.277C22.0408 153.093 22.2343 153.951 22.144 154.759C22.0537 155.567 21.499 156.492 20.6391 156.496C19.8866 156.496 19.3018 155.755 19.2545 155.023C19.2629 154.282 19.5012 153.562 19.9382 152.955C20.3705 152.35 20.7014 151.682 20.9185 150.976C21.069 150.243 20.8627 149.406 20.2091 149.017C19.5555 148.628 18.5106 149.067 18.545 149.804C18.3945 148.892 17.9388 147.732 16.9971 147.808C16.0554 147.883 15.8061 148.988 15.7975 149.854C15.7843 152.551 16.4345 155.211 17.6937 157.613C18.4633 159.074 19.448 160.421 20.1704 161.907C20.8927 163.393 21.3528 165.075 20.9701 166.674C20.738 167.649 20.2091 168.528 19.8479 169.465C19.3802 170.72 19.2145 172.061 19.3635 173.388C19.5126 174.714 19.9726 175.99 20.7079 177.116C20.093 177.17 19.6028 176.672 19.1212 176.304C18.6396 175.935 17.8614 175.684 17.4658 176.145C17.3458 176.33 17.2952 176.55 17.3227 176.767C17.3501 176.984 17.4538 177.186 17.6163 177.337C17.9509 177.632 18.3368 177.865 18.7557 178.028C19.7223 178.508 20.5711 179.185 21.2442 180.014C21.9172 180.842 22.3987 181.802 22.6557 182.828C21.5248 182.97 20.6004 181.154 19.6458 181.728C19.0094 182.104 19.2932 183.117 19.8909 183.552C20.4886 183.987 21.2668 184.138 21.8301 184.615C22.2369 184.994 22.4747 185.513 22.4924 186.061C22.5101 186.609 22.3063 187.142 21.9247 187.545C21.1206 188.319 19.8737 187.993 18.9148 187.423C17.0401 186.264 15.7148 184.427 15.2299 182.318C14.6365 180.602 15.3417 178.718 15.5567 177.342C15.8146 175.668 17.0143 174.186 17.1519 172.487C17.2895 170.788 16.3822 168.838 17.1949 167.26C17.5991 166.477 18.3558 165.942 19.0008 165.335C19.6458 164.728 20.2306 163.92 20.1145 163.054C19.9984 162.188 18.8245 161.518 18.1538 162.121C17.8356 162.418 17.698 162.958 17.2637 163.037C16.8294 163.117 16.4553 162.648 16.4553 162.2C16.5088 161.77 16.6171 161.348 16.7778 160.945C16.8549 160.739 16.8653 160.515 16.8077 160.303C16.75 160.091 16.627 159.902 16.4553 159.76C16.2316 159.667 15.9794 159.664 15.7532 159.751C15.5271 159.838 15.3452 160.008 15.2471 160.225C15.0703 160.668 15.0212 161.15 15.1052 161.618L15.4406 165.544C15.4707 165.891 15.4406 166.322 15.1353 166.473C14.83 166.624 14.4774 166.402 14.2366 166.168C13.6705 165.6 13.2268 164.928 12.9314 164.192C12.636 163.455 12.495 162.668 12.5167 161.878C12.5695 160.29 13.0758 158.748 13.9786 157.425C14.432 156.829 14.8183 156.188 15.131 155.512C15.2807 155.174 15.3384 154.804 15.2985 154.437C15.2586 154.071 15.1224 153.72 14.9031 153.42C14.4129 152.855 13.3379 152.796 12.9467 153.42C12.6113 153.968 12.8951 154.675 12.9467 155.295C13.0757 156.722 12.0222 157.952 11.3987 159.25C10.8205 160.497 10.615 161.877 10.8059 163.232C10.9968 164.587 11.5763 165.863 12.478 166.912C13.0757 167.582 13.798 168.143 14.3656 168.838C14.6741 169.166 14.9066 169.554 15.0475 169.977C15.1885 170.401 15.2345 170.848 15.1826 171.29C15.0149 172.161 14.0775 172.91 13.2047 172.646C12.4995 172.433 12.1125 171.692 11.9405 170.993C11.7685 170.294 11.7083 169.545 11.3256 168.934C10.9429 168.323 10.0357 167.913 9.4509 168.335C9.26461 168.497 9.12205 168.7 9.0358 168.928C8.94956 169.156 8.92229 169.401 8.95642 169.641C9.06821 171.893 11.3342 173.408 12.3576 175.425C12.7448 176.208 12.9459 177.067 12.9459 177.936C12.9459 178.805 12.7448 179.663 12.3576 180.447C11.9878 179.882 11.575 179.283 10.9343 179.037C10.2937 178.79 9.3821 179.137 9.352 179.807C9.37308 180.17 9.53617 180.511 9.80778 180.761C10.5187 181.538 11.4417 182.102 12.4694 182.389C12.2458 184.142 13.3293 185.846 14.6193 187.072C15.9092 188.298 17.5303 189.236 18.8288 190.491C20.1274 191.747 21.0604 193.839 20.7466 195.58L28.9721 195.526C29.04 194.685 29.3669 193.885 29.9101 193.228C30.4533 192.572 31.1874 192.09 32.0164 191.847C32.8764 191.604 33.8352 191.642 34.6737 191.299C35.5122 190.956 36.2087 189.993 35.7831 189.206C35.6338 188.974 35.4212 188.787 35.1692 188.666C34.9171 188.545 34.6354 188.494 34.3555 188.52C33.7969 188.575 33.2541 188.732 32.756 188.984C32.8785 188.898 32.9809 188.787 33.0565 188.659C33.1321 188.531 33.1792 188.39 33.1948 188.243C33.2104 188.096 33.1941 187.948 33.147 187.808C33.0999 187.668 33.023 187.539 32.9213 187.43C32.8197 187.32 32.6955 187.233 32.5569 187.174C32.4184 187.114 32.2685 187.084 32.117 187.084C31.9656 187.085 31.8159 187.117 31.6778 187.177C31.5398 187.238 31.4163 187.326 31.3155 187.436C30.9329 187.854 30.9372 188.461 30.7093 188.963C30.4814 189.466 29.6773 189.8 29.3892 189.336C29.3381 189.208 29.3151 189.071 29.3218 188.934C29.3285 188.797 29.3646 188.663 29.4279 188.541C29.9138 187.181 30.4427 185.758 31.5778 184.824C33.8911 182.904 37.8556 183.753 39.9324 181.585C40.1411 181.4 40.2997 181.167 40.3942 180.908C40.4887 180.649 40.5162 180.371 40.4742 180.1C40.2291 179.2 38.9262 179.049 38.0577 179.434C37.1891 179.819 36.4882 180.543 35.5724 180.811C34.6565 181.079 33.3752 180.526 33.5128 179.606C33.5945 179.028 34.1964 178.656 34.8027 178.53C35.409 178.405 36.0024 178.442 36.5785 178.287C37.1547 178.133 37.7223 177.676 37.7094 177.095C37.6958 176.986 37.659 176.881 37.6013 176.786C37.5437 176.692 37.4666 176.61 37.3748 176.546C37.283 176.483 37.1785 176.438 37.0681 176.416C36.9576 176.394 36.8436 176.394 36.7333 176.417C39.3394 174.421 41.5176 171.947 43.1444 169.135Z" fill="#5E8F0E"/>
<path d="M190.697 63.002C195.247 63.002 198.936 59.4119 198.936 54.9834C198.936 50.5549 195.247 46.9648 190.697 46.9648C186.147 46.9648 182.459 50.5549 182.459 54.9834C182.459 59.4119 186.147 63.002 190.697 63.002Z" fill="#D5FCFF"/>
<path d="M178.581 46.8181C181.131 46.8181 183.199 44.8057 183.199 42.3234C183.199 39.841 181.131 37.8286 178.581 37.8286C176.03 37.8286 173.963 39.841 173.963 42.3234C173.963 44.8057 176.03 46.8181 178.581 46.8181Z" fill="#D5FCFF"/>
<path d="M197.641 38.6198C197.95 36.7625 196.653 35.0133 194.745 34.7128C192.837 34.4123 191.039 35.6743 190.731 37.5316C190.422 39.3889 191.719 41.1381 193.627 41.4386C195.535 41.7391 197.332 40.477 197.641 38.6198Z" fill="#D5FCFF"/>
<path d="M183.809 161.631L188.904 195.228L190.229 195.266C189.382 183.858 188.483 172.219 183.809 161.631Z" fill="#5E8F0E"/>
<path d="M198.096 158C194.54 161.792 193.109 167.01 192.206 172.074C190.916 179.252 190.812 187.726 191.195 195.004L193.057 195.046C192.318 182.498 194.028 169.928 198.096 158Z" fill="#5E8F0E"/>
<path d="M184.747 185.126C184.317 183.9 183.887 182.652 182.842 181.606C181.457 180.196 179.2 179.304 176.925 178.61C174.651 177.915 172.264 177.354 170.213 176.4C172.501 178.961 177.699 179.643 180.348 182.037C181.664 183.23 182.214 184.724 182.73 186.176C183.852 189.34 184.544 192.077 185.671 195.237H187.18C186.674 191.804 185.86 188.42 184.747 185.126Z" fill="#5E8F0E"/>
<path d="M194.271 195.266C194.271 195.266 195.56 181.242 196.494 178.668C197.427 176.094 206.383 168.98 206.297 169.315C206.211 169.649 199.589 177.434 198.643 179.024C197.697 180.614 196.064 195.266 196.064 195.266H194.271Z" fill="#5E8F0E"/>
<path d="M208 195.295C208 195.354 163.974 195.404 109.68 195.404C55.386 195.404 11.3472 195.354 11.3472 195.295C11.3472 195.237 55.3645 195.187 109.68 195.187C163.995 195.187 208 195.233 208 195.295Z" fill="#263238"/>
<path d="M162.167 59.0793C173.224 69.1209 180.96 82.1378 184.391 96.4726C187.822 110.807 186.792 125.812 181.433 139.575C176.074 153.339 166.628 165.238 154.298 173.76C141.968 182.281 127.311 187.038 112.194 187.426C97.0768 187.813 82.1832 183.813 69.4094 175.935C56.6356 168.057 46.5595 156.657 40.4638 143.187C34.3682 129.717 32.5289 114.787 35.18 100.296C37.8312 85.8052 44.8529 72.4102 55.3511 61.8163C55.3511 61.8163 63.3574 59.8912 75.169 63.1053C86.9806 66.3194 93.3487 69.9939 105.143 66.7756C116.938 63.5573 116.232 59.661 127.072 59.0793C137.912 58.4976 142.122 61.2681 149.934 62.4274C157.747 63.5866 162.167 59.0793 162.167 59.0793Z" fill="#63CFD6"/>
<path d="M179.269 77.4232C178.746 77.6041 178.214 77.7551 177.673 77.8752C176.158 78.3129 174.699 78.9152 173.322 79.6706C171.162 80.8878 169.144 82.3289 167.302 83.9686C166.206 84.9103 165.075 85.9649 163.897 87.1116C162.718 88.2583 161.493 89.4887 160.16 90.7568C157.503 93.2678 154.433 95.9923 150.455 97.9551C148.394 98.9837 146.155 99.6308 143.851 99.8634C141.418 100.024 138.974 99.8261 136.601 99.2775C134.181 98.7837 131.76 98.1266 129.292 97.6914C128.045 97.4732 126.783 97.3445 125.516 97.3064C124.239 97.2934 122.966 97.434 121.724 97.7249C121.409 97.7899 121.099 97.8738 120.795 97.976C120.49 98.0764 120.176 98.1559 119.875 98.2731C119.265 98.5044 118.668 98.7671 118.086 99.0599C117.794 99.2106 117.497 99.3529 117.226 99.5119L116.366 100.022C116.078 100.186 115.803 100.374 115.528 100.562L114.702 101.127C112.531 102.709 110.497 104.555 108.403 106.409C106.309 108.263 104.189 110.096 101.807 111.561C100.634 112.291 99.4118 112.943 98.1479 113.511C96.9035 114.059 95.6288 114.54 94.3297 114.951C89.1699 116.57 83.9542 117.093 79.0438 117.269C74.1334 117.445 69.4637 117.269 65.1209 117.307C61.0942 117.27 57.0701 117.521 53.0814 118.06C49.8095 118.524 46.6064 119.367 43.5401 120.571C41.2273 121.489 39.0382 122.678 37.0215 124.112C33.7278 126.526 32.4551 128.447 32.3562 128.355C32.6327 127.884 32.9553 127.44 33.3194 127.029C34.3496 125.833 35.5022 124.742 36.7592 123.773C38.7638 122.251 40.9603 120.985 43.295 120.006C46.3887 118.716 49.6336 117.801 52.9567 117.282C56.9738 116.685 61.0316 116.386 65.0951 116.386C69.4594 116.319 74.1248 116.445 78.9879 116.252C83.851 116.06 88.9678 115.503 93.9728 113.917C95.23 113.517 96.4631 113.049 97.6663 112.515C98.8832 111.966 100.06 111.337 101.188 110.632C103.471 109.225 105.544 107.426 107.638 105.61C109.732 103.793 111.783 101.893 114.023 100.261L114.883 99.6751C115.167 99.4784 115.455 99.2859 115.743 99.1143L116.637 98.5786C116.938 98.4112 117.252 98.2648 117.562 98.1057C118.168 97.7709 118.83 97.5449 119.462 97.2687C119.785 97.1473 120.124 97.0595 120.451 96.9548C120.777 96.8427 121.11 96.7532 121.449 96.687C122.78 96.3822 124.145 96.2416 125.512 96.2685C126.837 96.3113 128.156 96.4512 129.459 96.687C132.018 97.1473 134.438 97.8211 136.808 98.315C139.081 98.8562 141.424 99.0635 143.761 98.9302C145.948 98.7231 148.077 98.1258 150.043 97.1683C153.882 95.3185 156.922 92.6777 159.61 90.2211C160.947 88.9865 162.19 87.7645 163.394 86.6345C164.598 85.5045 165.758 84.4625 166.889 83.5292C168.795 81.8966 170.889 80.4838 173.128 79.319C174.548 78.5893 176.058 78.0394 177.622 77.6827C178.155 77.5487 178.576 77.5195 178.851 77.4692C178.987 77.4325 179.128 77.417 179.269 77.4232Z" fill="#F5F5F5"/>
<path d="M36.3037 132.62C37.8516 125.308 45.5268 120.512 53.116 119.424C60.7052 118.336 68.3718 120.089 75.9482 121.278C83.5245 122.467 91.6339 123.011 98.5352 119.759C107.612 115.482 113.21 105.266 122.988 102.881C131.205 100.872 139.981 105.094 148.241 103.27C154.884 101.805 159.975 96.716 164.318 91.6102C168.661 86.5044 172.918 80.976 178.972 77.9795L183.431 86.4417C183.431 86.4417 171.331 95.4437 167.169 100.495C163.007 105.546 158.458 110.539 142.544 110.928C142.544 110.928 128.845 107.882 123.311 109.899C117.777 111.916 106.412 128.61 98.3116 130.205C90.2107 131.799 67.198 126.543 58.4693 128.69C49.7407 130.837 40.3842 142.312 40.3842 142.312L36.3037 132.62Z" fill="#F5F5F5"/>
<path d="M163.72 59.9212L163.471 60.0635L162.727 60.4611C161.747 60.9288 160.723 61.3043 159.67 61.5827C157.999 62.0102 156.281 62.242 154.553 62.2732C152.266 62.3124 149.981 62.1471 147.725 61.7794C145.218 61.4027 142.509 60.7833 139.59 60.2142C136.5 59.5387 133.344 59.1838 130.177 59.1554C126.828 59.1554 123.379 60.03 120.013 61.3525C116.646 62.675 113.275 64.3741 109.693 65.7677C107.918 66.4722 106.085 67.0322 104.215 67.4418C102.395 67.8301 100.536 68.0223 98.6726 68.0151C95.1543 67.9412 91.6584 67.4493 88.2627 66.5503C85.012 65.7384 81.9763 64.7843 79.1256 63.9389C76.4847 63.1401 73.8039 62.4724 71.0935 61.9384C68.8625 61.4955 66.597 61.2379 64.3212 61.1684C62.6027 61.1275 60.8839 61.2423 59.1872 61.5115C58.1176 61.6961 57.0629 61.9548 56.0312 62.2858L55.2271 62.5578L54.9519 62.6415C54.9519 62.6415 55.0422 62.5997 55.2185 62.5369L56.014 62.2439C57.0429 61.8944 58.0981 61.623 59.17 61.432C60.8735 61.1441 62.6012 61.0152 64.3298 61.047C66.6134 61.1055 68.8876 61.3533 71.1279 61.7878C73.8414 62.3208 76.5251 62.9885 79.1685 63.7882C82.0236 64.6252 85.055 65.5752 88.3014 66.3788C91.6808 67.2586 95.1577 67.735 98.6554 67.7975C100.503 67.804 102.346 67.6132 104.151 67.2283C106.008 66.8162 107.827 66.2563 109.59 65.5543C113.18 64.1649 116.53 62.4532 119.931 61.1433C123.332 59.8333 126.811 58.9461 130.173 58.9419C133.536 58.9377 136.709 59.4525 139.633 60.0258C142.557 60.5992 145.257 61.227 147.755 61.6162C150 61.9904 152.276 62.1655 154.553 62.1393C156.271 62.1294 157.981 61.9215 159.648 61.5199C160.7 61.2542 161.723 60.8941 162.706 60.4444L163.458 60.0635L163.72 59.9212Z" fill="#263238"/>
<path d="M63.9082 109.682L72.4133 167.711L109.646 162.539L101.153 104.509L63.9082 109.682ZM94.7294 135.005L79.6155 137.098L77.8956 125.296C77.7533 124.33 77.8081 123.347 78.0566 122.402C78.3051 121.457 78.7426 120.568 79.344 119.788C79.9453 119.007 80.6989 118.35 81.5615 117.853C82.4241 117.356 83.3788 117.03 84.3711 116.892C85.3633 116.754 86.3738 116.807 87.3448 117.049C88.3158 117.291 89.2283 117.717 90.0302 118.302C90.832 118.887 91.5075 119.621 92.0179 120.46C92.5284 121.3 92.8639 122.229 93.0052 123.195L94.7294 135.005Z" fill="#263238"/>
<path d="M102.336 90.5685L103.234 96.7163L96.3203 97.6747L95.4174 91.531L90.034 92.276L90.9326 98.4238L84.0185 99.3822L83.1156 93.2385L77.7279 93.9877L78.6308 100.131L71.7167 101.094L70.8137 94.946L65.4261 95.6952L66.329 101.839L59.4149 102.801L58.5119 96.6577L55.085 97.1306L57.6133 114.356L107.289 107.455L104.765 90.2295L102.336 90.5685Z" fill="#263238"/>
<path d="M106.141 100.495C106.141 100.554 95.0178 102.169 81.2798 104.057C67.5419 105.944 56.3924 107.463 56.3838 107.405C56.3752 107.346 67.5075 105.752 81.2669 103.839C95.0264 101.926 106.133 100.441 106.141 100.495Z" fill="#455A64"/>
<path d="M106.92 107.506C106.92 107.568 95.9034 109.146 82.303 111.038C68.7027 112.929 57.6607 114.411 57.6521 114.348C57.6435 114.285 68.664 112.712 82.2686 110.82C95.8733 108.928 106.911 107.447 106.92 107.506Z" fill="#455A64"/>
<path d="M63.9128 106.442C63.5709 105.126 63.3734 103.778 63.3237 102.42C63.532 103.07 63.6689 103.739 63.7322 104.417C63.8671 105.084 63.9277 105.763 63.9128 106.442Z" fill="#455A64"/>
<path d="M72.568 112.276C72.2877 111.132 72.0795 109.972 71.9446 108.803C71.7369 107.644 71.6033 106.474 71.5447 105.3C71.825 106.444 72.0332 107.604 72.1682 108.773C72.3733 109.932 72.5068 111.102 72.568 112.276Z" fill="#455A64"/>
<path d="M92.6009 109.498C92.3184 108.352 92.1101 107.191 91.9775 106.02C91.7708 104.867 91.6401 103.703 91.5862 102.534C91.8657 103.678 92.0725 104.838 92.2054 106.007C92.4094 107.162 92.5415 108.327 92.6009 109.498Z" fill="#455A64"/>
<path d="M96.9351 101.855C96.7082 101.101 96.557 100.328 96.4837 99.5453C96.3331 98.7726 96.2554 97.9881 96.2515 97.2017C96.4735 97.9568 96.6246 98.73 96.7029 99.5118C96.8535 100.285 96.9312 101.069 96.9351 101.855Z" fill="#455A64"/>
<path d="M79.2156 104.421C78.9988 103.739 78.8547 103.038 78.7857 102.328C78.643 101.628 78.5767 100.916 78.5879 100.202C78.8041 100.884 78.9482 101.585 79.0179 102.295C79.1566 102.995 79.2229 103.707 79.2156 104.421Z" fill="#455A64"/>
<path d="M102.598 114.365C102.598 114.427 94.2738 115.62 83.9929 117.06C73.712 118.499 65.3574 119.6 65.3574 119.541C65.3574 119.483 73.6776 118.286 83.9628 116.846C94.248 115.407 102.59 114.306 102.598 114.365Z" fill="#455A64"/>
<path d="M77.93 125.154C77.93 125.212 75.4103 125.614 72.2843 126.049C69.1584 126.485 66.6129 126.786 66.6043 126.727C66.5957 126.669 69.124 126.267 72.25 125.832C75.3759 125.397 77.9214 125.095 77.93 125.154Z" fill="#455A64"/>
<path d="M103.299 121.722C103.299 121.78 101.08 122.14 98.3241 122.521C95.5679 122.902 93.3277 123.166 93.3191 123.107C93.3105 123.048 95.5378 122.689 98.294 122.303C101.05 121.918 103.29 121.659 103.299 121.722Z" fill="#455A64"/>
<path d="M79.0222 132.595C79.0222 132.653 76.481 133.055 73.3292 133.494C70.1774 133.934 67.6104 134.239 67.6018 134.181C67.5932 134.122 70.143 133.716 73.2991 133.277C76.4552 132.837 79.0136 132.532 79.0222 132.595Z" fill="#455A64"/>
<path d="M104.555 128.69C104.555 128.749 102.267 129.109 99.4205 129.527C96.5741 129.946 94.2607 130.193 94.2607 130.134C94.2607 130.075 96.5483 129.716 99.3947 129.297C102.241 128.879 104.546 128.632 104.555 128.69Z" fill="#455A64"/>
<path d="M105.801 135.658C105.801 135.721 97.4641 136.914 87.1617 138.358C76.8593 139.802 68.4962 140.902 68.4876 140.844C68.479 140.785 76.8249 139.588 87.1316 138.144C97.4383 136.7 105.776 135.596 105.801 135.658Z" fill="#455A64"/>
<path d="M106.778 142.313C106.778 142.371 98.4402 143.568 88.1378 145.012C77.8354 146.456 69.4722 147.552 69.4636 147.494C69.455 147.435 77.801 146.238 88.1077 144.794C98.4144 143.351 106.769 142.25 106.778 142.313Z" fill="#455A64"/>
<path d="M107.805 149.314C107.805 149.373 99.4678 150.57 89.1654 152.013C78.863 153.457 70.4998 154.554 70.4912 154.495C70.4826 154.437 78.8243 153.24 89.131 151.796C99.4377 150.352 107.797 149.251 107.805 149.314Z" fill="#455A64"/>
<path d="M108.829 156.311C108.829 156.374 100.491 157.567 90.1888 159.011C79.8864 160.455 71.5233 161.555 71.5147 161.497C71.5061 161.438 79.852 160.241 90.1587 158.797C100.465 157.353 108.82 156.253 108.829 156.311Z" fill="#455A64"/>
<path d="M84.5818 116.913C84.321 115.9 84.1328 114.871 84.0185 113.833C83.8316 112.808 83.7167 111.772 83.6746 110.732C83.9354 111.742 84.1236 112.768 84.2378 113.804C84.4249 114.831 84.5398 115.87 84.5818 116.913Z" fill="#455A64"/>
<path d="M75.8317 139.822C75.5648 138.769 75.3695 137.699 75.2469 136.621C75.0548 135.551 74.9341 134.471 74.8857 133.386C75.1556 134.439 75.351 135.508 75.4705 136.587C75.6651 137.657 75.7858 138.737 75.8317 139.822Z" fill="#455A64"/>
<path d="M77.7881 153.173C77.5213 152.118 77.3273 151.047 77.2076 149.967C77.0104 148.898 76.8897 147.817 76.8464 146.732C77.1133 147.787 77.3072 148.858 77.4269 149.938C77.6218 151.007 77.7424 152.088 77.7881 153.173Z" fill="#455A64"/>
<path d="M79.792 166.845C79.5274 165.791 79.3335 164.722 79.2115 163.644C79.0169 162.574 78.8963 161.494 78.8503 160.409C79.1169 161.462 79.3108 162.532 79.4308 163.61C79.6281 164.679 79.7488 165.76 79.792 166.845Z" fill="#455A64"/>
<path d="M73.768 125.731C73.476 124.533 73.2592 123.319 73.1187 122.095C72.902 120.88 72.7584 119.655 72.6887 118.424C72.9807 119.623 73.1975 120.837 73.338 122.061C73.5547 123.275 73.6983 124.501 73.768 125.731Z" fill="#455A64"/>
<path d="M98.522 122.295C98.2331 121.095 98.0177 119.879 97.877 118.654C97.6575 117.44 97.5139 116.215 97.447 114.984C97.7339 116.184 97.9493 117.4 98.092 118.625C98.309 119.839 98.4525 121.065 98.522 122.295Z" fill="#455A64"/>
<path d="M100.573 136.294C100.312 135.157 100.122 134.006 100.005 132.846C99.8132 131.695 99.6968 130.533 99.657 129.368C99.9174 130.507 100.107 131.66 100.225 132.821C100.417 133.97 100.533 135.131 100.573 136.294Z" fill="#455A64"/>
<path d="M102.534 150C102.273 148.863 102.084 147.711 101.966 146.552C101.774 145.401 101.658 144.239 101.618 143.074C101.879 144.211 102.068 145.363 102.185 146.522C102.377 147.673 102.494 148.835 102.534 150Z" fill="#455A64"/>
<path d="M104.542 163.25C104.125 161.276 103.859 159.274 103.746 157.261C104.158 159.237 104.423 161.238 104.542 163.25Z" fill="#455A64"/>
<path d="M89.4364 144.719C89.1763 143.63 88.991 142.525 88.8817 141.412C88.6971 140.305 88.5879 139.186 88.5549 138.064C88.809 139.156 88.9928 140.261 89.1053 141.375C89.2901 142.481 89.4007 143.598 89.4364 144.719Z" fill="#455A64"/>
<path d="M91.5865 158.986C91.3291 157.895 91.1452 156.789 91.0362 155.675C90.8512 154.567 90.7406 153.449 90.7051 152.327C90.9626 153.418 91.1464 154.524 91.2555 155.638C91.4404 156.745 91.551 157.864 91.5865 158.986Z" fill="#455A64"/>
<path d="M169.289 160.928C169.289 160.928 161.863 168.758 157.554 172.043C142.264 183.688 122.983 189.212 103.649 187.489C84.3155 185.765 66.3868 176.923 53.5242 162.769C53.5242 162.769 58.813 158.002 63.6804 159.53C68.5478 161.057 93.0267 165.828 101.424 162.652C109.822 159.475 121.41 154.282 133.927 154.964C146.444 155.646 155.039 165.539 169.289 160.928Z" fill="#455A64"/>
<path d="M101.811 168.858C103.404 171.394 105.915 173.258 108.849 174.082C111.784 174.906 114.928 174.631 117.665 173.311C119.35 172.495 120.868 171.294 122.7 170.871C125.946 170.126 129.666 171.951 132.555 170.327C133.269 169.908 133.914 169.184 133.746 168.398C133.548 167.485 132.435 167.109 131.484 166.983C126.123 166.263 120.735 168.293 115.321 167.992C113.047 167.866 110.815 167.331 108.545 167.184C106.275 167.038 103.858 167.33 102.043 168.666" fill="#263238"/>
<path d="M70.8784 130.95C73.0283 132.624 74.9504 133.913 75.3416 136.336C75.4878 137.24 75.4706 138.186 75.8275 139.031C76.3521 140.257 77.6206 141.144 77.8699 142.45C78.1666 143.986 76.9369 145.543 77.3411 147.054C77.655 148.247 78.9019 149.029 79.276 150.205C79.7963 151.829 78.5149 153.465 78.416 155.16C78.3386 156.386 78.8847 157.554 79.1685 158.751C79.4523 159.948 79.5383 161.681 78.5579 162.455L74.6408 161.848C74.8809 161.544 75.036 161.184 75.091 160.804C75.146 160.424 75.0991 160.037 74.9547 159.68C74.6752 159.015 74.2366 158.395 74.1248 157.684C73.9141 156.34 74.9031 155.068 74.9117 153.708C74.9117 152.126 73.6217 150.778 73.4153 149.222C73.196 147.514 74.314 145.773 73.8453 144.116C73.4927 142.906 72.3662 142.023 71.9534 140.847C71.5707 139.747 71.8588 138.546 72.048 137.399C72.4522 134.905 72.0609 133.352 70.8784 130.95Z" fill="#F10900"/>
<path d="M80.9097 162.819C82.6899 162.079 84.0658 159.777 83.7261 157.919C83.5068 156.747 82.7931 155.504 83.3692 154.449C83.7992 153.704 84.7237 153.349 85.1236 152.595C85.8933 151.151 84.212 149.486 84.4657 147.879C84.6979 146.41 86.4264 145.585 86.9295 144.183C87.2391 143.321 87.0456 142.38 87.08 141.471C87.1144 140.563 87.51 139.517 88.4387 139.304C87.725 138.826 86.693 139.086 86.0566 139.664C85.4653 140.288 85.0246 141.033 84.7667 141.844C84.5123 142.655 84.0711 143.4 83.4767 144.02C82.5437 144.857 81.0301 145.121 80.5142 146.247C79.7832 147.841 81.6837 149.804 80.8151 151.327C80.282 152.261 78.949 152.503 78.3427 153.39C77.3667 154.813 78.8114 156.801 78.2224 158.413C77.9859 159.057 77.457 159.551 77.07 160.124C76.683 160.698 76.425 161.627 76.8292 162.183" fill="#F10900"/>
<path d="M60.7307 146.226C60.7092 147.063 61.4014 147.791 62.1883 148.142C63.0002 148.432 63.8423 148.634 64.6994 148.745C65.5651 148.859 66.36 149.272 66.9396 149.908C67.5287 150.683 67.5502 151.808 68.2769 152.457C69.2787 153.353 71.1277 152.909 71.979 153.939C72.8304 154.968 72.151 156.621 73.1142 157.458C73.5233 157.723 73.9655 157.935 74.4299 158.09C75.6382 158.689 76.1972 160.898 75.5178 162.037L71.4845 161.363C70.5515 161.087 70.1086 160.367 69.8721 159.442C69.6356 158.517 69.4421 157.492 68.6939 156.889C67.9458 156.286 66.6601 156.291 65.8518 155.634C64.5188 154.566 64.9918 152.256 63.7018 151.151C63.0483 150.595 62.1066 150.503 61.3713 150.051C61.0676 149.843 60.8095 149.579 60.6123 149.273C60.4151 148.967 60.2827 148.626 60.223 148.27C60.1633 147.913 60.1775 147.549 60.2647 147.198C60.3518 146.847 60.5103 146.516 60.7307 146.226Z" fill="#F10900"/>
<path d="M76.5798 162.015C76.4808 161.892 76.4091 161.749 76.3691 161.597C76.3297 161.39 76.3411 161.178 76.4024 160.976C76.4636 160.775 76.5731 160.59 76.7217 160.438C76.9297 160.23 77.1556 160.039 77.3968 159.869C77.685 159.662 77.9464 159.421 78.175 159.153C78.2995 159.002 78.3955 158.83 78.4588 158.646C78.5212 158.452 78.5475 158.248 78.5362 158.044C78.485 157.63 78.366 157.228 78.1836 156.851C78.0044 156.488 77.8605 156.11 77.7537 155.721C77.6865 155.359 77.6997 154.986 77.7924 154.629C77.8681 154.301 78.0004 153.988 78.1836 153.704C78.3576 153.465 78.5628 153.25 78.7942 153.064C79.1256 152.779 79.4715 152.511 79.8305 152.26C80.0842 152.08 80.2347 151.996 80.2304 151.984C80.0774 152.039 79.9328 152.113 79.8004 152.206C79.4221 152.437 79.0614 152.694 78.7211 152.976C78.474 153.164 78.2541 153.383 78.0675 153.629C77.8696 153.924 77.7242 154.249 77.6376 154.591C77.5351 154.97 77.519 155.365 77.5903 155.75C77.6954 156.151 77.8394 156.54 78.0203 156.914C78.1945 157.274 78.3105 157.658 78.3642 158.052C78.3758 158.236 78.3539 158.42 78.2997 158.596C78.243 158.764 78.1572 158.921 78.046 159.061C77.6161 159.613 76.984 159.94 76.6314 160.392C76.4747 160.558 76.3628 160.76 76.3058 160.979C76.2487 161.198 76.2483 161.428 76.3046 161.647C76.3365 161.765 76.3969 161.874 76.4809 161.965C76.5368 161.995 76.5755 162.02 76.5798 162.015Z" fill="#263238"/>
<path d="M87.1746 139.362C87.0899 139.403 87.0105 139.454 86.9381 139.513C86.7254 139.681 86.5512 139.891 86.4264 140.128C86.2353 140.503 86.1075 140.906 86.0481 141.321C85.9621 141.802 85.9578 142.359 85.8761 142.961C85.8298 143.616 85.5656 144.237 85.1236 144.732C84.8438 144.971 84.5199 145.157 84.169 145.28C83.7787 145.41 83.4127 145.601 83.0855 145.845C82.75 146.134 82.5357 146.533 82.4835 146.967C82.4277 147.405 82.4583 147.849 82.5738 148.276C82.6941 148.712 82.8464 149.139 83.0296 149.553C83.214 149.97 83.358 150.403 83.4596 150.846C83.5686 151.282 83.5493 151.739 83.4037 152.164C83.2337 152.566 82.9596 152.918 82.6082 153.186C82.2728 153.466 81.903 153.709 81.5676 153.985C81.2193 154.243 80.938 154.577 80.7464 154.96C80.5805 155.335 80.5211 155.747 80.5744 156.153C80.6213 156.523 80.6902 156.891 80.7808 157.253C80.8636 157.586 80.9168 157.925 80.9399 158.266C80.9653 158.903 80.8511 159.537 80.6049 160.128C80.3588 160.718 79.9863 161.25 79.5123 161.69C79.2443 161.927 78.9566 162.142 78.6523 162.334C78.7392 162.3 78.8226 162.258 78.9017 162.208C79.1335 162.072 79.351 161.914 79.551 161.736C80.044 161.296 80.4346 160.758 80.6964 160.159C80.9582 159.56 81.0852 158.913 81.0688 158.262C81.0459 157.913 80.9941 157.565 80.9141 157.224C80.829 156.867 80.7644 156.505 80.7206 156.14C80.6688 155.76 80.7254 155.374 80.884 155.023C81.0698 154.663 81.3374 154.35 81.6665 154.106C81.9976 153.838 82.3674 153.596 82.7157 153.311C83.096 153.027 83.3927 152.65 83.5756 152.219C83.7336 151.767 83.756 151.281 83.6401 150.817C83.4553 149.879 82.9565 149.08 82.7544 148.239C82.6416 147.83 82.6095 147.404 82.6598 146.983C82.7073 146.588 82.9015 146.224 83.2059 145.958C83.8121 145.452 84.6893 145.372 85.2397 144.824C85.4969 144.568 85.6884 144.257 85.7987 143.916C85.9056 143.609 85.9777 143.292 86.0137 142.97C86.091 142.359 86.0825 141.806 86.1599 141.329C86.2104 140.922 86.3264 140.525 86.5038 140.153C86.6624 139.843 86.8919 139.573 87.1746 139.362Z" fill="#263238"/>
<path d="M72.4006 133.959C72.6752 134.239 72.8849 134.573 73.0155 134.938C73.1605 135.37 73.2387 135.82 73.2477 136.273C73.2692 136.805 73.209 137.407 73.2004 138.085C73.152 138.832 73.314 139.577 73.6691 140.241C74.0776 140.948 74.7784 141.496 75.2428 142.241C75.472 142.627 75.6182 143.054 75.6728 143.497C75.7274 143.964 75.7346 144.435 75.6943 144.903C75.6384 145.857 75.475 146.882 75.7545 147.908C76.034 148.933 76.7478 149.716 77.1047 150.603C77.291 151.027 77.3535 151.494 77.2852 151.951C77.1767 152.389 77.0074 152.812 76.7822 153.206C76.5612 153.595 76.4155 154.021 76.3522 154.462C76.3197 154.875 76.3516 155.292 76.4468 155.696C76.5331 156.066 76.5992 156.441 76.6446 156.818C76.6817 157.161 76.6569 157.508 76.5715 157.843C76.3967 158.42 76.1693 158.98 75.8921 159.517C75.6842 159.929 75.5255 160.363 75.4191 160.81C75.3663 161.098 75.3663 161.393 75.4191 161.681L75.4793 161.898C75.4793 161.949 75.4879 161.974 75.5051 161.974C75.5073 161.947 75.5073 161.921 75.5051 161.894L75.4621 161.677C75.4336 161.397 75.451 161.114 75.5137 160.84C75.6326 160.405 75.7998 159.984 76.0125 159.584C76.2991 159.048 76.5351 158.488 76.7177 157.91C76.8113 157.562 76.8418 157.201 76.808 156.843C76.7779 156.47 76.6876 156.098 76.6188 155.709C76.5281 155.318 76.4977 154.916 76.5285 154.516C76.5971 154.095 76.7427 153.69 76.9585 153.319C77.1915 152.916 77.3666 152.484 77.4787 152.034C77.5573 151.547 77.4933 151.048 77.2938 150.595C76.9198 149.678 76.2318 148.891 75.9566 147.916C75.6814 146.941 75.8405 145.932 75.8921 144.966C75.9394 144.488 75.9394 144.008 75.8921 143.53C75.8355 143.067 75.6803 142.621 75.4363 142.22C74.9461 141.442 74.2496 140.902 73.8497 140.228C73.5038 139.584 73.342 138.861 73.381 138.136C73.381 137.466 73.4369 136.859 73.381 136.319C73.3654 135.858 73.2769 135.402 73.1187 134.968C73.0141 134.694 72.8613 134.441 72.6672 134.218C72.5911 134.12 72.5014 134.033 72.4006 133.959Z" fill="#263238"/>
<path d="M62.0852 148.502C62.0748 148.566 62.0748 148.631 62.0852 148.694C62.1177 148.88 62.1991 149.055 62.3217 149.201C62.5137 149.433 62.7559 149.622 63.0312 149.753C63.3935 149.92 63.7766 150.039 64.1707 150.109C64.6384 150.185 65.0901 150.334 65.5079 150.553C65.7297 150.696 65.92 150.881 66.0677 151.096C66.2153 151.312 66.3174 151.554 66.3679 151.808C66.527 152.344 66.5442 152.942 66.7162 153.553C66.7961 153.867 66.9315 154.164 67.116 154.432C67.3102 154.719 67.598 154.935 67.933 155.043C68.621 155.248 69.296 155.043 69.8894 155.19C70.1726 155.262 70.4322 155.403 70.6436 155.6C70.8551 155.797 71.0113 156.043 71.0977 156.315C71.2719 156.819 71.3873 157.34 71.4417 157.868C71.496 158.341 71.6419 158.8 71.8716 159.22C72.2364 159.814 72.8089 160.259 73.4841 160.475C73.6655 160.534 73.8529 160.573 74.0431 160.593C74.1099 160.604 74.1783 160.604 74.2452 160.593C73.9949 160.557 73.7487 160.498 73.5099 160.417C72.8636 160.185 72.3208 159.741 71.9748 159.161C71.7577 158.751 71.6206 158.306 71.5707 157.847C71.5186 157.308 71.4047 156.776 71.231 156.261C71.1247 155.978 70.9626 155.718 70.7537 155.495C70.5246 155.256 70.2236 155.093 69.8937 155.031C69.2445 154.897 68.5737 155.077 67.9545 154.884C67.6552 154.787 67.3978 154.596 67.2235 154.34C67.0504 154.084 66.9225 153.801 66.8451 153.503C66.6775 152.921 66.656 152.319 66.4926 151.762C66.433 151.49 66.3183 151.232 66.1552 151.004C65.992 150.775 65.7836 150.58 65.5423 150.431C65.1098 150.217 64.6431 150.075 64.1621 150.013C63.7736 149.952 63.3949 149.842 63.0355 149.686C62.7684 149.567 62.5297 149.394 62.3346 149.18C62.188 148.981 62.1017 148.746 62.0852 148.502Z" fill="#263238"/>
<path d="M75.1954 153.951C75.1235 154.044 75.0616 154.143 75.0105 154.248C74.8585 154.529 74.7236 154.818 74.6063 155.115C74.2188 156.1 73.9995 157.14 73.957 158.195C73.9319 158.772 73.9607 159.351 74.043 159.923C74.0918 160.397 74.2257 160.859 74.4386 161.288C74.5831 161.581 74.8059 161.831 75.0836 162.012C75.1577 162.062 75.2388 162.101 75.3244 162.129C75.3803 162.15 75.4104 162.154 75.4147 162.15C75.419 162.146 75.2986 162.091 75.1223 161.961C74.8732 161.768 74.6768 161.518 74.5504 161.233C74.3575 160.812 74.2383 160.362 74.1978 159.902C74 158.306 74.1795 156.687 74.7224 155.169C74.9847 154.403 75.247 153.964 75.1954 153.951Z" fill="#263238"/>
<path d="M170.346 145.016C170.416 144.924 170.464 144.82 170.49 144.709C170.515 144.598 170.516 144.483 170.492 144.371C170.333 143.953 169.68 144.074 169.331 144.371C168.347 145.162 167.9 146.64 166.67 146.954C166.376 146.989 166.088 147.056 165.81 147.155C165.272 147.418 165.135 148.088 164.95 148.649C164.765 149.209 164.301 149.837 163.712 149.699C163.38 149.624 163.161 149.335 162.899 149.13C162.637 148.925 162.185 148.837 162 149.109C161.954 149.212 161.929 149.323 161.929 149.435C161.929 149.548 161.954 149.659 162 149.762C162.363 151.321 162.136 152.956 161.36 154.365C160.584 155.761 159.636 157.059 158.539 158.232C158.216 155.219 161.256 152.624 161.071 149.599C161.024 148.87 160.792 148.159 160.719 147.431C160.534 145.598 161.652 143.564 163.501 143.166C163.836 143.091 164.228 143.053 164.43 142.781C164.739 142.363 164.301 141.743 163.78 141.66C163.252 141.632 162.729 141.78 162.297 142.078C162.42 141.599 162.689 141.167 163.069 140.839C163.449 140.511 163.922 140.303 164.425 140.241C164.93 140.261 165.436 140.218 165.93 140.115C166.403 139.944 166.756 139.312 166.403 138.96C165.844 138.399 164.744 139.441 164.124 138.96C163.716 138.625 163.974 137.985 164.232 137.529C164.49 137.073 164.662 136.378 164.189 136.135C163.716 135.893 163.204 136.474 162.968 136.972C161.686 139.662 160.406 142.356 159.128 145.054C158.758 145.836 158.38 146.673 158.487 147.527C158.617 148.107 158.819 148.669 159.089 149.201C159.224 149.469 159.303 149.761 159.321 150.059C159.338 150.357 159.295 150.656 159.192 150.938C158.939 151.482 158.148 151.775 157.683 151.407C157.453 151.178 157.303 150.885 157.253 150.57C156.952 149.314 156.647 147.987 156.987 146.736C157.326 145.485 158.221 144.48 158.247 143.233C158.247 142.279 157.761 141.254 158.247 140.421C158.52 140.038 158.873 139.716 159.283 139.475C159.695 139.229 159.993 138.837 160.117 138.383C160.194 137.926 159.786 137.387 159.321 137.495C158.672 137.646 158.608 138.751 157.946 138.797C157.516 138.818 157.245 138.324 157.331 137.926C157.465 137.539 157.715 137.2 158.049 136.951L159.704 135.457C160.095 135.106 160.525 134.62 160.358 134.135C160.247 133.91 160.049 133.736 159.808 133.651C159.567 133.567 159.301 133.578 159.068 133.683C158.608 133.916 158.222 134.266 157.95 134.696C158.08 134.339 158.136 133.96 158.113 133.582C158.099 133.394 158.027 133.214 157.908 133.065C157.788 132.916 157.627 132.805 157.442 132.745C156.883 132.616 156.385 133.164 156.281 133.716C156.178 134.269 156.307 134.83 156.247 135.39C156.187 135.951 155.817 136.545 155.237 136.55C154.984 136.524 154.751 136.409 154.58 136.227C154.408 136.045 154.312 135.809 154.308 135.562C154.315 135.066 154.475 134.583 154.768 134.177C155.057 133.771 155.277 133.323 155.422 132.85C155.49 132.611 155.483 132.358 155.401 132.123C155.319 131.889 155.166 131.684 154.961 131.536C154.531 131.281 153.826 131.569 153.848 132.063C153.745 131.452 153.444 130.674 152.807 130.724C152.171 130.774 152.012 131.519 152.007 132.097C151.997 133.905 152.432 135.688 153.276 137.299C153.792 138.278 154.454 139.182 154.936 140.178C155.478 141.155 155.668 142.281 155.473 143.375C155.262 144.014 155.011 144.638 154.721 145.246C154.408 146.087 154.297 146.985 154.396 147.874C154.495 148.763 154.802 149.617 155.293 150.373C154.863 150.41 154.549 150.076 154.226 149.829C153.904 149.582 153.366 149.41 153.121 149.724C153.039 149.848 153.003 149.995 153.022 150.141C153.04 150.287 153.11 150.423 153.22 150.523C153.443 150.72 153.701 150.876 153.981 150.984C154.63 151.306 155.199 151.761 155.651 152.317C156.103 152.873 156.427 153.518 156.6 154.206C155.839 154.298 155.219 153.081 154.566 153.466C154.136 153.717 154.329 154.399 154.729 154.688C155.129 154.976 155.654 155.081 156.019 155.403C156.29 155.656 156.449 156.002 156.461 156.368C156.473 156.733 156.338 157.088 156.084 157.358C155.546 157.877 154.708 157.659 154.058 157.278C153.436 156.893 152.897 156.392 152.474 155.804C152.05 155.215 151.75 154.552 151.59 153.851C151.19 152.7 151.663 151.44 151.805 150.503C151.977 149.373 152.786 148.389 152.876 147.251C152.966 146.112 152.36 144.803 152.906 143.744C153.233 143.252 153.641 142.816 154.114 142.455C154.351 142.273 154.541 142.04 154.671 141.775C154.8 141.511 154.866 141.22 154.863 140.927C154.781 140.345 154.003 139.898 153.547 140.299C153.332 140.5 153.242 140.856 152.953 140.915C152.665 140.973 152.412 140.655 152.407 140.362C152.444 140.075 152.517 139.794 152.627 139.525C152.679 139.387 152.685 139.236 152.646 139.094C152.607 138.951 152.524 138.824 152.407 138.73C152.258 138.668 152.089 138.666 151.938 138.724C151.787 138.782 151.665 138.895 151.599 139.04C151.481 139.338 151.449 139.662 151.504 139.977C151.577 140.852 151.655 141.731 151.728 142.61C151.728 142.84 151.728 143.128 151.522 143.233C151.315 143.338 151.092 143.183 150.92 143.028C150.542 142.646 150.245 142.195 150.047 141.701C149.85 141.206 149.754 140.679 149.767 140.149C149.803 139.085 150.143 138.052 150.748 137.165C151.052 136.766 151.311 136.337 151.522 135.884C151.624 135.656 151.663 135.405 151.636 135.157C151.609 134.909 151.516 134.672 151.367 134.47C151.286 134.377 151.186 134.303 151.072 134.252C150.959 134.201 150.836 134.174 150.711 134.174C150.586 134.174 150.463 134.201 150.35 134.252C150.237 134.303 150.136 134.377 150.055 134.47C149.832 134.838 150.021 135.307 150.055 135.725C150.141 136.684 149.436 137.508 149.015 138.374C148.624 139.217 148.487 140.15 148.619 141.066C148.752 141.982 149.148 142.842 149.763 143.547C150.163 143.999 150.649 144.384 151.027 144.836C151.234 145.056 151.39 145.317 151.485 145.6C151.58 145.884 151.611 146.184 151.577 146.481C151.553 146.626 151.499 146.765 151.419 146.89C151.339 147.015 151.233 147.123 151.11 147.208C150.986 147.293 150.846 147.353 150.698 147.385C150.551 147.417 150.398 147.419 150.249 147.393C150.021 147.294 149.823 147.14 149.672 146.946C149.522 146.752 149.424 146.524 149.389 146.284C149.318 145.805 149.173 145.339 148.959 144.903C148.701 144.484 148.099 144.221 147.703 144.484C147.579 144.593 147.483 144.729 147.426 144.882C147.368 145.034 147.35 145.198 147.372 145.359C147.445 146.87 148.967 147.87 149.651 149.239C149.907 149.761 150.04 150.333 150.04 150.913C150.04 151.492 149.907 152.064 149.651 152.587C149.44 152.184 149.107 151.853 148.697 151.641C148.267 151.478 147.656 151.708 147.635 152.16C147.648 152.403 147.76 152.631 147.944 152.796C148.426 153.317 149.049 153.694 149.741 153.884C149.6 155.068 150.318 156.203 151.203 157.027C152.089 157.851 153.155 158.479 154.024 159.32C154.893 160.162 155.52 161.559 155.314 162.735L160.826 162.698C160.873 162.134 161.093 161.598 161.458 161.158C161.822 160.717 162.313 160.394 162.869 160.229C163.454 160.07 164.09 160.095 164.649 159.865C165.208 159.634 165.681 158.986 165.397 158.463C165.296 158.308 165.153 158.184 164.984 158.103C164.814 158.023 164.626 157.989 164.438 158.006C164.064 158.043 163.701 158.148 163.368 158.316C163.447 158.257 163.513 158.182 163.561 158.097C163.609 158.012 163.638 157.918 163.647 157.821C163.656 157.724 163.645 157.627 163.613 157.535C163.581 157.442 163.53 157.358 163.463 157.286C163.396 157.214 163.314 157.156 163.223 157.116C163.132 157.077 163.033 157.056 162.933 157.055C162.833 157.054 162.734 157.074 162.643 157.112C162.551 157.151 162.468 157.207 162.4 157.278C162.146 157.55 162.146 157.964 161.992 158.303C161.837 158.642 161.299 158.873 161.11 158.555C161.075 158.469 161.06 158.376 161.064 158.284C161.068 158.192 161.093 158.101 161.136 158.019C161.458 157.111 161.815 156.152 162.568 155.529C164.12 154.24 166.777 154.809 168.158 153.357C168.298 153.233 168.405 153.077 168.468 152.903C168.531 152.729 168.548 152.543 168.519 152.361C168.355 151.758 167.478 151.653 166.898 151.913C166.317 152.172 165.844 152.658 165.234 152.838C164.623 153.018 163.759 152.645 163.849 152.03C163.903 151.841 164.014 151.671 164.167 151.543C164.32 151.415 164.509 151.334 164.709 151.31C165.105 151.222 165.513 151.247 165.9 151.143C166.098 151.107 166.278 151.01 166.415 150.867C166.552 150.724 166.638 150.542 166.661 150.348C166.652 150.274 166.628 150.203 166.589 150.14C166.55 150.076 166.498 150.021 166.436 149.978C166.374 149.935 166.304 149.905 166.229 149.89C166.155 149.875 166.078 149.876 166.003 149.892C167.766 148.56 169.242 146.903 170.346 145.016Z" fill="#455A64"/>
<path d="M193.923 113.645C193.923 113.645 193.923 114.227 193.923 115.353C193.923 116.479 193.837 118.161 193.682 120.354C193.156 126.747 191.857 133.057 189.812 139.153C188.325 143.552 186.462 147.821 184.244 151.918C182.992 154.136 181.664 156.437 180.086 158.714L179.501 159.58C179.299 159.861 179.092 160.145 178.882 160.417C178.452 160.987 178.056 161.568 177.622 162.142C176.732 163.276 175.846 164.439 174.87 165.565C173.894 166.691 172.879 167.825 171.86 168.968L170.226 170.642C169.684 171.207 169.091 171.738 168.506 172.295C160.906 179.487 151.974 185.211 142.183 189.165L142.153 189.006H148.224C148.74 189.006 149.243 189.006 149.772 189.006C150.304 189.058 150.815 189.233 151.264 189.516C151.711 189.806 152.08 190.196 152.339 190.654C152.597 191.119 152.732 191.639 152.732 192.167C152.732 192.696 152.597 193.216 152.339 193.68C152.078 194.149 151.701 194.547 151.242 194.84C150.782 195.134 150.252 195.309 149.703 195.35C149.157 195.375 148.628 195.35 148.091 195.35H141.576H114.088H71.0892C70.422 195.406 69.7513 195.29 69.1457 195.011C68.5349 194.713 68.0345 194.238 67.714 193.651C67.3935 193.063 67.2687 192.394 67.3571 191.734C67.4455 191.075 67.7427 190.459 68.2073 189.971C68.6719 189.484 69.2809 189.149 69.9498 189.014C70.2832 188.956 70.6219 188.934 70.9602 188.947H77.9346L77.8916 189.148C66.5141 184.545 56.312 177.569 48.0041 168.713C39.6962 159.857 33.4845 149.335 29.8066 137.889C28.2707 133.017 27.1941 128.019 26.5903 122.957C25.4622 113.034 26.1258 102.994 28.551 93.2934C29.7507 88.5827 31.3737 83.9837 33.4012 79.5497C37.3571 70.9415 42.8663 63.0932 49.6675 56.3771C56.1482 49.9921 63.6864 44.7136 71.9664 40.7627H71.9922L150.017 41.7797C155.836 44.872 161.265 48.6151 166.193 52.9328C168.46 54.9196 170.613 57.0265 172.643 59.2439C173.64 60.3027 174.552 61.4034 175.468 62.4747C176.383 63.5461 177.222 64.6468 178.017 65.7474C178.813 66.8481 179.583 67.9404 180.339 69.0118C181.096 70.0832 181.767 71.1796 182.399 72.2678C183.719 74.4147 184.837 76.5658 185.873 78.6374C187.716 82.4431 189.259 86.3801 190.487 90.4141C192.179 96.006 193.251 101.759 193.682 107.573C193.811 109.565 193.88 111.084 193.88 112.109C193.88 113.135 193.88 113.654 193.88 113.654C193.88 113.654 193.88 113.131 193.841 112.109C193.802 111.088 193.759 109.565 193.626 107.577C193.173 101.773 192.088 96.0325 190.388 90.4518C189.173 86.4208 187.645 82.4853 185.817 78.6793C184.781 76.6118 183.667 74.4649 182.339 72.3222C181.707 71.234 180.98 70.1752 180.275 69.0746C179.57 67.9739 178.787 66.8942 177.957 65.8186C177.127 64.743 176.285 63.6507 175.407 62.5543C174.53 61.4578 173.576 60.3864 172.582 59.3276C170.553 57.1213 168.399 55.0256 166.133 53.05C161.211 48.7429 155.789 45.0097 149.978 41.9261H150.017L72.0094 40.9552H72.0567C63.7981 44.8976 56.2802 50.1648 49.818 56.5361C43.0381 63.2348 37.5464 71.0618 33.6033 79.646C31.5831 84.0599 29.9644 88.6377 28.766 93.3269C26.344 103.003 25.6833 113.017 26.8139 122.915C27.4173 127.964 28.491 132.95 30.0216 137.81C33.6843 149.238 39.8781 159.745 48.1662 168.59C56.4543 177.434 66.635 184.402 77.9905 189.001L78.4892 189.202H70.9731C70.6493 189.189 70.3249 189.21 70.0057 189.265C69.3813 189.393 68.8131 189.706 68.3797 190.162C67.9463 190.618 67.6692 191.194 67.5865 191.809C67.5039 192.425 67.6199 193.051 67.9185 193.6C68.2171 194.148 68.6835 194.593 69.2532 194.873C69.5337 195.012 69.8359 195.106 70.1476 195.149C70.4639 195.191 70.7833 195.205 71.1021 195.191H148.104C148.637 195.191 149.183 195.191 149.703 195.191C150.223 195.154 150.725 194.989 151.161 194.71C151.592 194.434 151.946 194.059 152.191 193.617C152.436 193.174 152.563 192.68 152.562 192.178C152.554 191.68 152.424 191.191 152.184 190.751C151.938 190.318 151.588 189.949 151.165 189.675C150.744 189.405 150.261 189.239 149.759 189.194C149.26 189.165 148.731 189.194 148.224 189.194H141.727L142.118 189.035C151.895 185.091 160.814 179.378 168.403 172.198C168.975 171.642 169.568 171.114 170.123 170.549L171.753 168.875C172.789 167.737 173.834 166.636 174.762 165.481C175.691 164.326 176.629 163.196 177.519 162.066C177.949 161.497 178.379 160.916 178.779 160.346L179.398 159.509L179.978 158.647C181.561 156.379 182.889 154.077 184.145 151.863C186.359 147.781 188.22 143.527 189.709 139.145C191.766 133.059 193.08 126.759 193.626 120.375C193.794 118.182 193.884 116.504 193.892 115.374C193.901 114.244 193.923 113.645 193.923 113.645Z" fill="#263238"/>
<path d="M150.034 41.8505C149.971 41.8729 149.906 41.8911 149.84 41.9049L149.256 42.0389L147.015 42.5411C145.072 42.9931 142.234 43.5455 138.721 44.1774L135.952 44.621L134.481 44.8596L132.946 45.0605L129.717 45.479C128.604 45.6003 127.46 45.7008 126.277 45.818C121.178 46.2791 116.056 46.4524 110.936 46.3369C100.014 46.0398 90.2362 44.4495 83.2232 43.173C79.7145 42.5118 76.8809 41.9468 74.9331 41.499L72.6671 41.0386L72.0823 40.9047L71.8845 40.8545C71.9524 40.8605 72.0199 40.8703 72.0866 40.8838L72.6671 41.0135L74.9374 41.432C76.8938 41.8505 79.7274 42.3737 83.2404 43.0182C90.2577 44.2737 100.01 45.818 110.927 46.1151C116.045 46.2322 121.166 46.0645 126.264 45.6129L129.704 45.2865L132.929 44.868L134.464 44.6713L135.935 44.4411L138.7 44.0226C142.217 43.4116 145.055 42.8801 147.003 42.4532L149.256 41.9928L149.84 41.8798L150.034 41.8505Z" fill="#263238"/>
<path d="M68.5006 54.2598C68.1759 54.6223 67.8143 54.9518 67.4213 55.2433L66.0626 56.3607L65.2026 57.0679C64.8973 57.3232 64.5921 57.6204 64.2567 57.9049L62.038 59.9221C61.2468 60.6754 60.4384 61.5459 59.5355 62.4332C58.6325 63.3204 57.7639 64.3834 56.8051 65.459C55.8462 66.5345 54.9217 67.7524 53.9371 69.0121C53.692 69.3259 53.4469 69.6482 53.1932 69.9704C52.9395 70.2927 52.7245 70.6442 52.4837 70.9874C52.015 71.6779 51.5292 72.381 51.039 73.0799C50.5488 73.7788 50.0973 74.5698 49.6243 75.3357C49.1514 76.1015 48.6655 76.8925 48.2054 77.7044C47.7453 78.5163 47.3454 79.3784 46.8724 80.2155C46.6532 80.634 46.4124 81.0525 46.1974 81.5128L45.5782 82.919C45.1482 83.8272 44.7182 84.7353 44.3355 85.6811C43.9529 86.6269 43.5917 87.5979 43.2133 88.5772C42.8349 89.5565 42.521 90.5693 42.1813 91.5862C41.8416 92.6032 41.4934 93.6327 41.2483 94.6999C41.0032 95.7671 40.6979 96.8343 40.4184 97.9308C40.1389 99.0273 39.9884 100.136 39.7734 101.254C38.974 105.881 38.6213 110.57 38.72 115.261C38.8967 119.951 39.5258 124.614 40.599 129.189C40.8856 130.305 41.1637 131.399 41.4332 132.47L42.4479 135.634C42.7532 136.689 43.1875 137.689 43.5659 138.693C43.9443 139.698 44.3054 140.694 44.7698 141.623C45.2342 142.552 45.6298 143.523 46.0598 144.452C46.4898 145.381 47.0014 146.256 47.4615 147.139L48.1538 148.453C48.3946 148.871 48.6569 149.29 48.9063 149.708L50.3811 152.152C50.8885 152.939 51.4303 153.688 51.9376 154.442C52.445 155.195 52.9266 155.936 53.4813 156.614L55.0507 158.639C55.313 158.966 55.5538 159.305 55.8204 159.614C56.087 159.924 56.3536 160.229 56.6202 160.531C57.6779 161.732 58.6454 162.912 59.6902 163.916C60.7351 164.921 61.6252 165.955 62.5969 166.787C63.5687 167.62 64.4072 168.461 65.2413 169.173L67.5718 171.06C67.9244 171.341 68.2469 171.621 68.5694 171.86L69.4767 172.517L70.8999 173.559C71.3091 173.826 71.6894 174.133 72.0351 174.475C71.5893 174.272 71.1657 174.025 70.7709 173.739L69.2832 172.78L68.3372 172.161C68.0061 171.931 67.6707 171.667 67.3052 171.395L64.8973 169.566C64.0374 168.876 63.1473 168.072 62.1669 167.231C61.1866 166.39 60.2234 165.411 59.1571 164.394C58.0907 163.377 57.0845 162.226 55.9967 161.046L55.1754 160.129C54.9002 159.819 54.6508 159.484 54.3843 159.154L52.7675 157.128C52.1999 156.45 51.7141 155.693 51.1766 154.948C50.6391 154.203 50.1016 153.445 49.5813 152.65L48.0592 150.194C47.8055 149.775 47.5346 149.357 47.2895 148.938L46.5758 147.616C46.1028 146.724 45.5954 145.833 45.131 144.908C44.6666 143.983 44.271 143.012 43.8024 142.05C43.3337 141.087 42.9983 140.049 42.5683 139.041C42.1383 138.032 41.7341 137.011 41.4203 135.944L40.3754 132.738C40.0887 131.641 39.8021 130.534 39.5154 129.415C38.4112 124.772 37.7647 120.036 37.5848 115.274C37.4843 110.507 37.8514 105.743 38.6813 101.044C38.9049 99.9145 39.127 98.7985 39.3477 97.6964C39.6315 96.5999 39.9153 95.5118 40.2077 94.4404C40.5001 93.3691 40.8441 92.3228 41.1709 91.2849C41.4977 90.247 41.8158 89.2217 42.2329 88.2424L43.3939 85.3128C43.7981 84.3587 44.2538 83.4421 44.6838 82.5256L45.3202 81.1655C45.5395 80.7218 45.7846 80.2908 46.0168 79.8597L47.3884 77.3194C47.8614 76.4824 48.3731 75.7165 48.8504 74.9381C49.3277 74.1597 49.7791 73.3813 50.308 72.674C50.8369 71.9667 51.3142 71.2469 51.8044 70.5815C52.0494 70.2383 52.2773 69.8867 52.5353 69.5603L53.3007 68.6061C54.3155 67.3506 55.2485 66.1202 56.259 65.0656C57.2694 64.0109 58.1294 62.9396 59.0797 62.0649C60.0299 61.1902 60.8469 60.3197 61.6596 59.5832C62.4722 58.8466 63.2634 58.2105 63.9557 57.6245C64.304 57.3316 64.6221 57.047 64.9403 56.7875L65.8476 56.1179L67.2794 55.0759C67.6568 54.764 68.066 54.4905 68.5006 54.2598Z" fill="white"/>
<path d="M150.352 45.8974C150.374 45.9685 149.346 46.2698 147.467 46.7344L145.906 47.1278C145.33 47.2617 144.702 47.3831 144.031 47.5463C142.681 47.8183 141.15 48.1657 139.439 48.4251L136.735 48.8646C135.801 49.0152 134.821 49.1199 133.811 49.258C131.79 49.5467 129.618 49.7309 127.335 49.9443C122.371 50.3264 117.389 50.466 112.41 50.3628C107.109 50.2163 102.091 49.7853 97.5201 49.2119C95.2498 48.8855 93.087 48.5967 91.0704 48.2117C90.0685 48.0234 89.0967 47.8685 88.1723 47.6718L85.5107 47.0985C83.8122 46.7511 82.303 46.3326 80.97 45.9978C80.3079 45.822 79.6801 45.6672 79.1168 45.5082L77.5775 45.0394C75.7286 44.4703 74.7181 44.1229 74.7396 44.0476C74.7611 43.9723 75.8145 44.1857 77.6936 44.6293L79.2544 45.0018L81.1205 45.4203C82.4621 45.7007 83.9799 46.0648 85.6784 46.3619L88.3357 46.8641C89.2601 47.0357 90.2319 47.1696 91.2294 47.337C93.2289 47.6844 95.3788 47.9355 97.6362 48.2326C102.168 48.7432 107.165 49.145 112.423 49.2873C117.682 49.4296 122.691 49.2454 127.241 48.9525C129.511 48.7683 131.674 48.6177 133.69 48.3707C134.696 48.2536 135.673 48.1657 136.606 48.0401L139.284 47.6677C141.004 47.4542 142.531 47.1613 143.885 46.9478L145.773 46.6381L147.351 46.341C149.273 45.9811 150.335 45.822 150.352 45.8974Z" fill="white"/>
<path d="M84.079 179.878C83.9371 180.146 82.2387 179.56 80.2823 178.572C78.3258 177.584 76.8424 176.563 76.9972 176.295C77.152 176.027 78.8418 176.613 80.7982 177.605C82.7547 178.597 84.2252 179.61 84.079 179.878Z" fill="white"/>
<path d="M142.694 189.185C142.694 189.244 128.195 189.294 110.316 189.294C92.4378 189.294 77.9387 189.244 77.9387 189.185C77.9387 189.127 92.4335 189.077 110.316 189.077C128.199 189.077 142.694 189.127 142.694 189.185Z" fill="#263238"/>
<path d="M157.086 78.9971C156.007 79.968 162.323 89.4346 160.741 90.2423C159.158 91.05 149.355 95.5824 150.52 95.7415C151.685 95.9005 162.237 93.2305 162.56 94.0423C162.882 94.8542 163.72 106.501 164.967 106.095C166.214 105.689 165.797 94.2851 167.547 94.691C169.297 95.097 178.852 98.0056 179.35 97.1184C179.849 96.2311 169.413 92.0084 169.138 90.4851C168.889 89.1082 174.122 79.968 173.292 80.2108C172.462 80.4535 166.141 87.7438 164.899 87.4927C163.394 87.1663 158.083 78.5953 157.086 78.9971Z" fill="#FFA012"/>
<path d="M101.394 167.205C100.987 165.596 101.036 163.909 101.536 162.325C102.036 160.741 102.968 159.318 104.233 158.209C105.498 157.099 107.049 156.345 108.72 156.025C110.391 155.706 112.12 155.834 113.722 156.395C115.287 154.839 117.832 154.671 120.012 155.161C121.054 155.415 122.078 155.734 123.078 156.115C124.231 156.533 125.452 156.981 126.178 157.944C126.369 157.773 126.598 157.647 126.848 157.578C127.097 157.508 127.36 157.495 127.615 157.542C127.87 157.588 128.11 157.692 128.317 157.844C128.524 157.997 128.691 158.194 128.806 158.421C128.873 158.324 128.96 158.243 129.062 158.181C129.163 158.119 129.277 158.078 129.396 158.062C129.514 158.045 129.635 158.053 129.75 158.085C129.866 158.116 129.973 158.171 130.065 158.245C130.24 158.414 130.365 158.625 130.426 158.857C130.488 159.09 130.483 159.334 130.414 159.563C130.268 160.019 130.036 160.445 129.73 160.819C128.797 162.133 127.675 163.56 126.049 163.778C125.599 164.831 124.794 165.704 123.766 166.252C122.738 166.801 121.55 166.992 120.395 166.795C120.743 167.791 119.797 168.745 118.899 169.331C116.13 171.152 112.776 172.261 109.439 171.968C106.102 171.675 102.817 170.147 101.394 167.205Z" fill="#A4B4DC"/>
<path d="M120.395 166.795C120.217 166.775 120.042 166.733 119.875 166.67C119.672 166.616 119.473 166.552 119.277 166.477L118.508 166.151C117.04 165.439 115.844 164.289 115.094 162.87C114.395 161.446 113.968 159.91 113.834 158.337C113.769 157.739 113.739 157.253 113.726 156.914C113.71 156.742 113.71 156.568 113.726 156.396C113.777 156.563 113.806 156.736 113.812 156.91C113.847 157.245 113.902 157.726 113.988 158.316C114.161 159.86 114.597 161.365 115.278 162.769C116.01 164.151 117.155 165.284 118.563 166.017L119.307 166.364C119.522 166.469 119.737 166.523 119.888 166.59C120.064 166.641 120.234 166.71 120.395 166.795Z" fill="#263238"/>
<path d="M126.05 163.786C125.912 163.767 125.777 163.73 125.65 163.677C125.296 163.55 124.957 163.388 124.639 163.192C123.566 162.553 122.71 161.619 122.18 160.509C121.884 159.901 121.697 159.249 121.625 158.58C121.54 158.028 121.613 157.465 121.836 156.952C122 156.605 122.287 156.327 122.644 156.169C122.77 156.105 122.912 156.079 123.053 156.094C123.053 156.094 122.906 156.127 122.678 156.244C122.365 156.42 122.119 156.69 121.978 157.014C121.79 157.508 121.739 158.04 121.831 158.559C121.91 159.203 122.096 159.831 122.382 160.417C122.901 161.491 123.711 162.407 124.725 163.066C125.499 163.577 126.067 163.74 126.05 163.786Z" fill="#263238"/>
<path d="M129.227 161.518C128.97 161.671 128.664 161.728 128.367 161.677C127.644 161.569 126.985 161.213 126.51 160.672C126.269 160.405 126.089 160.091 125.983 159.752C125.876 159.412 125.844 159.054 125.89 158.701C125.904 158.408 126.01 158.126 126.196 157.894C126.234 157.894 126.075 158.203 126.045 158.731C126.005 159.392 126.232 160.042 126.677 160.543C127.124 161.048 127.728 161.398 128.397 161.539C128.674 161.561 128.952 161.554 129.227 161.518Z" fill="#263238"/>
<path d="M130.285 159.94C130.285 159.94 130.186 160.166 129.829 160.296C129.616 160.366 129.385 160.375 129.167 160.321C129.031 160.287 128.903 160.226 128.792 160.142C128.681 160.058 128.589 159.952 128.522 159.831C128.424 159.612 128.381 159.373 128.396 159.135C128.411 158.896 128.483 158.665 128.608 158.459C128.81 158.132 129.102 158.115 129.094 158.145C129.085 158.174 128.883 158.237 128.746 158.534C128.658 158.721 128.611 158.924 128.607 159.13C128.603 159.336 128.643 159.541 128.724 159.731C128.832 159.922 129.013 160.065 129.227 160.128C129.407 160.183 129.598 160.19 129.782 160.149C130.1 160.074 130.255 159.911 130.285 159.94Z" fill="#263238"/>
<path d="M112.311 157.107C112.311 157.148 111.628 157.027 110.536 157.107C109.107 157.185 107.717 157.586 106.476 158.279C105.235 158.971 104.177 159.935 103.385 161.095C102.774 161.982 102.525 162.614 102.499 162.597C102.529 162.442 102.579 162.292 102.65 162.15C102.818 161.755 103.02 161.374 103.252 161.011C104.026 159.802 105.095 158.799 106.365 158.09C107.634 157.382 109.064 156.991 110.527 156.952C110.967 156.94 111.407 156.962 111.843 157.019C112.002 157.028 112.16 157.057 112.311 157.107Z" fill="white"/>
<path d="M121.199 156.6C121.178 156.63 120.829 156.391 120.206 156.148C119.394 155.827 118.517 155.692 117.643 155.755C116.769 155.817 115.922 156.075 115.167 156.508C114.586 156.839 114.277 157.123 114.251 157.098C114.477 156.807 114.76 156.562 115.085 156.378C115.844 155.892 116.719 155.602 117.626 155.537C118.533 155.472 119.442 155.633 120.266 156.006C120.616 156.14 120.933 156.342 121.199 156.6Z" fill="white"/>
<path d="M117.695 164.414C117.477 164.373 117.273 164.282 117.097 164.15C116.654 163.864 116.274 163.494 115.978 163.063C115.683 162.632 115.479 162.148 115.377 161.639C115.319 161.43 115.312 161.211 115.356 160.999C115.522 161.686 115.796 162.344 116.169 162.949C116.599 163.509 117.113 164.003 117.695 164.414Z" fill="white"/>
<path d="M123.311 160.99C122.942 160.746 122.67 160.387 122.537 159.973C122.334 159.586 122.269 159.145 122.352 158.718C122.416 158.718 122.476 159.266 122.743 159.89C123.01 160.513 123.362 160.948 123.311 160.99Z" fill="white"/>
<path d="M127.49 160.551C127.456 160.597 127.107 160.371 126.892 159.932C126.677 159.492 126.703 159.095 126.763 159.095C126.824 159.095 126.897 159.45 127.095 159.844C127.292 160.237 127.533 160.505 127.49 160.551Z" fill="white"/>
<path d="M129.373 159.953C129.373 159.978 129.279 159.982 129.167 159.919C129.021 159.834 128.908 159.704 128.844 159.551C128.78 159.398 128.77 159.229 128.814 159.069C128.853 158.948 128.913 158.89 128.939 158.902C128.965 158.915 128.939 159.187 129.055 159.467C129.171 159.747 129.399 159.898 129.373 159.953Z" fill="white"/>
<path d="M125.671 158.262C125.267 157.855 124.789 157.524 124.261 157.287C123.706 157.111 123.123 157.036 122.541 157.065C122.541 157.04 122.722 156.952 123.053 156.91C123.489 156.866 123.93 156.925 124.339 157.082C124.747 157.239 125.111 157.488 125.4 157.81C125.62 158.057 125.693 158.249 125.671 158.262Z" fill="white"/>
<path d="M127.984 158.09C127.941 158.136 127.679 157.964 127.318 157.998C126.957 158.031 126.72 158.224 126.673 158.186C126.626 158.149 126.673 158.082 126.785 157.985C126.929 157.866 127.11 157.794 127.299 157.78C127.488 157.767 127.677 157.812 127.838 157.91C127.959 157.99 128.002 158.069 127.984 158.09Z" fill="white"/>
<path d="M129.773 81.5709C129.582 80.243 129.06 78.9807 128.254 77.8934C127.448 76.806 126.381 75.9265 125.147 75.331C124.62 75.0276 123.995 74.929 123.397 75.0548C123.13 75.1385 122.898 75.2975 122.631 75.3812C122.061 75.4989 121.471 75.4773 120.911 75.3184C120.392 75.193 119.845 75.2371 119.355 75.444C119.117 75.5587 118.934 75.7591 118.845 76.0028C118.756 76.2465 118.767 76.5144 118.878 76.7497C119.067 76.9895 119.329 77.1664 119.626 77.2561L129.945 81.5876" fill="#F10900"/>
<g opacity="0.3">
<path d="M129.266 80.9179C130.027 81.5289 126.574 76.9881 122.67 76.3896C121.539 76.2139 120.21 75.9921 119.445 76.8081C119.445 76.8207 126.144 78.4068 129.266 80.9179Z" fill="black"/>
</g>
<path d="M116.362 76.3896C115.47 75.0513 114.402 73.8328 113.185 72.7653C111.925 71.7483 110.308 71.0494 108.678 71.1917C108.369 71.1958 108.065 71.2666 107.788 71.399C107.511 71.5315 107.267 71.7223 107.074 71.9576C106.96 72.1922 106.826 72.4175 106.675 72.6314C106.318 73.0164 105.681 73.008 105.273 73.3387C104.658 73.8367 104.89 74.8788 105.518 75.36C106.146 75.8413 106.997 75.9125 107.793 75.9669L116.414 76.5863" fill="#F10900"/>
<path d="M106.52 84.1196C105.765 84.1306 105.021 83.9395 104.37 83.5672C103.708 83.1874 102.979 82.9332 102.22 82.8181C101.463 82.7595 100.612 83.0943 100.35 83.789C100.019 84.6804 100.78 85.5886 101.541 86.1787C104.188 88.1873 107.54 89.1041 110.876 88.7316" fill="#F10900"/>
<path d="M133.583 86.1827C132.645 83.09 129.403 79.4866 119.316 76.9128C109.229 74.339 101.687 75.9796 101.687 75.9796C101.687 75.9796 99.9667 76.5236 92.8634 77.3188C85.7601 78.1139 83.6403 83.6424 86.7362 85.4336C87.9444 86.1325 92.3259 81.2988 92.3259 81.2988C90.0728 84.471 92.3259 87.9948 93.9083 89.1415C95.4906 90.2882 97.0557 89.3089 98.5134 87.5889C99.971 85.8688 98.5392 81.6126 98.5392 81.6126C98.5392 81.6126 99.3175 80.7129 102.564 81.169C105.81 81.6252 108.979 88.4008 110.961 89.4805C112.944 90.5603 121.079 94.5319 127.696 94.3352C134.314 94.1385 134.52 89.2755 133.583 86.1827Z" fill="white"/>
<path d="M117.321 76.4523C114.171 75.7941 110.958 75.4644 107.736 75.4688C107.736 75.4688 106.223 76.5276 106.06 77.4776C105.896 78.4276 105.728 79.386 105.728 79.386C104.267 79.6078 103.531 81.4785 103.531 81.4785C105.991 82.7047 108.338 86.9191 110.08 88.7396C110.665 80.0975 116.629 76.8038 117.321 76.4523Z" fill="#F10900"/>
<path d="M128.84 80.6458H128.81C127.758 80.0167 126.663 79.4574 125.533 78.9717L125.134 78.8085L124.966 78.7374C124.072 78.3775 123.087 78.0259 122.003 77.6911L121.934 77.6702L121.72 77.6074C120.756 78.6788 120.885 79.9301 120.898 81.374C120.911 82.8178 120.963 84.3035 120.215 85.559C119.68 86.326 118.989 86.9784 118.185 87.4758C117.19 88.1761 116.174 88.8401 115.136 89.4679C114.552 89.8236 113.89 90.3049 113.872 90.9577C116.372 92.0834 118.971 92.9869 121.638 93.6571C121.638 93.6571 121.496 88.2542 123.117 86.2998C123.117 86.2454 125.177 82.1273 128.84 80.6458Z" fill="#F10900"/>
<path d="M133.583 86.1827C133.277 85.1947 132.783 84.2717 132.125 83.4624C132.125 83.4624 127.585 84.2325 126.363 87.6014C125.614 89.736 125.226 91.9749 125.215 94.2305C126.035 94.319 126.859 94.354 127.683 94.3352C134.297 94.1385 134.52 89.2754 133.583 86.1827Z" fill="#F10900"/>
<path d="M99.0379 81.3154C98.4895 79.812 98.078 78.2645 97.8082 76.6909C96.5569 76.8709 94.9359 77.0843 92.8462 77.3187C85.7385 78.1138 83.623 83.6423 86.7189 85.4335C87.9271 86.1324 92.3087 81.2987 92.3087 81.2987C90.0556 84.4709 92.3087 87.9947 93.891 89.1414C95.4734 90.2881 97.0385 89.3088 98.4961 87.5888C99.9538 85.8687 98.5219 81.6125 98.5219 81.6125C98.6706 81.4794 98.8464 81.3781 99.0379 81.3154Z" fill="#F10900"/>
<path d="M115.235 76.1303C114.871 76.0158 114.516 75.8759 114.173 75.7118C113.332 75.3525 112.471 75.0395 111.593 74.7743C110.708 74.5151 109.808 74.3055 108.897 74.1466C108.514 74.1003 108.135 74.029 107.762 73.9331C108.149 73.9037 108.538 73.9234 108.919 73.9917C109.847 74.1073 110.763 74.2991 111.658 74.5651C112.546 74.8288 113.409 75.1662 114.238 75.5737C114.592 75.7198 114.927 75.9067 115.235 76.1303Z" fill="#263238"/>
<path d="M132.147 88.639C132.102 88.8953 131.98 89.133 131.797 89.3219C131.614 89.5109 131.377 89.6427 131.116 89.7006C130.856 89.7586 130.584 89.7401 130.334 89.6474C130.085 89.5548 129.869 89.3923 129.715 89.1803C129.56 88.9684 129.473 88.7165 129.466 88.4567C129.458 88.1969 129.53 87.9407 129.672 87.7206C129.814 87.5005 130.02 87.3263 130.264 87.2201C130.508 87.1139 130.778 87.0805 131.042 87.124C131.217 87.1524 131.384 87.2142 131.534 87.3058C131.685 87.3974 131.815 87.5171 131.918 87.6578C132.021 87.7986 132.094 87.9578 132.133 88.1262C132.172 88.2946 132.177 88.4689 132.147 88.639Z" fill="white"/>
<path d="M131.76 88.5764C131.73 88.7495 131.648 88.9101 131.525 89.038C131.401 89.1658 131.241 89.2552 131.066 89.2947C130.89 89.3342 130.706 89.3221 130.538 89.2599C130.369 89.1977 130.223 89.0882 130.118 88.9453C130.014 88.8024 129.955 88.6325 129.949 88.4571C129.944 88.2817 129.992 88.1086 130.088 87.9598C130.183 87.811 130.322 87.6931 130.487 87.6211C130.651 87.5491 130.834 87.5262 131.011 87.5552C131.25 87.5942 131.462 87.7236 131.603 87.9151C131.743 88.1065 131.799 88.3444 131.76 88.5764Z" fill="#263238"/>
<path d="M133.063 92.222C132.224 91.9615 131.409 91.631 130.629 91.2343C129.818 90.9064 129.035 90.5145 128.29 90.0625C129.129 90.3182 129.943 90.6445 130.724 91.0376C131.536 91.3687 132.318 91.7649 133.063 92.222Z" fill="#263238"/>
<path d="M128.01 90.8865C127.984 90.8865 127.886 90.8363 127.752 90.6856C127.671 90.5934 127.608 90.4869 127.567 90.3717C127.51 90.2205 127.51 90.0542 127.567 89.903C127.631 89.7551 127.743 89.6316 127.886 89.5515C128 89.5001 128.125 89.4716 128.251 89.4678C128.453 89.4678 128.578 89.4929 128.578 89.5222C128.578 89.5515 128.457 89.5766 128.273 89.6226C128.172 89.6451 128.075 89.6803 127.984 89.7272C127.892 89.7928 127.82 89.8829 127.778 89.9867C127.743 90.0881 127.733 90.196 127.748 90.302C127.763 90.408 127.802 90.5092 127.864 90.5977C127.972 90.761 128.036 90.8656 128.01 90.8865Z" fill="#263238"/>
<path d="M130.853 82.1315C130.753 82.0696 130.658 82.0011 130.569 81.9265C130.384 81.7925 130.139 81.5791 129.769 81.3364C128.772 80.6286 127.715 80.0055 126.609 79.474C124.971 78.6841 123.263 78.0425 121.505 77.5573C119.351 76.9626 117.159 76.5082 114.943 76.1971C112.729 75.862 110.496 75.6608 108.257 75.5945C106.429 75.5476 104.601 75.6203 102.783 75.8121C101.557 75.9476 100.339 76.1432 99.1327 76.398L98.1566 76.624C98.0422 76.6539 97.9259 76.6763 97.8083 76.691C97.9166 76.645 98.0288 76.6086 98.1437 76.5822L99.1155 76.3143C100.318 76.026 101.537 75.808 102.766 75.6614C104.589 75.4442 106.425 75.3547 108.261 75.3936C110.511 75.4497 112.754 75.6454 114.978 75.9795C117.204 76.293 119.405 76.7559 121.565 77.3648C123.33 77.8647 125.043 78.5247 126.682 79.3359C127.787 79.8837 128.837 80.5296 129.821 81.2652C130.173 81.5205 130.423 81.7465 130.595 81.893C130.689 81.9638 130.775 82.0437 130.853 82.1315Z" fill="#263238"/>
<path d="M113.864 90.899C113.864 90.899 113.864 90.8404 113.894 90.7316C113.934 90.5739 113.994 90.4219 114.075 90.2796C114.392 89.7624 114.844 89.3363 115.386 89.045C115.713 88.8441 116.087 88.6516 116.474 88.434C116.861 88.2164 117.265 87.9611 117.682 87.6849C118.6 87.1195 119.402 86.3929 120.047 85.5421C120.607 84.6386 120.885 83.596 120.847 82.5415C120.868 81.5622 120.821 80.6666 120.877 79.9174C120.904 79.3217 121.033 78.7346 121.26 78.1806C121.321 78.0348 121.396 77.8947 121.483 77.7621C121.508 77.7121 121.54 77.6656 121.578 77.624C121.245 78.3554 121.061 79.1428 121.036 79.9425C120.997 80.6833 121.062 81.5663 121.036 82.5582C121.085 83.6544 120.801 84.7402 120.219 85.6802C119.559 86.5573 118.729 87.3008 117.777 87.869C117.347 88.1452 116.947 88.3922 116.547 88.6098C116.147 88.8274 115.777 89.0074 115.451 89.1957C114.919 89.4612 114.466 89.8544 114.135 90.3382C113.946 90.673 113.89 90.9074 113.864 90.899Z" fill="#263238"/>
<path d="M128.771 80.6377C128.598 80.755 128.417 80.8612 128.23 80.9558C127.735 81.2334 127.258 81.5409 126.802 81.8765C125.303 83.0027 124.071 84.4302 123.19 86.0615C122.333 87.6986 121.837 89.4918 121.733 91.3263C121.677 92.0294 121.668 92.6028 121.664 93.0003C121.674 93.2057 121.666 93.4116 121.638 93.6155C121.598 93.4127 121.576 93.2068 121.573 93.0003C121.552 92.6028 121.539 92.0294 121.573 91.3263C121.633 89.4591 122.117 87.6279 122.992 85.9653C123.887 84.3131 125.158 82.8817 126.707 81.7802C127.176 81.4514 127.671 81.1589 128.187 80.9055C128.371 80.7959 128.567 80.7061 128.771 80.6377Z" fill="#263238"/>
<path d="M132.19 83.5127C132.19 83.5545 131.407 83.7261 130.19 84.1697C129.481 84.4268 128.824 84.8052 128.251 85.2872C127.56 85.8864 126.993 86.6096 126.583 87.4173C125.858 88.9098 125.455 90.5304 125.396 92.1799C125.353 92.7826 125.314 93.2848 125.284 93.6824C125.279 93.8682 125.255 94.0531 125.215 94.2348C125.195 94.0498 125.195 93.8632 125.215 93.6782C125.215 93.3224 125.215 92.8077 125.258 92.1716C125.285 91.4221 125.365 90.6753 125.499 89.9367C125.666 89.0255 125.969 88.1429 126.398 87.3169C126.819 86.4867 127.404 85.7446 128.118 85.1323C128.715 84.6442 129.4 84.2682 130.139 84.0233C130.628 83.855 131.128 83.7152 131.635 83.6048C131.815 83.5521 132.002 83.5212 132.19 83.5127Z" fill="#263238"/>
<path d="M116.151 91.8533C116.076 91.8456 116.003 91.8287 115.932 91.8031C115.79 91.7571 115.579 91.7027 115.317 91.6064C114.569 91.3553 113.837 91.0618 113.124 90.7275C112.062 90.2352 111.06 89.6288 110.136 88.9196C109.004 88.0406 108.03 86.9841 107.255 85.7934C106.442 84.5379 105.737 83.2823 104.757 82.4453C103.873 81.7165 102.78 81.2708 101.627 81.1689C100.854 81.0493 100.064 81.0835 99.3046 81.2693C99.0315 81.3534 98.77 81.47 98.5264 81.6167C98.5786 81.5625 98.6363 81.5135 98.6984 81.4702C98.8785 81.3516 99.0736 81.2559 99.2788 81.1856C100.046 80.9654 100.852 80.9069 101.644 81.0141C102.193 81.0697 102.734 81.1863 103.256 81.3614C103.861 81.5636 104.419 81.8825 104.894 82.2989C105.918 83.1652 106.636 84.4374 107.444 85.6804C108.207 86.8499 109.16 87.8915 110.265 88.7648C111.174 89.4727 112.157 90.0857 113.197 90.5936C114.083 91.0121 114.831 91.3344 115.347 91.5311C115.622 91.6225 115.89 91.7301 116.151 91.8533Z" fill="#263238"/>
<path d="M95.2713 79.3818C94.5809 79.6767 93.9274 80.0473 93.3235 80.4867C92.7708 80.9861 92.2696 81.537 91.8271 82.1314C92.0861 81.4111 92.5572 80.7809 93.1816 80.3193C93.7627 79.8053 94.4924 79.478 95.2713 79.3818Z" fill="#263238"/>
<path d="M95.8132 89.0455C95.7396 88.9257 95.6845 88.796 95.6498 88.6605C95.526 88.3012 95.4241 87.935 95.3445 87.564C95.0799 86.3355 95.0232 85.0731 95.1768 83.8268C95.2572 83.1362 95.4367 82.46 95.71 81.818C95.9311 81.2862 96.2373 80.7918 96.6172 80.3532C96.8678 80.062 97.157 79.8045 97.4772 79.5873C97.5905 79.5007 97.7186 79.4341 97.8556 79.3906C97.4449 79.7079 97.0676 80.064 96.729 80.4536C95.9721 81.44 95.508 82.6097 95.3875 83.8352C95.2411 85.0613 95.2759 86.3015 95.4907 87.518C95.6627 88.468 95.8519 89.033 95.8132 89.0455Z" fill="#263238"/>
<path d="M93.1345 78.7836C93.1345 78.8213 92.5841 78.9134 91.7456 79.244C90.6491 79.6674 89.6591 80.3157 88.843 81.1447C88.0268 81.9738 87.4036 82.9641 87.0158 84.0484C86.7148 84.8854 86.646 85.4253 86.6073 85.4211C86.5856 85.2923 86.5856 85.1608 86.6073 85.0319C86.6563 84.6815 86.7354 84.3357 86.8438 83.9982C87.2031 82.8702 87.8285 81.8396 88.6698 80.9887C89.5112 80.1378 90.5454 79.4902 91.6897 79.0975C92.0312 78.977 92.382 78.8832 92.7389 78.8171C92.8682 78.7862 93.0016 78.7749 93.1345 78.7836Z" fill="#263238"/>
<path d="M107.362 86.1157C106.019 86.1991 104.692 85.7967 103.635 84.9857C103.669 84.9271 104.426 85.3707 105.458 85.6804C106.49 85.9901 107.367 86.0487 107.362 86.1157Z" fill="#263238"/>
<path d="M117.321 76.4521C117.321 76.4898 116.573 76.8707 115.502 77.7077C114.119 78.8121 112.972 80.1682 112.122 81.7002C111.282 83.2392 110.702 84.8995 110.402 86.6176C110.282 87.2747 110.205 87.8104 110.162 88.1829C110.147 88.3776 110.115 88.5708 110.067 88.7604C110.046 88.5656 110.046 88.3693 110.067 88.1745C110.088 87.802 110.14 87.258 110.243 86.5925C110.503 84.8488 111.071 83.1622 111.924 81.6081C112.412 80.7578 112.989 79.9584 113.644 79.2227C114.178 78.6239 114.773 78.0798 115.42 77.5989C115.855 77.2733 116.315 76.9809 116.796 76.7242C116.96 76.6148 117.136 76.5236 117.321 76.4521Z" fill="#263238"/>
<path d="M107.762 75.3936C107.469 75.6233 107.19 75.8707 106.928 76.1344C106.337 76.8058 106.019 77.6649 106.034 78.5492C106.039 78.6914 106.014 78.8333 105.959 78.9653C105.904 79.0973 105.821 79.2165 105.716 79.315C105.514 79.4568 105.304 79.5881 105.088 79.7084C104.75 79.9278 104.45 80.1975 104.198 80.5078C103.99 80.8086 103.799 81.1201 103.626 81.441C103.628 81.3393 103.653 81.2393 103.699 81.1481C103.796 80.8876 103.929 80.6412 104.095 80.4157C104.34 80.0758 104.644 79.7799 104.993 79.541C105.187 79.4029 105.423 79.3025 105.591 79.156C105.673 79.075 105.737 78.9778 105.778 78.8711C105.818 78.7643 105.835 78.6503 105.827 78.5366C105.821 78.0287 105.925 77.5252 106.133 77.0593C106.302 76.6783 106.539 76.3297 106.834 76.0298C107.03 75.8283 107.254 75.655 107.5 75.515C107.651 75.4146 107.758 75.3811 107.762 75.3936Z" fill="#263238"/>
<path d="M99.0381 81.3153C98.6641 80.611 98.3948 79.8586 98.2383 79.0805C98.0141 78.3225 97.8701 77.5443 97.8083 76.7578C98.0899 77.4966 98.3085 78.2566 98.4619 79.0303C98.7715 80.29 99.094 81.2944 99.0381 81.3153Z" fill="#263238"/>
<g opacity="0.3">
<path d="M97.705 79.579C97.1226 80.6922 96.7153 81.8843 96.4967 83.1153C96.2817 84.827 96.802 86.5764 96.5225 88.2797C96.4881 88.4764 96.4193 88.6982 96.2301 88.7693C96.1507 88.7856 96.0682 88.7797 95.9922 88.7523C95.9161 88.7249 95.8495 88.6771 95.8001 88.6145C95.7031 88.4795 95.6385 88.325 95.611 88.1625C95.1498 86.6103 95.0037 84.9855 95.181 83.379C95.4304 81.7845 96.2731 80.2193 97.6964 79.3906" fill="black"/>
</g>
<g opacity="0.3">
<path d="M86.6631 85.1615C87.8673 82.7611 89.6912 80.7062 91.9562 79.1978C89.4709 79.8925 87.0028 82.6713 86.6631 85.1615Z" fill="black"/>
</g>
<path d="M123.87 127.585C125.525 129.64 127.193 131.716 129.279 133.356C129.958 133.892 130.792 134.403 131.644 134.219C132.273 134.018 132.818 133.623 133.196 133.093C133.75 132.524 134.188 131.858 134.486 131.13C134.628 130.764 134.676 130.369 134.626 129.981C134.577 129.592 134.431 129.221 134.202 128.899C133.738 128.423 133.14 128.089 132.482 127.941C131.229 127.547 129.94 127.267 128.634 127.104C127.161 126.863 125.65 126.974 124.231 127.426" fill="#F10900"/>
<path d="M122.055 128.062C125.925 129.088 135.862 128.954 141.258 127.887C144.905 127.231 148.615 126.962 152.322 127.083C152.322 127.083 158.814 130.377 162.104 130.201C165.393 130.025 162.744 126.995 162.104 123.794C161.463 120.592 162.929 119.077 160.001 117.119C157.073 115.16 151.135 120.412 151.135 120.412L147.11 119.964C142.539 117.918 129.188 112.222 120.408 112.666C111.628 113.109 112.656 120.412 112.656 120.412C112.656 120.412 112.363 125.484 122.055 128.062Z" fill="#F10900"/>
<path d="M119.08 117.675C119.08 117.934 119.001 118.188 118.853 118.403C118.704 118.619 118.494 118.787 118.248 118.886C118.002 118.985 117.731 119.01 117.47 118.96C117.208 118.909 116.969 118.784 116.781 118.6C116.593 118.416 116.465 118.183 116.413 117.928C116.362 117.674 116.389 117.41 116.492 117.171C116.594 116.932 116.767 116.727 116.989 116.584C117.211 116.441 117.472 116.364 117.738 116.365C117.915 116.365 118.089 116.399 118.252 116.465C118.416 116.531 118.564 116.627 118.688 116.749C118.813 116.871 118.912 117.015 118.979 117.174C119.046 117.333 119.08 117.503 119.08 117.675Z" fill="white"/>
<path d="M117.738 118.487C118.199 118.487 118.572 118.124 118.572 117.675C118.572 117.227 118.199 116.863 117.738 116.863C117.277 116.863 116.904 117.227 116.904 117.675C116.904 118.124 117.277 118.487 117.738 118.487Z" fill="#263238"/>
<path d="M119.208 121.366C118.082 121.251 116.964 121.063 115.863 120.805C114.747 120.619 113.646 120.36 112.565 120.031C113.692 120.147 114.809 120.334 115.91 120.592C117.026 120.78 118.128 121.038 119.208 121.366Z" fill="#263238"/>
<path d="M123.543 112.687C125.796 111.649 128.075 110.594 130.508 110.071C131.506 109.849 132.658 109.749 133.458 110.364C134.258 110.979 134.434 112.092 134.537 113.089C134.606 113.72 134.645 114.432 134.219 114.909L128.767 115.235L123.543 112.687Z" fill="#F10900"/>
<path d="M135.445 115.457C138.394 114.592 141.464 114.185 144.543 114.252C145.106 114.212 145.667 114.35 146.143 114.645C146.93 115.26 146.766 116.503 146.207 117.319C145.648 118.135 144.788 118.725 144.238 119.546L137.913 117.696C136.748 117.357 135.419 116.859 135.058 115.737" fill="#F10900"/>
<path d="M135.324 128.523C137.091 129.406 138.859 130.293 140.703 131.034C141.643 131.442 142.645 131.698 143.67 131.791C144.706 131.883 145.738 131.575 146.542 130.933C146.935 130.608 147.217 130.174 147.351 129.689C147.484 129.204 147.463 128.691 147.291 128.217C147.1 127.842 146.823 127.514 146.482 127.26C146.14 127.005 145.743 126.83 145.321 126.748C144.468 126.599 143.595 126.599 142.741 126.748C140.175 127.099 137.629 127.578 135.114 128.184" fill="#F10900"/>
<path d="M119.131 127.1C119.131 127.1 121.887 122.915 121.186 118.981C120.485 115.047 118.821 112.837 118.821 112.837C120.594 112.507 122.412 112.476 124.196 112.745C124.196 112.745 125.456 114.837 124.626 120.031C123.796 125.225 122.046 128.062 122.046 128.062C121.03 127.888 120.046 127.564 119.131 127.1Z" fill="white"/>
<path d="M130.969 114.097C130.913 114.097 131.558 114.653 130.646 116.482C129.735 118.311 127.606 119.83 127.636 122.831C127.666 125.832 131.3 128.757 131.3 128.757L137.857 128.385C137.857 128.385 138.769 125.011 138.717 122.626C138.665 120.24 137.771 115.93 137.771 115.93C137.771 115.729 131.627 114.005 130.969 114.097Z" fill="white"/>
<path d="M147.11 119.964C147.285 120.281 147.377 120.635 147.377 120.994C147.377 121.353 147.285 121.707 147.11 122.023C146.525 123.212 145.481 124.241 146.409 125.698L147.338 127.15L152.322 127.083L151.135 120.412L147.11 119.964Z" fill="white"/>
<path d="M152.322 127.083C152.22 127.095 152.118 127.095 152.016 127.083H151.156C150.4 127.083 149.303 127.104 147.949 127.167C146.594 127.23 144.99 127.351 143.219 127.585C141.447 127.82 139.513 128.192 137.457 128.464C136.43 128.602 135.415 128.678 134.447 128.724C133.48 128.77 132.53 128.807 131.631 128.824C129.838 128.866 128.221 128.824 126.862 128.757C125.504 128.69 124.416 128.552 123.668 128.443C123.289 128.393 123.001 128.343 122.808 128.305C122.706 128.296 122.606 128.273 122.511 128.238C122.613 128.241 122.715 128.249 122.816 128.263L123.676 128.36C124.429 128.443 125.521 128.544 126.871 128.602C128.221 128.661 129.838 128.678 131.627 128.623C132.521 128.598 133.457 128.56 134.434 128.51C135.406 128.464 136.408 128.385 137.444 128.247C139.487 127.979 141.426 127.598 143.206 127.384C144.986 127.171 146.603 127.058 147.962 127.012C149.32 126.966 150.417 126.978 151.174 127.012L152.034 127.041C152.13 127.05 152.226 127.064 152.322 127.083Z" fill="#263238"/>
<path d="M147.11 119.964C147.021 119.948 146.935 119.921 146.852 119.885L146.13 119.613C145.506 119.374 144.608 119.01 143.511 118.541C141.305 117.625 138.321 116.194 134.843 115.11C133.204 114.602 131.539 114.176 129.855 113.833L128.72 113.599L127.649 113.406C126.957 113.277 126.308 113.172 125.714 113.08C124.532 112.887 123.564 112.758 122.911 112.661L122.145 112.544C122.055 112.537 121.967 112.517 121.883 112.486C121.972 112.48 122.061 112.48 122.15 112.486L122.919 112.565C123.586 112.636 124.553 112.741 125.74 112.917C126.333 112.996 126.983 113.097 127.679 113.218L128.758 113.398L129.898 113.624C131.587 113.953 133.257 114.373 134.899 114.879C138.403 115.968 141.378 117.424 143.567 118.378C144.655 118.859 145.541 119.249 146.147 119.508L146.852 119.818C146.942 119.86 147.028 119.909 147.11 119.964Z" fill="#263238"/>
<path d="M160.04 120.04C159.67 120.13 159.295 120.197 158.917 120.241C158.023 120.406 157.148 120.655 156.303 120.986C155.461 121.326 154.656 121.746 153.9 122.241C153.596 122.464 153.28 122.671 152.954 122.861C153.203 122.574 153.492 122.323 153.814 122.116C155.305 121.037 157.054 120.347 158.896 120.111C159.272 120.035 159.657 120.011 160.04 120.04Z" fill="#263238"/>
<path d="M160.698 126.61C160.295 126.598 159.895 126.54 159.506 126.439C157.608 126.035 155.787 125.341 154.11 124.384C153.753 124.204 153.419 123.982 153.117 123.723C153.486 123.874 153.844 124.05 154.188 124.25C155.039 124.683 155.913 125.071 156.806 125.413C157.702 125.753 158.617 126.045 159.545 126.288C159.937 126.368 160.322 126.475 160.698 126.61Z" fill="#263238"/>
<path d="M152.244 126.665C152.139 126.367 152.07 126.058 152.038 125.744L151.655 123.505C151.513 122.668 151.384 121.923 151.268 121.266C151.195 120.959 151.158 120.644 151.156 120.329C151.284 120.619 151.375 120.924 151.427 121.237C151.56 121.802 151.724 122.593 151.857 123.467C151.99 124.342 152.115 125.141 152.18 125.723C152.24 126.033 152.262 126.35 152.244 126.665Z" fill="#263238"/>
<path d="M147.364 127.225C147.364 127.225 147.273 127.154 147.14 126.999C146.953 126.78 146.777 126.551 146.615 126.313C146.371 125.95 146.185 125.552 146.065 125.133C145.906 124.615 145.925 124.061 146.121 123.555C146.343 123.084 146.601 122.63 146.891 122.195C147.103 121.839 147.248 121.449 147.321 121.044C147.371 120.775 147.352 120.497 147.265 120.236C147.196 120.061 147.11 119.977 147.127 119.964C147.144 119.952 147.239 120.019 147.346 120.203C147.469 120.465 147.513 120.755 147.475 121.04C147.432 121.47 147.3 121.887 147.088 122.266C146.816 122.701 146.568 123.149 146.345 123.61C146.17 124.076 146.147 124.583 146.28 125.062C146.389 125.459 146.554 125.839 146.77 126.192C146.987 126.525 147.185 126.871 147.364 127.225Z" fill="#263238"/>
<path d="M137.745 115.926C137.817 116.073 137.872 116.227 137.909 116.386C138.003 116.687 138.123 117.131 138.248 117.679C138.577 119.115 138.763 120.578 138.803 122.049C138.845 123.519 138.7 124.99 138.373 126.426C138.274 126.862 138.151 127.292 138.003 127.715C137.962 127.874 137.9 128.028 137.818 128.171C137.78 128.171 137.999 127.493 138.218 126.397C138.498 124.965 138.624 123.509 138.592 122.053C138.548 120.596 138.386 119.145 138.106 117.713C137.999 117.16 137.904 116.717 137.835 116.407C137.784 116.251 137.754 116.089 137.745 115.926Z" fill="#263238"/>
<path d="M130.921 113.934C130.952 113.983 130.976 114.037 130.99 114.093C131.036 114.249 131.068 114.409 131.085 114.57C131.121 115.171 131.012 115.771 130.767 116.324C130.388 117.124 129.919 117.88 129.369 118.579C129.063 118.995 128.79 119.433 128.552 119.889C128.309 120.381 128.14 120.904 128.049 121.442C127.863 122.486 127.91 123.556 128.187 124.581C128.443 125.41 128.875 126.177 129.455 126.832C129.937 127.41 130.354 127.858 130.616 128.188C130.765 128.351 130.895 128.529 131.003 128.72C130.841 128.572 130.69 128.412 130.552 128.243C130.268 127.933 129.834 127.502 129.33 126.929C128.718 126.267 128.259 125.485 127.985 124.635C127.689 123.583 127.636 122.479 127.83 121.404C127.922 120.846 128.098 120.305 128.354 119.797C128.606 119.333 128.893 118.888 129.214 118.466C129.766 117.783 130.243 117.045 130.638 116.265C130.886 115.74 131.015 115.169 131.016 114.591C130.977 114.164 130.9 113.942 130.921 113.934Z" fill="#263238"/>
<path d="M126.049 121.392L130.964 119.538C131.381 119.334 131.85 119.253 132.314 119.303C133.23 119.5 133.57 120.622 133.462 121.53C133.355 122.438 132.981 123.338 133.17 124.233C133.295 124.811 133.656 125.372 133.544 125.953C133.452 126.273 133.257 126.556 132.988 126.761C132.718 126.966 132.389 127.082 132.048 127.092C131.362 127.096 130.684 126.954 130.061 126.673L125.125 124.92" fill="#F10900"/>
<path d="M125.125 124.919C125.205 124.928 125.283 124.948 125.357 124.978L126.006 125.187L128.376 125.999L130.01 126.568C130.608 126.818 131.247 126.96 131.897 126.987C132.24 126.983 132.574 126.888 132.865 126.711C133.013 126.624 133.141 126.509 133.242 126.372C133.342 126.235 133.413 126.08 133.449 125.915C133.57 125.229 132.976 124.534 133.019 123.693C133.062 122.852 133.312 122.132 133.376 121.412C133.426 121.076 133.391 120.732 133.276 120.411C133.161 120.09 132.968 119.8 132.714 119.567C132.585 119.478 132.439 119.416 132.285 119.383C132.13 119.35 131.971 119.347 131.816 119.374C131.505 119.433 131.203 119.524 130.913 119.646L129.292 120.241L126.935 121.078L126.29 121.299C126.217 121.329 126.141 121.35 126.062 121.362C126.127 121.318 126.198 121.283 126.273 121.258L126.905 120.998L129.231 120.082L130.844 119.458C131.146 119.329 131.462 119.233 131.785 119.169C132.151 119.103 132.528 119.182 132.835 119.387C133.138 119.617 133.36 119.935 133.467 120.295C133.583 120.656 133.627 121.035 133.596 121.412C133.527 122.174 133.247 122.911 133.243 123.676C133.252 124.054 133.332 124.428 133.48 124.777C133.642 125.142 133.708 125.541 133.669 125.936C133.627 126.129 133.544 126.312 133.426 126.472C133.307 126.632 133.156 126.766 132.981 126.866C132.66 127.065 132.287 127.171 131.906 127.171C131.23 127.135 130.567 126.979 129.949 126.711L128.324 126.116L125.981 125.238L125.344 124.991C125.269 124.973 125.196 124.949 125.125 124.919Z" fill="#263238"/>
<path d="M131.278 123.074C129.464 123.382 127.615 123.448 125.783 123.271C126.696 123.179 127.613 123.134 128.531 123.137C129.445 123.069 130.362 123.048 131.278 123.074Z" fill="#263238"/>
<path d="M124.196 112.745C124.196 112.745 124.235 112.787 124.282 112.883C124.358 113.018 124.424 113.158 124.48 113.302C124.7 113.841 124.855 114.402 124.944 114.976C125.215 116.415 125.125 118.449 124.725 120.626C124.364 122.483 123.804 124.298 123.052 126.041C122.773 126.711 122.532 127.251 122.364 127.619C122.287 127.814 122.19 128.002 122.076 128.18C122.128 127.976 122.197 127.777 122.283 127.585L122.902 125.987C123.606 124.239 124.143 122.432 124.506 120.588C124.893 118.751 124.989 116.866 124.79 115.001C124.666 114.232 124.467 113.477 124.196 112.745Z" fill="#263238"/>
<path d="M118.821 112.837C118.936 113 119.035 113.172 119.118 113.352L119.888 114.779C120.271 115.487 120.588 116.226 120.834 116.989C121.13 117.929 121.321 118.897 121.401 119.877C121.49 120.861 121.401 121.852 121.139 122.806C120.899 123.573 120.583 124.316 120.197 125.024C119.875 125.631 119.587 126.104 119.38 126.426C119.282 126.599 119.165 126.762 119.032 126.912C119.106 126.727 119.196 126.549 119.303 126.38C119.488 126.045 119.754 125.564 120.055 124.953C120.416 124.246 120.712 123.509 120.941 122.752C121.185 121.817 121.264 120.85 121.178 119.889C121.098 118.925 120.917 117.971 120.636 117.043C120.401 116.287 120.103 115.551 119.746 114.842C119.445 114.231 119.195 113.737 119.041 113.386C118.948 113.211 118.874 113.027 118.821 112.837Z" fill="#263238"/>
<path d="M119.471 120.308C119.471 120.308 119.703 120.412 119.97 120.726C120.136 120.917 120.227 121.158 120.228 121.408C120.214 121.564 120.161 121.715 120.074 121.847C119.987 121.979 119.869 122.088 119.729 122.166C119.455 122.311 119.138 122.363 118.83 122.312C118.59 122.272 118.358 122.194 118.142 122.082C117.785 121.89 117.596 121.739 117.609 121.714C117.819 121.763 118.021 121.839 118.211 121.94C118.416 122.027 118.634 122.085 118.856 122.111C119.116 122.146 119.381 122.099 119.613 121.977C119.722 121.918 119.816 121.834 119.887 121.733C119.958 121.632 120.004 121.517 120.021 121.396C120.028 121.188 119.965 120.983 119.841 120.814C119.626 120.504 119.445 120.333 119.471 120.308Z" fill="#263238"/>
<path d="M145.807 115.834C145.807 115.901 144.332 115.888 142.531 116.097C140.729 116.307 139.293 116.646 139.276 116.583C139.57 116.447 139.88 116.348 140.2 116.29C140.958 116.101 141.728 115.961 142.505 115.871C143.28 115.784 144.06 115.744 144.84 115.75C145.165 115.737 145.49 115.766 145.807 115.834Z" fill="#263238"/>
</svg>
