<svg width="35" height="35" viewBox="0 0 35 35" fill="none" xmlns="http://www.w3.org/2000/svg">
<path opacity="0.4" d="M14.685 4.11246L4.57878 12.2062C3.44128 13.1104 2.71211 15.0208 2.96003 16.4499L4.89962 28.0583C5.24962 30.1291 7.23294 31.8062 9.33294 31.8062H25.6663C27.7517 31.8062 29.7496 30.1145 30.0996 28.0583L32.0392 16.4499C32.2725 15.0208 31.5434 13.1104 30.4205 12.2062L20.3142 4.12701C18.7538 2.87284 16.2309 2.87287 14.685 4.11246Z" fill="#0CAFF5"/>
<path d="M17.4998 22.6042C19.5134 22.6042 21.1457 20.9719 21.1457 18.9583C21.1457 16.9448 19.5134 15.3125 17.4998 15.3125C15.4863 15.3125 13.854 16.9448 13.854 18.9583C13.854 20.9719 15.4863 22.6042 17.4998 22.6042Z" fill="#0CAFF5"/>
</svg>
