<svg width="37" height="37" viewBox="0 0 37 37" fill="none" xmlns="http://www.w3.org/2000/svg">
<path d="M15.126 2.13465L3.00029 12.0321C1.6355 13.1378 0.760627 15.4739 1.05808 17.2216L3.38523 31.4169C3.80517 33.9492 6.18481 36 8.70443 36H28.3015C30.8036 36 33.2007 33.9313 33.6207 31.4169L35.9478 17.2216C36.2278 15.4739 35.3529 13.1378 34.0056 12.0321L21.8799 2.15248C20.0077 0.618824 16.9807 0.618824 15.126 2.13465Z" stroke="#AEAEAE" stroke-width="2" stroke-linecap="round" stroke-linejoin="round"/>
<path d="M18.5029 24.7472C19.663 24.7472 20.7757 24.2775 21.596 23.4414C22.4164 22.6053 22.8772 21.4713 22.8772 20.2889C22.8772 19.1065 22.4164 17.9725 21.596 17.1364C20.7757 16.3003 19.663 15.8306 18.5029 15.8306C17.3427 15.8306 16.2301 16.3003 15.4098 17.1364C14.5894 17.9725 14.1285 19.1065 14.1285 20.2889C14.1285 21.4713 14.5894 22.6053 15.4098 23.4414C16.2301 24.2775 17.3427 24.7472 18.5029 24.7472Z" stroke="#AEAEAE" stroke-width="2" stroke-linecap="round" stroke-linejoin="round"/>
</svg>
