<svg width="35" height="35" viewBox="0 0 35 35" fill="none" xmlns="http://www.w3.org/2000/svg">
<path d="M11.6665 32.5498C11.2582 32.5498 10.8352 32.4478 10.4561 32.2437C9.62481 31.8062 9.11442 30.9311 9.11442 29.9978V27.927C4.71025 27.475 1.82275 24.2373 1.82275 19.5998V10.8499C1.82275 5.83326 5.1915 2.46451 10.2082 2.46451H24.7915C29.8082 2.46451 33.1769 5.83326 33.1769 10.8499V19.5998C33.1769 24.6165 29.8082 27.9853 24.7915 27.9853H19.2936L13.081 32.127C12.6581 32.4041 12.1623 32.5498 11.6665 32.5498ZM10.2082 4.63741C6.44567 4.63741 4.01025 7.07283 4.01025 10.8353V19.5854C4.01025 23.3479 6.44567 25.7833 10.2082 25.7833C10.8061 25.7833 11.3019 26.2792 11.3019 26.8771V29.9833C11.3019 30.1729 11.4186 30.2604 11.4915 30.3041C11.5644 30.3479 11.7103 30.3916 11.8707 30.2895L18.3603 25.9729C18.5353 25.8563 18.754 25.7833 18.9728 25.7833H24.8061C28.5686 25.7833 31.004 23.3479 31.004 19.5854V10.8353C31.004 7.07283 28.5686 4.63741 24.8061 4.63741H10.2082V4.63741Z" fill="#AEAEAE"/>
<path d="M17.4999 17.6604C16.902 17.6604 16.4061 17.1646 16.4061 16.5667V16.2605C16.4061 14.5688 17.6457 13.7375 18.1124 13.4167C18.652 13.0521 18.8269 12.8042 18.8269 12.425C18.8269 11.6959 18.2291 11.0979 17.4999 11.0979C16.7707 11.0979 16.1729 11.6959 16.1729 12.425C16.1729 13.023 15.677 13.5188 15.0791 13.5188C14.4812 13.5188 13.9854 13.023 13.9854 12.425C13.9854 10.4855 15.5603 8.9104 17.4999 8.9104C19.4395 8.9104 21.0144 10.4855 21.0144 12.425C21.0144 14.0875 19.7895 14.9188 19.3374 15.225C18.7687 15.6042 18.5936 15.8521 18.5936 16.2605V16.5667C18.5936 17.1792 18.0978 17.6604 17.4999 17.6604Z" fill="#AEAEAE"/>
<path d="M17.5 21.2916C16.8875 21.2916 16.4062 20.7958 16.4062 20.1979C16.4062 19.6 16.9021 19.1041 17.5 19.1041C18.0979 19.1041 18.5938 19.6 18.5938 20.1979C18.5938 20.7958 18.1125 21.2916 17.5 21.2916Z" fill="#AEAEAE"/>
</svg>
