<svg width="35" height="35" viewBox="0 0 35 35" fill="none" xmlns="http://www.w3.org/2000/svg">
<path opacity="0.4" d="M24.7917 26.877H18.9584L12.4688 31.1937C11.5063 31.8354 10.2084 31.15 10.2084 29.9833V26.877C5.83341 26.877 2.91675 23.9604 2.91675 19.5854V10.8354C2.91675 6.46037 5.83341 3.5437 10.2084 3.5437H24.7917C29.1667 3.5437 32.0834 6.46037 32.0834 10.8354V19.5854C32.0834 23.9604 29.1667 26.877 24.7917 26.877Z" fill="#0CAFF5"/>
<path d="M17.4999 17.6604C16.902 17.6604 16.4061 17.1646 16.4061 16.5667V16.2605C16.4061 14.5688 17.6457 13.7375 18.1124 13.4167C18.652 13.0521 18.8269 12.8042 18.8269 12.425C18.8269 11.6959 18.2291 11.0979 17.4999 11.0979C16.7707 11.0979 16.1729 11.6959 16.1729 12.425C16.1729 13.023 15.677 13.5188 15.0791 13.5188C14.4812 13.5188 13.9854 13.023 13.9854 12.425C13.9854 10.4855 15.5603 8.9104 17.4999 8.9104C19.4395 8.9104 21.0144 10.4855 21.0144 12.425C21.0144 14.0875 19.7895 14.9188 19.3374 15.225C18.7687 15.6042 18.5936 15.8521 18.5936 16.2605V16.5667C18.5936 17.1792 18.0978 17.6604 17.4999 17.6604Z" fill="#0CAFF5"/>
<path d="M17.5 21.2917C16.8875 21.2917 16.4062 20.7959 16.4062 20.198C16.4062 19.6001 16.9021 19.1042 17.5 19.1042C18.0979 19.1042 18.5938 19.6001 18.5938 20.198C18.5938 20.7959 18.1125 21.2917 17.5 21.2917Z" fill="#0CAFF5"/>
</svg>
