<svg width="23" height="23" viewBox="0 0 23 23" fill="none" xmlns="http://www.w3.org/2000/svg">
<path d="M11.4727 3.19092C8.46363 3.19092 6.01817 5.63637 6.01817 8.64546V11.2727C6.01817 11.8273 5.78181 12.6727 5.49999 13.1455L4.45454 14.8818C3.80908 15.9546 4.25454 17.1455 5.43635 17.5455C9.35454 18.8546 13.5818 18.8546 17.5 17.5455C18.6 17.1818 19.0818 15.8818 18.4818 14.8818L17.4364 13.1455C17.1636 12.6727 16.9273 11.8273 16.9273 11.2727V8.64546C16.9273 5.64546 14.4727 3.19092 11.4727 3.19092Z" stroke="#111111" stroke-width="1.5" stroke-miterlimit="10" stroke-linecap="round"/>
<path d="M13.1545 3.45454C12.8727 3.37272 12.5818 3.30908 12.2818 3.27272C11.4091 3.16363 10.5727 3.22726 9.79089 3.45454C10.0545 2.78181 10.7091 2.30908 11.4727 2.30908C12.2363 2.30908 12.8909 2.78181 13.1545 3.45454Z" stroke="#111111" stroke-width="1.5" stroke-miterlimit="10" stroke-linecap="round" stroke-linejoin="round"/>
<path d="M14.1999 17.8728C14.1999 19.3728 12.9726 20.6001 11.4726 20.6001C10.7272 20.6001 10.0363 20.291 9.54536 19.8001C9.05445 19.3092 8.74536 18.6183 8.74536 17.8728" stroke="#111111" stroke-width="1.5" stroke-miterlimit="10"/>
</svg>
