<svg width="163" height="122" viewBox="0 0 163 122" fill="none" xmlns="http://www.w3.org/2000/svg">
<path d="M163 106.902H0V106.984H163V106.902Z" fill="#EBEBEB"/>
<path d="M146.667 112.148H140.125V112.229H146.667V112.148Z" fill="#EBEBEB"/>
<path d="M126.977 111.007H116.539V111.088H126.977V111.007Z" fill="#EBEBEB"/>
<path d="M101.441 109.123H89.3857V109.204H101.441V109.123Z" fill="#EBEBEB"/>
<path d="M38.68 111.522H24.6001V111.603H38.68V111.522Z" fill="#EBEBEB"/>
<path d="M21.6954 111.522H19.6318V111.603H21.6954V111.522Z" fill="#EBEBEB"/>
<path d="M55.1692 109.08H42.9507V109.162H55.1692V109.08Z" fill="#EBEBEB"/>
<path d="M77.2621 92.3629H14.3147C13.8216 92.362 13.349 92.1655 13.0006 91.8165C12.6522 91.4675 12.4565 90.9946 12.4565 90.5014V2.01526C12.4608 1.52496 12.6584 1.05616 13.0063 0.710676C13.3542 0.365195 13.8244 0.170937 14.3147 0.170097H77.2621C77.7558 0.170097 78.2292 0.366215 78.5783 0.715306C78.9274 1.0644 79.1236 1.53787 79.1236 2.03156V90.5014C79.1236 90.9951 78.9274 91.4686 78.5783 91.8177C78.2292 92.1668 77.7558 92.3629 77.2621 92.3629ZM14.3147 0.235298C13.8432 0.236161 13.3913 0.424073 13.0582 0.757786C12.7251 1.0915 12.538 1.54375 12.538 2.01526V90.5014C12.538 90.9729 12.7251 91.4252 13.0582 91.7589C13.3913 92.0926 13.8432 92.2805 14.3147 92.2814H77.2621C77.7339 92.2805 78.1861 92.0927 78.5198 91.7591C78.8534 91.4255 79.0412 90.9732 79.042 90.5014V2.01526C79.0412 1.54345 78.8534 1.09121 78.5198 0.757587C78.1861 0.423967 77.7339 0.236159 77.2621 0.235298H14.3147Z" fill="#EBEBEB"/>
<path d="M147.779 92.3629H84.8283C84.3348 92.362 83.8619 92.1656 83.513 91.8167C83.1641 91.4678 82.9677 90.9949 82.9668 90.5014V2.01526C82.9719 1.52466 83.1702 1.05586 83.5187 0.710473C83.8671 0.365081 84.3376 0.170928 84.8283 0.170097H147.779C148.269 0.171794 148.738 0.366431 149.085 0.711821C149.432 1.05721 149.63 1.52552 149.634 2.01526V90.5014C149.634 90.994 149.439 91.4665 149.091 91.8154C148.743 92.1643 148.271 92.3612 147.779 92.3629ZM84.8283 0.235298C84.3564 0.236159 83.9042 0.423967 83.5706 0.757587C83.237 1.09121 83.0492 1.54345 83.0483 2.01526V90.5014C83.0492 90.9732 83.237 91.4255 83.5706 91.7591C83.9042 92.0927 84.3564 92.2805 84.8283 92.2814H147.779C148.251 92.2805 148.703 92.0927 149.037 91.7591C149.37 91.4255 149.558 90.9732 149.559 90.5014V2.01526C149.558 1.54345 149.37 1.09121 149.037 0.757587C148.703 0.423967 148.251 0.236159 147.779 0.235298H84.8283Z" fill="#EBEBEB"/>
<path d="M140.255 90.0483C132.946 91.0263 132.176 101.621 124.339 92.878C118.921 86.8372 114.599 92.9008 112.46 106.896H151.296C151.264 100.294 147.104 89.142 140.255 90.0483Z" fill="#EBEBEB"/>
<path d="M88.8254 82.6057C67.3094 84.001 65.0274 99.2904 41.9466 86.6839C25.9889 77.9732 13.2586 86.7165 6.95703 106.896H121.35C121.272 97.3767 109.002 81.2952 88.8254 82.6057Z" fill="#EBEBEB"/>
<path d="M59.4556 95.825C76.199 97.8494 93.0858 95.1958 105.982 92.0629C118.879 88.9301 128.046 97.6962 133.04 106.902H16.4399C20.2802 102.293 34.0439 92.7541 59.4556 95.825Z" fill="#F0F0F0"/>
<path d="M111.883 100.598C92.5287 101.396 88.4113 101.709 73.5425 99.926C58.6736 98.1428 46.98 101.664 41.2163 106.902H145.794C141.37 104.278 128.089 99.926 111.883 100.598Z" fill="#FAFAFA"/>
<path d="M26.4541 57.3007C30.0946 57.0442 32.8378 53.8851 32.5814 50.2446C32.3249 46.6041 29.1658 43.8608 25.5253 44.1173C21.8848 44.3738 19.1415 47.5329 19.398 51.1734C19.6545 54.8139 22.8136 57.5571 26.4541 57.3007Z" fill="#F0F0F0"/>
<path d="M145.344 24.7799H111.492C111.492 24.7799 111.981 22.1002 118.244 22.2534C116.998 18.3414 120.503 14.0708 128.412 13.9045C136.32 13.7383 133.54 20.0985 133.54 20.0985C133.54 20.0985 146.827 17.8165 142.804 22.55C149.399 22.788 150.703 23.6421 145.344 24.7799Z" fill="#F0F0F0"/>
<path d="M30.1161 55.7987C29.011 50.2893 38.4226 44.2583 55.7495 44.0269C73.0764 43.7954 64.3852 52.7735 64.3852 52.7735C64.3852 52.7735 94.3283 49.533 83.5997 56.2323C97.8785 56.5583 100.372 57.745 88.1995 59.3652H14.3442C14.3442 59.3652 16.5121 55.5901 30.1161 55.7987Z" fill="#FAFAFA"/>
<path d="M59.1103 24.6918H24.0457C24.0457 24.6918 16.2217 20.1996 25.4964 19.6225C23.9023 15.7823 27.8175 9.26879 41.5063 9.11557C55.195 8.96235 48.098 17.9534 48.098 17.9534C48.098 17.9534 68.962 11.942 61.6466 21.5036C64.8316 21.5036 76.2057 24.6918 59.1103 24.6918Z" fill="#F5F5F5"/>
<path d="M129.207 67.3261H113.448C113.448 67.3261 109.931 65.3082 114.1 65.0441C113.386 63.3163 115.143 60.3921 121.295 60.3236C127.447 60.2552 124.258 64.2943 124.258 64.2943C124.258 64.2943 133.634 61.5918 130.345 65.8885C131.779 65.8982 136.888 67.3261 129.207 67.3261Z" fill="#F5F5F5"/>
<path d="M94.9442 11.0096C94.9442 11.0096 99.3875 8.16034 102.481 12.2093C99.9417 9.69254 95.1137 12.2288 95.1137 12.2288C95.1137 12.2288 89.588 9.71862 87.7461 12.2484C89.7151 8.18316 94.9442 11.0096 94.9442 11.0096Z" fill="#F0F0F0"/>
<path d="M106.077 43.339C106.077 43.339 108.754 41.6242 110.615 44.0627C109.086 42.5468 106.181 44.0627 106.181 44.0627C106.181 44.0627 102.853 42.5533 101.745 44.0627C102.931 41.6373 106.077 43.339 106.077 43.339Z" fill="#F0F0F0"/>
<path d="M57.3337 3.59961C57.3337 3.59961 58.6736 2.74223 59.6157 3.96147C58.8529 3.20515 57.3989 3.96147 57.3989 3.96147C57.3989 3.96147 55.7363 3.20515 55.1821 3.96147C55.7624 2.74875 57.3337 3.59961 57.3337 3.59961Z" fill="#F5F5F5"/>
<path d="M24.6392 32.8711C24.6392 32.8711 25.9758 32.0137 26.9212 33.233C26.1551 32.4734 24.7044 33.233 24.7044 33.233C24.7044 33.233 23.0386 32.4799 22.4844 33.233C23.0647 32.0202 24.6392 32.8711 24.6392 32.8711Z" fill="#F5F5F5"/>
<path d="M81.5001 121.625C116.409 121.625 144.708 119.972 144.708 117.934C144.708 115.896 116.409 114.244 81.5001 114.244C46.5912 114.244 18.292 115.896 18.292 117.934C18.292 119.972 46.5912 121.625 81.5001 121.625Z" fill="#F5F5F5"/>
<path d="M94.1488 51.678C93.9369 48.3463 91.632 48.6201 92.0656 49.6307C91.6581 49.2526 90.6345 48.7831 89.5587 48.5452C88.0102 48.2029 86.9768 48.6169 87.3582 49.1972C84.949 49.3439 84.46 51.5248 85.2392 51.9682C83.5896 52.6919 83.3484 55.3162 85.8912 55.9519C88.434 56.5876 87.5407 59.2314 89.8423 59.8834C92.1439 60.5354 94.7682 58.3447 94.3867 57.3667C95.3647 56.7147 96.5807 56.0334 95.6549 53.9894C97.6337 53.2265 94.9246 51.6259 94.1488 51.678Z" fill="#263238"/>
<path d="M88.4309 115.486C88.1049 115.515 87.7789 115.486 87.6452 115.356C87.6144 115.318 87.5959 115.272 87.5924 115.223C87.5889 115.175 87.6005 115.127 87.6257 115.085C87.6431 115.047 87.6683 115.012 87.6998 114.984C87.7312 114.956 87.7681 114.935 87.8082 114.922C88.2353 114.762 89.197 115.202 89.2394 115.222C89.2516 115.226 89.2623 115.234 89.2699 115.245C89.2774 115.255 89.2815 115.268 89.2815 115.281C89.2815 115.294 89.2774 115.306 89.2699 115.317C89.2623 115.327 89.2516 115.335 89.2394 115.339C88.9744 115.411 88.704 115.46 88.4309 115.486ZM87.9712 115.013C87.93 115.016 87.8894 115.025 87.8506 115.039C87.8262 115.047 87.8036 115.059 87.7844 115.076C87.7653 115.093 87.7501 115.114 87.7398 115.137C87.7007 115.219 87.7202 115.255 87.7398 115.274C87.8767 115.434 88.5385 115.378 89.021 115.274C88.6912 115.12 88.3347 115.032 87.9712 115.013Z" fill="#FF7200"/>
<path d="M89.2198 115.339C89.2115 115.343 89.2021 115.343 89.1938 115.339C88.8678 115.228 88.1864 114.717 88.2158 114.417C88.2158 114.345 88.2614 114.254 88.4309 114.221C88.4921 114.209 88.5552 114.209 88.6162 114.222C88.6773 114.235 88.7351 114.26 88.7863 114.296C89.1449 114.541 89.2785 115.242 89.285 115.274C89.286 115.285 89.2844 115.296 89.2804 115.306C89.2765 115.316 89.2702 115.325 89.2622 115.333C89.2492 115.339 89.2343 115.342 89.2198 115.339ZM88.4831 114.335H88.444C88.3331 114.355 88.3299 114.4 88.3299 114.413C88.3299 114.596 88.783 115.004 89.1253 115.167C89.0681 114.871 88.9213 114.6 88.7048 114.391C88.64 114.346 88.5612 114.326 88.4831 114.335Z" fill="#FF7200"/>
<path d="M92.3883 116.431L89.7673 116.666L88.9556 110.619L91.5766 110.381L92.3883 116.431Z" fill="#B55B52"/>
<path d="M89.4641 114.948L92.3264 114.691C92.3787 114.686 92.4312 114.699 92.475 114.728C92.5189 114.757 92.5515 114.8 92.5676 114.85L93.2946 117.132C93.3124 117.187 93.3178 117.245 93.3103 117.302C93.3029 117.359 93.2828 117.413 93.2515 117.461C93.2203 117.509 93.1787 117.55 93.1297 117.58C93.0807 117.61 93.0257 117.628 92.9686 117.634C91.9352 117.709 91.0126 117.735 89.7282 117.853C88.209 117.99 88.61 118.136 86.8333 118.322C85.7575 118.433 85.4543 117.23 85.9042 117.129C87.9645 116.679 88.1242 116.03 88.861 115.212C89.0229 115.053 89.2375 114.959 89.4641 114.948Z" fill="#263238"/>
<path d="M83.6748 67.427L83.3488 67.3944L83.0717 67.3586C82.8924 67.339 82.7196 67.3031 82.5436 67.2738C82.1948 67.2119 81.8557 67.1336 81.5199 67.0521C80.8581 66.8846 80.2052 66.6833 79.5639 66.449C78.2805 65.9813 77.0448 65.3918 75.8736 64.6886L75.4368 64.418L75.2216 64.2844L75.101 64.2094C75.0274 64.1602 74.9567 64.1068 74.8891 64.0497C74.8272 63.9975 74.7717 63.9453 74.7294 63.903L74.6087 63.7726C74.4964 63.6404 74.3961 63.4986 74.3088 63.3488C74.2338 63.2216 74.1784 63.114 74.1263 63.0065C74.0317 62.7978 73.96 62.6055 73.8948 62.4229C73.6744 61.7582 73.5076 61.0768 73.396 60.3854C73.1697 59.0935 73.052 57.785 73.0439 56.4734L74.9836 56.0985C75.4694 57.246 75.903 58.4294 76.3626 59.5411C76.4735 59.8182 76.5908 60.092 76.7114 60.3528C76.8321 60.6136 76.9429 60.8679 77.0603 61.0831C77.1222 61.1874 77.1809 61.2852 77.2298 61.3536C77.2463 61.3779 77.2661 61.3999 77.2885 61.4188C77.2885 61.4188 77.3048 61.4188 77.2689 61.3732L77.2298 61.3276C77.2082 61.3024 77.1842 61.2795 77.1581 61.2591C77.1206 61.2266 77.0814 61.1961 77.0407 61.1678C76.9625 61.1189 77.0114 61.1483 77.0211 61.1678L77.22 61.2624L77.6112 61.4514C78.6571 61.9393 79.7355 62.3544 80.8386 62.6935C81.3863 62.8663 81.9405 63.0195 82.4882 63.1499C82.7653 63.2151 83.0391 63.2738 83.3097 63.3292L83.7107 63.4074L84.0367 63.4629L83.6748 67.427Z" fill="#B65B52"/>
<path d="M86.7844 68.0725C83.9743 69.8688 79.8537 67.8639 79.8537 67.8639C79.3614 66.0872 79.0908 62.9348 79.0908 61.6992C79.0908 61.6992 83.8569 62.2828 87.1006 61.9796C90.2694 61.6829 89.0925 66.599 86.7844 68.0725Z" fill="#FF7200"/>
<path d="M74.9965 57.6536L75.7495 55.6227L72.8775 55.0098C72.8775 55.0098 72.3493 56.6235 73.4349 57.8232L74.9965 57.6536Z" fill="#B55B52"/>
<path d="M74.8561 53.4384L73.5521 53.5786C73.4009 53.5932 73.2595 53.6601 73.1523 53.7679C73.0452 53.8756 72.979 54.0174 72.9653 54.1687L72.874 55.0098L75.7461 55.6226L75.5831 54.0285C75.5754 53.9415 75.5503 53.857 75.5093 53.7798C75.4684 53.7027 75.4123 53.6346 75.3445 53.5796C75.2767 53.5246 75.1985 53.4837 75.1146 53.4595C75.0307 53.4352 74.9428 53.4281 74.8561 53.4384Z" fill="#B55B52"/>
<path d="M81.8263 65.37C81.6796 67.8606 81.8263 72.9756 83.6519 82.3676L97.6699 81.0995C97.5819 79.1109 95.9095 73.2755 96.5387 64.33C96.564 64.005 96.5233 63.6782 96.4193 63.3693C96.3152 63.0604 96.1499 62.7756 95.9332 62.5321C95.7164 62.2885 95.4528 62.0913 95.158 61.9521C94.8632 61.8129 94.5433 61.7347 94.2176 61.722C93.5265 61.6992 92.7604 61.6927 92.0106 61.722C90.0198 61.7875 88.0345 61.9671 86.0643 62.2599C85.3048 62.4001 84.568 62.5859 83.9356 62.762C83.3558 62.9222 82.8407 63.2598 82.4624 63.7275C82.0842 64.1952 81.8618 64.7695 81.8263 65.37Z" fill="#FF7200"/>
<path opacity="0.1" d="M89.9241 71.0163C89.9861 73.3212 88.6788 75.1761 87.0064 75.1598C85.334 75.1435 83.9225 73.256 83.8605 70.9511C83.7986 68.6463 85.1058 66.7881 86.7945 66.8077C88.4832 66.8272 89.8622 68.7083 89.9241 71.0163Z" fill="black"/>
<path d="M90.4128 57.2494C90.4128 59.0946 90.7127 61.2136 91.8537 62.0383C90.2809 63.3799 88.5245 64.4897 86.6377 65.3342C84.6133 63.9031 85.5489 62.7262 85.5489 62.7262C87.3191 61.7482 87.1952 60.4084 86.641 58.9642L89.2783 56.643C89.7086 56.1964 90.4128 56.5681 90.4128 57.2494Z" fill="#B55B52"/>
<path opacity="0.2" d="M90.4162 57.2494C90.4162 56.5713 89.7088 56.1996 89.2719 56.6365L86.6313 58.9576C86.9164 59.5885 87.0289 60.2837 86.9573 60.9723C87.5775 60.9929 88.1935 60.8643 88.7536 60.5974C89.4825 60.2679 90.0957 59.7274 90.514 59.0456C90.4425 58.4496 90.4098 57.8496 90.4162 57.2494Z" fill="black"/>
<path d="M93.1026 54.8826C92.1866 57.3439 91.7758 58.8305 90.0904 59.7237C87.5509 61.0668 84.731 58.9576 84.8744 56.2714C85.0048 53.8492 86.4848 50.2339 89.3015 49.9991C89.9171 49.9354 90.5389 50.0293 91.1083 50.2721C91.6776 50.5149 92.1758 50.8985 92.556 51.387C92.9362 51.8754 93.1859 52.4526 93.2815 53.0641C93.3771 53.6756 93.3156 54.3014 93.1026 54.8826Z" fill="#B55B52"/>
<path d="M92.3755 51.7041C91.0715 52.7343 91.3975 54.3773 92.1506 54.4034C90.99 55.3423 91.316 56.5518 92.2647 56.4474C93.8882 56.2714 94.9868 51.4107 92.3755 51.7041Z" fill="#263238"/>
<path d="M93.099 51.8899C91.8309 52.3887 90.8431 51.8443 90.7909 51.1499C89.8488 51.6194 85.9726 51.0815 86.8594 50.5207C87.5309 49.3243 90.8594 48.6788 93.099 51.8899Z" fill="#263238"/>
<path d="M85.6533 55.8378L88.7862 56.1638C88.7862 56.1638 88.4048 57.1418 86.9443 56.9756C85.7381 56.8387 85.6533 55.8378 85.6533 55.8378Z" fill="white"/>
<path d="M89.1153 53.7938C89.0045 53.9992 88.8057 54.1035 88.672 54.0318C88.5383 53.96 88.522 53.7351 88.6329 53.533C88.7437 53.3309 88.9393 53.2233 89.073 53.295C89.2066 53.3667 89.2262 53.5917 89.1153 53.7938Z" fill="#263238"/>
<path d="M86.7161 53.0244C86.6052 53.2298 86.4096 53.3504 86.276 53.2624C86.1423 53.1744 86.1227 52.9657 86.2336 52.7636C86.3444 52.5615 86.5433 52.4376 86.677 52.5256C86.8106 52.6136 86.8139 52.8223 86.7161 53.0244Z" fill="#263238"/>
<path d="M90.2828 53.383C90.2586 53.3747 90.2371 53.36 90.2205 53.3405C90.2038 53.321 90.1927 53.2974 90.1883 53.2722C90.169 53.104 90.1103 52.9428 90.0168 52.8018C89.9233 52.6607 89.7977 52.5437 89.6504 52.4605C89.6175 52.4449 89.592 52.4171 89.5792 52.383C89.5665 52.349 89.5674 52.3113 89.5819 52.2779C89.5889 52.2614 89.5992 52.2466 89.6122 52.2342C89.6252 52.2219 89.6406 52.2124 89.6574 52.2063C89.6742 52.2002 89.6921 52.1976 89.71 52.1987C89.7279 52.1998 89.7453 52.2046 89.7612 52.2127C89.9526 52.3133 90.1168 52.4586 90.2399 52.6362C90.3631 52.8139 90.4416 53.0186 90.4687 53.2331C90.4714 53.2507 90.4707 53.2686 90.4664 53.2859C90.4621 53.3032 90.4545 53.3194 90.4438 53.3337C90.4332 53.3479 90.4198 53.3599 90.4045 53.369C90.3892 53.378 90.3722 53.3839 90.3546 53.3863C90.3308 53.3921 90.3059 53.391 90.2828 53.383Z" fill="#263238"/>
<path d="M86.0152 51.9584C85.9877 51.9481 85.964 51.93 85.9467 51.9063C85.9263 51.8767 85.9183 51.8404 85.9244 51.805C85.9305 51.7697 85.9502 51.7381 85.9793 51.7172C86.1513 51.5868 86.3524 51.5 86.5653 51.4642C86.7782 51.4284 86.9966 51.4448 87.2018 51.5118C87.2187 51.5179 87.2342 51.5274 87.2474 51.5397C87.2605 51.5519 87.2711 51.5667 87.2784 51.5832C87.2857 51.5996 87.2896 51.6173 87.2899 51.6353C87.2902 51.6533 87.2868 51.6712 87.2801 51.6878C87.2663 51.7208 87.2402 51.7472 87.2073 51.7612C87.1744 51.7752 87.1373 51.7758 87.104 51.7628C86.9387 51.7127 86.7638 51.7026 86.5938 51.7332C86.4238 51.7638 86.2635 51.8343 86.126 51.9389C86.1098 51.9494 86.0916 51.9566 86.0726 51.96C86.0535 51.9633 86.034 51.9628 86.0152 51.9584Z" fill="#263238"/>
<path d="M87.2212 53.3471C86.7527 53.7982 86.2239 54.1822 85.6499 54.4881C85.7317 54.6335 85.8445 54.759 85.9803 54.8559C86.1161 54.9528 86.2715 55.0187 86.4356 55.0488L87.2212 53.3471Z" fill="#A02724"/>
<path d="M93.2362 57.295C93.0706 57.5071 92.8635 57.6833 92.6275 57.8127C92.3915 57.9422 92.1317 58.0223 91.8638 58.048C91.2118 58.11 91.0129 57.2298 91.3813 56.6006C91.7073 56.0334 92.3919 55.4922 93.0113 55.5932C93.6307 55.6943 93.7839 56.568 93.2362 57.295Z" fill="#B55B52"/>
<path opacity="0.2" d="M88.9556 110.622L89.412 114.022L92.033 113.784L91.5799 110.384L88.9556 110.622Z" fill="black"/>
<path d="M83.6615 82.3578C83.2842 87.1906 83.401 92.0493 84.0103 96.8583C85.06 105.149 88.1244 112.549 88.1244 112.549L92.4895 111.404C92.4895 111.404 91.4724 105.184 90.9313 96.9985C90.3412 88.0726 92.8873 81.5233 92.8873 81.5233L83.6615 82.3578Z" fill="#263238"/>
<path opacity="0.3" d="M91.3586 85.908C89.0766 86.6252 89.9438 90.4916 90.8664 93.08C90.9335 90.67 91.2094 88.2703 91.6911 85.908H91.3586Z" fill="black"/>
<path d="M106.84 109.977C106.605 110.221 106.348 110.426 106.162 110.4C106.114 110.391 106.07 110.368 106.036 110.334C106.002 110.3 105.979 110.256 105.97 110.208C105.947 110.126 105.958 110.038 105.999 109.964C106.217 109.566 107.231 109.263 107.274 109.25C107.286 109.247 107.299 109.247 107.311 109.251C107.323 109.255 107.334 109.263 107.342 109.272C107.349 109.283 107.353 109.296 107.353 109.308C107.353 109.321 107.349 109.333 107.342 109.344C107.194 109.57 107.026 109.781 106.84 109.977ZM106.188 109.924C106.16 109.954 106.136 109.987 106.116 110.022C106.103 110.044 106.093 110.069 106.09 110.095C106.086 110.121 106.087 110.147 106.094 110.172C106.12 110.257 106.159 110.273 106.185 110.276C106.393 110.306 106.856 109.827 107.147 109.426C106.795 109.528 106.468 109.697 106.182 109.924H106.188Z" fill="#FF7200"/>
<path d="M107.339 109.354H107.316C106.99 109.484 106.146 109.546 105.966 109.305C105.921 109.25 105.895 109.152 105.999 109.018C106.038 108.968 106.087 108.926 106.143 108.896C106.199 108.865 106.261 108.847 106.325 108.842C106.755 108.79 107.303 109.23 107.342 109.246C107.35 109.254 107.357 109.263 107.361 109.273C107.364 109.283 107.366 109.294 107.365 109.305C107.36 109.323 107.351 109.34 107.339 109.354ZM106.123 109.08L106.097 109.106C106.028 109.197 106.054 109.233 106.064 109.243C106.175 109.387 106.791 109.39 107.156 109.289C106.922 109.097 106.633 108.983 106.331 108.963C106.249 108.974 106.175 109.016 106.123 109.08Z" fill="#FF7200"/>
<path d="M110.433 108.024L108.676 109.986L103.958 106.113L105.716 104.151L110.433 108.024Z" fill="#B55B52"/>
<path d="M107.254 108.898L109.24 106.821C109.275 106.779 109.325 106.751 109.379 106.742C109.433 106.733 109.489 106.744 109.536 106.772L111.587 108.014C111.637 108.044 111.679 108.085 111.711 108.134C111.742 108.183 111.763 108.238 111.77 108.296C111.777 108.354 111.771 108.412 111.752 108.467C111.734 108.522 111.703 108.573 111.662 108.614C110.932 109.351 109.853 110.391 108.95 111.333C107.897 112.431 108.646 111.77 107.411 113.061C106.661 113.843 105.667 113.302 105.908 112.907C107.007 111.108 106.954 110.586 106.971 109.488C106.989 109.263 107.09 109.052 107.254 108.898Z" fill="#263238"/>
<path opacity="0.2" d="M103.961 106.113L106.612 108.291L108.369 106.329L105.719 104.151L103.961 106.113Z" fill="black"/>
<path d="M88.6362 81.908C88.6362 81.908 90.5661 89.6375 94.2304 96.4248C98.2402 103.858 104.715 108.099 104.715 108.099L107.818 104.751C107.818 104.751 102.491 99.4859 100.904 93.8722C98.4814 85.3049 97.686 81.0898 97.686 81.0898L88.6362 81.908Z" fill="#263238"/>
<path d="M103.091 107.329C103.091 107.346 105.178 108.852 105.178 108.852L108.487 104.992L107.326 103.805L103.091 107.329Z" fill="#FF7200"/>
<path d="M87.3095 111.313C87.2899 111.313 87.9615 113.536 87.9615 113.536L93.1775 112.774L92.8939 111.043L87.3095 111.313Z" fill="#FF7200"/>
<path d="M97.7513 64.718L98.0251 65.6374L98.325 66.5828C98.5272 67.2087 98.7456 67.8281 98.977 68.4279C99.2085 69.0278 99.4563 69.608 99.7236 70.1394C99.9534 70.61 100.234 71.0539 100.561 71.463L100.61 71.5184L100.63 71.5412L100.597 71.5184C100.565 71.4976 100.531 71.4791 100.496 71.463C100.436 71.4311 100.372 71.4049 100.307 71.3847C100.113 71.3278 99.9092 71.3167 99.7105 71.3521C99.5522 71.3799 99.4019 71.4422 99.2704 71.5347C99.114 71.6586 99.1498 71.6814 99.1792 71.6488C99.2418 71.5858 99.2955 71.5145 99.3389 71.4369C99.626 70.9164 99.865 70.3708 100.053 69.8069C100.496 68.5779 100.871 67.2282 101.266 65.921L103.222 66.1394C103.278 67.6098 103.195 69.0824 102.974 70.5371C102.859 71.3345 102.654 72.1163 102.364 72.868C102.266 73.112 102.146 73.3466 102.006 73.5689C101.798 73.9127 101.521 74.21 101.194 74.4426C100.9 74.6462 100.563 74.7789 100.21 74.8304C99.8564 74.8818 99.4958 74.8506 99.1563 74.7393C99.0082 74.6915 98.8652 74.6293 98.7293 74.5535C98.6158 74.4943 98.5068 74.4267 98.4033 74.3513L98.2696 74.247L98.1914 74.1818L98.0479 74.0579C97.399 73.4584 96.842 72.7663 96.3951 72.0041C95.992 71.3387 95.6337 70.6471 95.3226 69.934C95.0129 69.2397 94.7456 68.5388 94.5043 67.8346C94.387 67.4825 94.2729 67.1304 94.1783 66.7718C94.0838 66.4132 93.9827 66.0709 93.8882 65.6667L97.7513 64.718Z" fill="#B65B52"/>
<path d="M101.386 66.4491L100.894 64.3431L103.789 64.5453C103.789 64.5453 104.141 65.758 102.919 66.8273L101.386 66.4491Z" fill="#B55B52"/>
<path d="M102.227 62.436L103.313 62.8337C103.47 62.8916 103.604 62.998 103.697 63.1375C103.79 63.277 103.835 63.4423 103.828 63.6096L103.776 64.5419L100.881 64.3398L101.187 63C101.212 62.8909 101.26 62.7885 101.328 62.6994C101.396 62.6103 101.482 62.5367 101.58 62.4833C101.678 62.43 101.787 62.3982 101.899 62.39C102.01 62.3819 102.122 62.3975 102.227 62.436Z" fill="#B55B52"/>
<path d="M95.3388 61.9405C98.4912 63.0326 99.2508 67.7302 99.2508 67.7302C98.5988 68.8647 96.4928 70.097 94.7227 71.0359C94.7227 71.0359 93.6632 70.1198 92.5417 67.0619C91.4431 64.066 92.7504 61.0407 95.3388 61.9405Z" fill="#FF7200"/>
<path d="M48.7336 77.644C46.3799 63.7466 45.4736 46.3056 45.4736 46.3056L57.9757 49.8264C57.9757 49.8264 56.8771 69.3669 56.3457 78.8241C55.8078 88.6563 55.2439 111.072 55.2439 111.072H49.2976C49.2976 111.072 47.4296 89.8005 48.7336 77.644Z" fill="#263238"/>
<path opacity="0.3" d="M46.9019 63.8999C47.2279 66.8959 47.593 70.0353 48.0331 73.116C49.1871 68.4085 49.8359 59.4924 49.8359 59.4924L46.9019 63.8999Z" fill="black"/>
<path d="M49.7998 114.991L49.2913 117.765C49.2798 117.832 49.2833 117.901 49.3015 117.967C49.3197 118.033 49.3523 118.094 49.3967 118.146C49.4412 118.198 49.4966 118.24 49.559 118.268C49.6213 118.296 49.6891 118.31 49.7575 118.309C50.6377 118.309 51.0615 118.169 52.5904 118.146C54.3899 118.117 55.8928 118.342 58.002 118.309C58.2351 118.33 58.4675 118.263 58.6533 118.12C58.8391 117.978 58.9649 117.771 59.0059 117.541C59.0468 117.311 58.9999 117.073 58.8744 116.876C58.7489 116.678 58.554 116.535 58.328 116.474C56.2742 115.916 55.3777 114.864 54.416 114.247C54.2139 113.25 54.7061 110.505 54.7061 110.505L49.7901 110.831C49.8785 112.216 49.8817 113.605 49.7998 114.991Z" fill="#FF7200"/>
<path d="M27.0189 115.147L28.2088 112.999C28.7826 111.643 29.6334 109.054 29.6334 109.054L34.054 110.205C34.054 110.205 32.8347 112.418 32.5576 113.465C33.2357 114.254 34.1485 116.027 36.0524 116.458C36.9456 116.66 36.8804 118.218 35.697 118.322C33.741 118.489 31.4395 116.979 29.8029 116.627C28.4044 116.324 28.2023 116.419 27.4068 116.233C27.294 116.208 27.1891 116.156 27.1023 116.08C27.0155 116.004 26.9495 115.907 26.9106 115.798C26.8718 115.689 26.8613 115.572 26.8803 115.458C26.8992 115.345 26.9469 115.237 27.0189 115.147Z" fill="#FF7200"/>
<path d="M55.0062 111.858L49.5294 111.946C49.4203 111.947 49.3143 111.909 49.2319 111.837C49.1495 111.766 49.0964 111.666 49.0828 111.558L48.8448 109.749C48.8371 109.687 48.8422 109.625 48.86 109.566C48.8777 109.506 48.9077 109.452 48.9479 109.405C48.9881 109.358 49.0377 109.32 49.0935 109.293C49.1493 109.266 49.2101 109.252 49.2719 109.25L55.2344 109.064C55.2987 109.062 55.3627 109.074 55.4219 109.099C55.4811 109.124 55.5341 109.162 55.5772 109.21C55.6204 109.258 55.6526 109.314 55.6716 109.376C55.6907 109.437 55.6961 109.502 55.6876 109.566L55.4398 111.473C55.4257 111.579 55.3742 111.675 55.2946 111.746C55.215 111.817 55.1126 111.856 55.0062 111.858Z" fill="#263238"/>
<path opacity="0.1" d="M55.0062 111.858L49.5294 111.946C49.4203 111.947 49.3143 111.909 49.2319 111.837C49.1495 111.766 49.0964 111.666 49.0828 111.558L48.8448 109.749C48.8371 109.687 48.8422 109.625 48.86 109.566C48.8777 109.506 48.9077 109.452 48.9479 109.405C48.9881 109.358 49.0377 109.32 49.0935 109.293C49.1493 109.266 49.2101 109.252 49.2719 109.25L55.2344 109.064C55.2987 109.062 55.3627 109.074 55.4219 109.099C55.4811 109.124 55.5341 109.162 55.5772 109.21C55.6204 109.258 55.6526 109.314 55.6716 109.376C55.6907 109.437 55.6961 109.502 55.6876 109.566L55.4398 111.473C55.4257 111.579 55.3742 111.675 55.2946 111.746C55.215 111.817 55.1126 111.856 55.0062 111.858Z" fill="white"/>
<path d="M37.2616 77.2496C39.3187 63.2805 38.8134 52.3954 41.8256 45.8624L53.5388 47.3065C53.5388 47.3065 47.7392 69.0442 45.0889 78.2765C42.4385 87.5089 34.5786 110.192 34.5786 110.192L28.9258 108.943C28.9258 108.943 33.7441 88.0598 37.2616 77.2496Z" fill="#263238"/>
<path d="M34.3178 111.196L28.9649 110.032C28.8562 110.006 28.7618 109.939 28.7011 109.844C28.6405 109.75 28.6182 109.637 28.6389 109.527L28.9649 107.75C28.9762 107.691 28.999 107.635 29.0321 107.585C29.0651 107.535 29.1076 107.492 29.1572 107.458C29.2069 107.425 29.2627 107.401 29.3214 107.389C29.3801 107.377 29.4407 107.377 29.4995 107.388L35.3675 108.568C35.4324 108.581 35.4935 108.609 35.546 108.649C35.5986 108.689 35.6413 108.741 35.6709 108.8C35.7005 108.859 35.7161 108.924 35.7167 108.99C35.7172 109.056 35.7026 109.122 35.674 109.181L34.8427 110.945C34.7981 111.041 34.7212 111.119 34.6254 111.165C34.5296 111.211 34.4208 111.222 34.3178 111.196Z" fill="#263238"/>
<path opacity="0.1" d="M34.3178 111.196L28.9649 110.032C28.8562 110.006 28.7618 109.939 28.7011 109.844C28.6405 109.75 28.6182 109.637 28.6389 109.527L28.9649 107.75C28.9762 107.691 28.999 107.635 29.0321 107.585C29.0651 107.535 29.1076 107.492 29.1572 107.458C29.2069 107.425 29.2627 107.401 29.3214 107.389C29.3801 107.377 29.4407 107.377 29.4995 107.388L35.3675 108.568C35.4324 108.581 35.4935 108.609 35.546 108.649C35.5986 108.689 35.6413 108.741 35.6709 108.8C35.7005 108.859 35.7161 108.924 35.7167 108.99C35.7172 109.056 35.7026 109.122 35.674 109.181L34.8427 110.945C34.7981 111.041 34.7212 111.119 34.6254 111.165C34.5296 111.211 34.4208 111.222 34.3178 111.196Z" fill="white"/>
<path d="M63.117 30.5045C63.3778 32.4605 63.6321 34.4654 63.919 36.4279C64.0559 37.4059 64.2189 38.3839 64.3786 39.3619C64.5383 40.3399 64.7372 41.2755 64.9589 42.1492C65.0143 42.3644 65.073 42.5698 65.1349 42.7686L65.2262 43.0425L65.3338 43.3293C65.4903 43.7108 65.6761 44.1052 65.8847 44.4997C66.0934 44.8941 66.3248 45.2886 66.5759 45.6831C66.8269 46.0775 67.0877 46.472 67.3648 46.8599C68.5101 48.4443 69.7376 49.9677 71.042 51.4239L71.0714 51.4565C71.2486 51.6607 71.3465 51.9216 71.3475 52.1919C71.3484 52.4622 71.2522 52.7239 71.0765 52.9292C70.9008 53.1346 70.6571 53.27 70.3899 53.3109C70.1227 53.3517 69.8497 53.2952 69.6207 53.1517C68.7255 52.5781 67.8665 51.9499 67.0485 51.2707C66.2218 50.5929 65.4349 49.8679 64.6916 49.0995C63.9184 48.3071 63.2118 47.4522 62.5791 46.5437C62.2443 46.0632 61.9415 45.5612 61.6728 45.0408L61.4707 44.6333L61.2881 44.1802C61.174 43.8966 61.073 43.6227 60.9621 43.3554C60.5938 42.2829 60.3395 41.2495 60.095 40.2226C59.8505 39.1957 59.6581 38.1688 59.469 37.1484C59.1072 35.0978 58.8171 33.0766 58.6149 30.9968C58.5475 30.4006 58.7196 29.8021 59.0935 29.3329C59.4673 28.8636 60.0123 28.5622 60.6084 28.4947C61.2046 28.4273 61.8031 28.5994 62.2723 28.9733C62.7415 29.3471 63.043 29.8921 63.1105 30.4882L63.117 30.5045Z" fill="#FF8B7B"/>
<path d="M60.5318 25.2526C63.4658 27.8312 64.2222 33.9665 64.2222 33.9665C62.9997 35.678 59.3876 36.5745 56.9621 36.7995C56.9621 36.7995 56.3101 35.4792 55.606 31.6519C54.8529 27.4857 57.7934 22.8565 60.5318 25.2526Z" fill="#FF7200"/>
<path d="M48.5739 22.2827C51.8531 22.5161 55.1003 23.0808 58.2659 23.9681C61.6693 24.9461 61.9236 28.255 61.7215 31.7921C61.4215 37.1125 59.3482 40.0791 58.5658 52.7931C56.4011 53.9178 46.5331 53.5787 40.2739 49.6961C41.1248 44.7278 43.974 36.3692 44.4695 25.9307C44.4939 25.4197 44.6201 24.9188 44.8407 24.4573C45.0613 23.9958 45.3719 23.583 45.7543 23.2432C46.1366 22.9034 46.583 22.6434 47.0672 22.4785C47.5514 22.3135 48.0636 22.247 48.5739 22.2827Z" fill="#FF7200"/>
<path d="M56.0526 27.3944C55.5081 27.5574 54.3313 27.2412 54.1683 26.5696C52.5383 26.5892 51.2343 27.013 50.8463 27.339C49.9564 25.8655 50.24 22.8663 50.5008 22.3871C50.7616 21.9078 56.3883 22.951 57.6239 23.4824C58.0815 23.6613 58.4723 23.978 58.7421 24.3887C58.9279 24.6495 59.782 26.4784 58.9051 27.828C58.4956 27.4827 58.0656 27.1627 57.6174 26.8696C57.6174 26.8696 57.5163 27.6846 56.0526 27.3944Z" fill="#FF7200"/>
<path opacity="0.8" d="M56.0526 27.3944C55.5081 27.5574 54.3313 27.2412 54.1683 26.5696C52.5383 26.5892 51.2343 27.013 50.8463 27.339C49.9564 25.8655 50.24 22.8663 50.5008 22.3871C50.7616 21.9078 56.3883 22.951 57.6239 23.4824C58.0815 23.6613 58.4723 23.978 58.7421 24.3887C58.9279 24.6495 59.782 26.4784 58.9051 27.828C58.4956 27.4827 58.0656 27.1627 57.6174 26.8696C57.6174 26.8696 57.5163 27.6846 56.0526 27.3944Z" fill="white"/>
<path d="M53.8062 16.1115C53.3661 18.4946 52.1762 21.6307 51.1982 22.8206C52.0524 24.1018 53.1738 25.5883 55.3124 26.3055C55.5503 26.387 55.9448 28.0659 56.1078 28.2909C56.4825 27.8096 56.7091 27.2296 56.7598 26.6218C58.6832 26.7424 58.5952 25.1059 58.1551 24.1246C55.7916 23.0684 56.1665 22.0643 57.1086 20.4897L53.8062 16.1115Z" fill="#FF8B7B"/>
<path opacity="0.2" d="M54.9019 18.8109C54.9885 18.5225 55.0975 18.2412 55.2279 17.9698L57.1382 20.4898C56.8161 20.9628 56.5779 21.4877 56.4341 22.0415C55.4756 21.4417 54.5889 19.8834 54.9019 18.8109Z" fill="black"/>
<path d="M55.6287 11.5965C54.1976 14.3284 53.1088 16.3104 54.152 18.2567C56.434 22.5207 58.5204 21.96 60.7437 19.7074C62.7453 17.6829 64.7535 13.559 62.7942 10.9738C62.3621 10.3985 61.7906 9.94262 61.1335 9.64923C60.4765 9.35585 59.7556 9.23459 59.0387 9.29689C58.3218 9.35918 57.6326 9.60298 57.0361 10.0053C56.4395 10.4076 55.9552 10.9552 55.6287 11.5965Z" fill="#FF8B7B"/>
<path d="M54.507 13.3536C56.4271 14.0968 57.7474 11.942 57.4964 11.1628C58.432 12.3397 61.4443 12.9754 62.3864 12.6853C62.6342 14.8173 64.688 15.8312 65.8453 15.9453C65.4834 15.7562 64.8314 15.1531 64.9031 14.7391C66.9145 14.4522 67.7263 11.7855 65.5192 11.0487C63.3122 10.312 63.1655 8.97213 61.9137 7.54099C60.4304 5.83927 56.8053 5.98271 57.1248 7.64857C55.7751 6.56299 53.3105 7.78875 54.0375 9.27857C51.2046 10.1066 53.0204 14.1294 53.6203 14.5272C54.2201 14.9249 54.507 13.3536 54.507 13.3536Z" fill="#263238"/>
<path d="M64.6362 14.8401C64.8313 14.9916 65.0608 15.0923 65.3043 15.1332C65.5478 15.1742 65.7977 15.1541 66.0315 15.0748C65.7111 14.9929 65.4219 14.8182 65.2002 14.5728C65.2002 14.5728 64.6362 14.6054 64.6362 14.8401Z" fill="#263238"/>
<path d="M57.3759 8.4473C56.9195 7.77574 57.1933 5.8393 57.7182 5.42202C56.199 5.51004 55.9741 7.36172 57.3759 8.4473Z" fill="#263238"/>
<path opacity="0.2" d="M58.7779 15.1662C58.5207 14.7566 58.1115 14.4658 57.6401 14.3577C57.9628 14.6991 58.3493 14.9738 58.7779 15.1662Z" fill="black"/>
<path opacity="0.2" d="M58.566 15.4074C58.4146 15.251 58.2308 15.1296 58.0275 15.0519C57.8242 14.9742 57.6063 14.942 57.3892 14.9575C57.7442 15.1909 58.1458 15.3444 58.566 15.4074Z" fill="black"/>
<path opacity="0.2" d="M57.0499 16.8581C56.7239 16.7016 56.349 16.6755 56.2056 17.3014C56.3073 17.1724 56.4351 17.0662 56.5805 16.9898C56.726 16.9134 56.8859 16.8686 57.0499 16.8581Z" fill="black"/>
<path d="M60.0918 18.1198C60.5026 18.3969 61.2784 19.401 60.9329 20.2812C60.0462 20.2812 57.3893 18.8435 56.7666 17.7351C56.9263 16.9201 58.9867 17.37 60.0918 18.1198Z" fill="#263238"/>
<path d="M60.9783 15.9519C60.9783 15.9519 60.5903 17.4514 60.6914 18.3805C60.0883 18.4588 59.583 17.8655 59.583 17.8655L60.9783 15.9519Z" fill="#FF5652"/>
<path d="M59.0777 15.4303C58.9734 15.6585 59.0093 15.8997 59.1592 15.9649C59.3092 16.0301 59.5145 15.903 59.6221 15.6748C59.7297 15.4466 59.6906 15.2086 59.5406 15.1401C59.3907 15.0717 59.1853 15.2053 59.0777 15.4303Z" fill="#263238"/>
<path d="M61.8096 16.6657C61.7053 16.8907 61.7412 17.1319 61.8911 17.1971C62.0411 17.2623 62.2465 17.1352 62.3508 16.907C62.4551 16.6788 62.4193 16.4408 62.2693 16.3723C62.1193 16.3039 61.914 16.4375 61.8096 16.6657Z" fill="#263238"/>
<path opacity="0.5" d="M60.4532 15.8181C60.1044 16.6429 59.3448 17.1221 58.7548 16.8744C58.1647 16.6266 57.9691 15.766 58.3179 14.9379" fill="#FF7200"/>
<path opacity="0.5" d="M63.358 17.1221C63.0092 17.9502 62.2496 18.4261 61.6596 18.1784C61.0695 17.9306 60.8739 17.07 61.2227 16.2419" fill="#FF7200"/>
<path d="M61.9859 18.3283C61.8637 18.3291 61.7428 18.3047 61.6305 18.2566C61.5049 18.2033 61.3916 18.125 61.2974 18.0263C61.2032 17.9276 61.1302 17.8108 61.0828 17.6828C60.9123 17.203 60.9357 16.6755 61.148 16.2126C61.223 16.092 61.2295 16.0007 61.1741 15.9355C61.0802 15.8695 60.9709 15.8289 60.8567 15.8175C60.7425 15.8061 60.6272 15.8243 60.5221 15.8703C60.1505 16.7179 59.355 17.1971 58.7324 16.9396C58.6074 16.8853 58.4946 16.8066 58.4005 16.7081C58.3064 16.6095 58.2331 16.4932 58.1847 16.3658C58.0222 15.9092 58.0349 15.4085 58.2206 14.9607L54.8041 12.9004C54.7853 12.8889 54.7718 12.8706 54.7663 12.8493C54.7609 12.828 54.7639 12.8054 54.7747 12.7863C54.7867 12.769 54.8046 12.7567 54.8251 12.7519C54.8456 12.7471 54.8672 12.7501 54.8856 12.7602L58.3542 14.8597C58.3714 14.8693 58.3845 14.8849 58.3911 14.9035C58.3977 14.9221 58.3973 14.9424 58.3901 14.9607C58.1966 15.3835 58.1733 15.8644 58.3249 16.3039C58.3655 16.4112 58.4271 16.5094 58.506 16.5928C58.5849 16.6762 58.6796 16.7431 58.7845 16.7896C59.3322 17.0145 60.0462 16.5614 60.3754 15.7757C60.3788 15.7659 60.3844 15.757 60.3917 15.7497C60.3991 15.7423 60.408 15.7368 60.4178 15.7334C60.5563 15.6649 60.7113 15.6365 60.8651 15.6515C61.0189 15.6664 61.1655 15.7242 61.2882 15.8181C61.3409 15.8831 61.3696 15.9643 61.3696 16.048C61.3696 16.1316 61.3409 16.2128 61.2882 16.2778C61.0998 16.6986 61.0788 17.1754 61.2295 17.6111C61.2695 17.7188 61.3309 17.8174 61.4099 17.9009C61.4888 17.9843 61.5838 18.051 61.6892 18.0969C62.2369 18.3218 62.9508 17.8687 63.2801 17.083C63.2887 17.0631 63.3049 17.0475 63.3251 17.0395C63.3453 17.0316 63.3678 17.032 63.3877 17.0406C63.4075 17.0493 63.4232 17.0655 63.4311 17.0856C63.4391 17.1058 63.4387 17.1283 63.43 17.1482C63.1334 17.8654 62.5368 18.3283 61.9859 18.3283Z" fill="white"/>
<path d="M58.8757 13.5982C58.8561 13.5825 58.8405 13.5624 58.8301 13.5395C58.8148 13.5031 58.8144 13.4622 58.8291 13.4256C58.8437 13.389 58.8722 13.3596 58.9083 13.3439C59.1219 13.2461 59.3556 13.2004 59.5902 13.2107C59.8249 13.2209 60.0537 13.2866 60.258 13.4026C60.2899 13.425 60.3119 13.459 60.3192 13.4973C60.3265 13.5357 60.3186 13.5753 60.2971 13.6079C60.2753 13.6397 60.2419 13.6616 60.2041 13.6689C60.1662 13.6762 60.1271 13.6684 60.095 13.6471C59.9315 13.559 59.7498 13.5102 59.5642 13.5046C59.3786 13.4989 59.1942 13.5365 59.0257 13.6145C59.0014 13.6249 58.9748 13.6289 58.9486 13.626C58.9223 13.6232 58.8972 13.6136 58.8757 13.5982Z" fill="#263238"/>
<path d="M63.4038 15.7529C63.3808 15.7449 63.3603 15.7311 63.3443 15.7128C63.3283 15.6945 63.3174 15.6724 63.3125 15.6486C63.2766 15.4686 63.1989 15.2996 63.0856 15.1552C62.9724 15.0108 62.8267 14.895 62.6605 14.8173C62.626 14.8022 62.5987 14.7744 62.5841 14.7396C62.5696 14.7049 62.569 14.6659 62.5824 14.6307C62.5958 14.5956 62.6222 14.5669 62.6561 14.5506C62.6901 14.5344 62.729 14.5318 62.7648 14.5434C62.9784 14.6359 63.1666 14.7783 63.3135 14.9587C63.4605 15.1391 63.5619 15.3523 63.6091 15.5801C63.6135 15.599 63.614 15.6185 63.6108 15.6375C63.6076 15.6566 63.6006 15.6748 63.5903 15.6912C63.58 15.7076 63.5666 15.7217 63.5508 15.7329C63.535 15.744 63.5172 15.7519 63.4983 15.7562C63.4675 15.7673 63.4337 15.7661 63.4038 15.7529Z" fill="#263238"/>
<path d="M70.6086 51.1207L72.5646 52.0498C73.2748 52.3872 73.9168 52.8525 74.4586 53.4223L74.9281 53.9178C75.1661 54.1688 75.0617 54.6545 74.7194 54.9284L73.448 55.9422C73.3618 56.0219 73.2547 56.0752 73.1391 56.096C73.0236 56.1168 72.9046 56.1042 72.796 56.0596L71.5768 55.4337C71.5768 55.4337 68.9688 54.5404 69.3567 52.4377L70.6086 51.1207Z" fill="#FF8B7B"/>
<path d="M47.27 27.4955L44.173 31.9356C43.6579 32.6723 43.1494 33.4156 42.6538 34.1491C42.1583 34.8826 41.6758 35.6292 41.2814 36.3138C41.1738 36.4898 41.1086 36.6398 41.0173 36.793C40.9664 36.8873 40.9228 36.9854 40.8869 37.0864C40.8087 37.3308 40.7702 37.5861 40.7728 37.8427C40.7983 38.5525 40.9416 39.2532 41.1966 39.9161C41.8066 41.4907 42.5929 42.9911 43.5406 44.3888L43.5797 44.4507C43.7262 44.6761 43.7871 44.9465 43.7515 45.2129C43.7158 45.4793 43.586 45.7241 43.3854 45.9031C43.1848 46.082 42.9267 46.1831 42.658 46.1882C42.3892 46.1933 42.1276 46.102 41.9203 45.9308C41.1581 45.3014 40.4523 44.6065 39.8111 43.8541C39.1453 43.0884 38.5588 42.2572 38.0605 41.3733C37.4941 40.3919 37.1139 39.3143 36.9391 38.1948C36.8412 37.539 36.8522 36.8715 36.9717 36.2192C37.0356 35.8727 37.1328 35.5332 37.2618 35.2054C37.3661 34.9511 37.477 34.6707 37.5878 34.4425C38.0246 33.4939 38.4908 32.6756 38.9668 31.8508C39.4427 31.026 39.9448 30.2208 40.4403 29.4449C41.4509 27.8736 42.4843 26.3479 43.609 24.8483C43.9642 24.3738 44.4916 24.0579 45.0776 23.9687C45.6635 23.8795 46.2611 24.0241 46.7414 24.3714C47.2217 24.7187 47.5463 25.2408 47.6452 25.8252C47.7441 26.4096 47.6093 27.0095 47.27 27.4955Z" fill="#FF8B7B"/>
<path d="M48.1598 22.2762C42.9046 22.0936 40.0098 28.5549 40.0098 28.5549C41.1671 31.0717 42.7775 33.2852 44.6259 33.7481C44.6259 33.7481 46.7286 31.9193 48.4238 28.4213C49.8778 25.4416 49.1638 22.5174 48.1598 22.2762Z" fill="#FF7200"/>
<path d="M41.5653 44.4572L43.4561 44.291L44.2026 45.4222C44.8201 46.3499 45.2273 47.4013 45.3958 48.5029L45.4284 48.7148C45.4471 48.852 45.437 48.9916 45.3988 49.1247C45.3606 49.2578 45.2951 49.3815 45.2065 49.4879C45.1178 49.5944 45.008 49.6811 44.884 49.7428C44.76 49.8044 44.6245 49.8396 44.4862 49.846L43.1659 49.9503C42.9115 49.9719 42.6573 49.9071 42.4443 49.7663C42.2314 49.6255 42.0721 49.417 41.9923 49.1745L41.5555 47.7303C41.5555 47.7303 40.3102 45.2462 41.5653 44.4572Z" fill="#FF8B7B"/>
<path d="M53.21 13.4546C53.0471 14.1715 53.1637 14.9235 53.536 15.5573C54.0217 16.343 54.8824 15.929 55.2605 15.0357C55.6028 14.2305 55.7626 12.8548 55.0258 12.3886C54.289 11.9224 53.4121 12.5353 53.21 13.4546Z" fill="#FF8B7B"/>
<path d="M109.141 16.1963C105.657 20.995 109.184 26.5076 105.924 25.7415C106.755 29.1548 111.14 29.2949 112.059 28.4604C111.747 29.1052 111.272 29.6571 110.68 30.061C110.68 30.061 117.943 30.9412 119.482 26.8793C120.134 27.7399 122.582 27.9029 123.414 27.101C122.716 26.8467 120.851 24.5321 121.132 20.7309C121.311 18.2012 121.305 13.999 118.459 14.8401C117.08 11.5279 111.417 13.0634 109.141 16.1963Z" fill="#263238"/>
<path d="M114.703 35.7237C114.524 36.9234 114.318 38.1133 114.103 39.3097C113.888 40.5061 113.663 41.6895 113.422 42.8762C113.181 44.0628 112.933 45.2527 112.666 46.4393C112.398 47.626 112.144 48.7963 111.779 50.0482L111.831 49.7222C111.743 50.3591 111.589 50.9851 111.371 51.5901C111.176 52.1411 110.961 52.6496 110.736 53.1452C110.292 54.1087 109.799 55.0488 109.259 55.9618C108.731 56.8616 108.177 57.732 107.596 58.5698C107.016 59.4076 106.416 60.2487 105.758 61.0637C105.576 61.2902 105.318 61.4431 105.032 61.4943C104.746 61.5454 104.451 61.4912 104.201 61.3417C103.952 61.1923 103.766 60.9576 103.676 60.6812C103.586 60.4048 103.6 60.1052 103.714 59.8379L104.878 57.1028C105.262 56.19 105.644 55.2805 105.996 54.3742C106.348 53.4679 106.687 52.5616 106.974 51.6814C107.114 51.2446 107.241 50.8077 107.332 50.3937C107.421 50.0412 107.476 49.6809 107.495 49.3179C107.492 49.2887 107.492 49.2592 107.495 49.2299L107.541 48.9952C107.753 47.9161 107.939 46.7132 108.138 45.5461L108.711 41.9992C108.9 40.8158 109.102 39.6292 109.301 38.4458C109.5 37.2624 109.712 36.0758 109.953 34.8989C110.007 34.5875 110.121 34.2896 110.289 34.0222C110.458 33.7549 110.677 33.5233 110.935 33.3408C111.193 33.1583 111.484 33.0283 111.792 32.9584C112.101 32.8884 112.419 32.8799 112.731 32.9332C113.042 32.9865 113.34 33.1006 113.608 33.269C113.875 33.4374 114.106 33.6569 114.289 33.9148C114.472 34.1727 114.601 34.4641 114.671 34.7722C114.741 35.0803 114.75 35.3992 114.697 35.7107L114.703 35.7237Z" fill="#7F3E3B"/>
<path d="M103.717 59.9748L102.768 61.1027C102.455 61.4764 102.245 61.9262 102.162 62.4067L102.074 62.912C102.031 63.1515 102.073 63.3982 102.192 63.6104C102.311 63.8225 102.499 63.987 102.726 64.0759L103.909 64.5388C104.168 64.6385 104.455 64.6326 104.71 64.5222C104.964 64.4118 105.165 64.2058 105.269 63.9487L105.477 63.4239C105.477 63.4239 106.527 61.5135 106.279 59.8379L105.823 59.6944C105.474 59.5746 105.102 59.5375 104.737 59.5862C104.371 59.6348 104.022 59.7679 103.717 59.9748Z" fill="#7F3E3B"/>
<path d="M110.566 32.8875C109.086 34.1915 107.818 37.8916 107.818 37.8916C107.818 37.8916 111.684 41.9731 114.798 42.9251C116.503 42.1329 115.681 36.9495 115.681 36.9495L110.566 32.8875Z" fill="#263238"/>
<g opacity="0.4">
<path d="M109.679 38.2013C109.759 38.2009 109.839 38.1921 109.917 38.1752C110.054 38.1487 110.183 38.0926 110.295 38.011C110.408 37.9293 110.502 37.8241 110.569 37.7025C110.639 37.5687 110.679 37.4216 110.687 37.2709C110.696 37.1203 110.672 36.9697 110.618 36.8289C110.514 36.5385 110.309 36.2947 110.042 36.1407C109.775 35.9867 109.461 35.9325 109.158 35.9878C109.021 36.0136 108.892 36.069 108.779 36.1501C108.667 36.2312 108.573 36.336 108.506 36.4572C108.436 36.5911 108.396 36.7382 108.387 36.8888C108.379 37.0394 108.403 37.1901 108.457 37.3309C108.551 37.5809 108.718 37.7972 108.935 37.9522C109.153 38.1072 109.412 38.1939 109.679 38.2013ZM108.662 36.542C108.716 36.4444 108.79 36.3596 108.879 36.2932C108.969 36.2268 109.072 36.1805 109.18 36.1573C109.248 36.1443 109.317 36.1378 109.386 36.1377C109.617 36.1436 109.84 36.2185 110.028 36.3527C110.216 36.487 110.359 36.6744 110.439 36.8908C110.486 37.0073 110.507 37.1327 110.501 37.2582C110.495 37.3838 110.461 37.5064 110.403 37.6178C110.349 37.7154 110.274 37.8003 110.184 37.8667C110.094 37.933 109.991 37.9793 109.881 38.0025C109.619 38.0469 109.35 37.9981 109.12 37.8648C108.89 37.7314 108.714 37.5217 108.623 37.2722C108.577 37.1547 108.557 37.0288 108.564 36.9029C108.571 36.7769 108.604 36.6539 108.662 36.542Z" fill="white"/>
<path d="M113.19 35.264C113.257 35.2482 113.324 35.2405 113.393 35.2412C113.445 35.2379 113.497 35.2379 113.549 35.2412L113.318 35.0586C113.262 35.0604 113.206 35.0669 113.151 35.0782C113.015 35.1045 112.885 35.1605 112.773 35.2422C112.66 35.3239 112.567 35.4292 112.499 35.5509C112.43 35.6848 112.389 35.8319 112.381 35.9825C112.373 36.1331 112.396 36.2838 112.45 36.4246C112.545 36.6742 112.712 36.8901 112.929 37.0445C113.147 37.199 113.406 37.285 113.673 37.2917C113.753 37.2928 113.833 37.284 113.911 37.2656C114.047 37.2403 114.177 37.1851 114.289 37.1039C114.402 37.0227 114.496 36.9177 114.563 36.7962C114.668 36.5961 114.703 36.3667 114.664 36.1442L114.426 35.9551L114.446 35.9975C114.493 36.1146 114.514 36.2405 114.508 36.3665C114.501 36.4926 114.468 36.6158 114.41 36.7277C114.356 36.8253 114.281 36.91 114.191 36.9759C114.101 37.0417 113.997 37.0872 113.888 37.1092C113.626 37.1542 113.356 37.1058 113.126 36.9723C112.896 36.8388 112.721 36.6288 112.63 36.3789C112.584 36.262 112.563 36.1366 112.57 36.0112C112.577 35.8857 112.611 35.7632 112.669 35.6519C112.723 35.5534 112.797 35.4677 112.887 35.4007C112.977 35.3337 113.081 35.2871 113.19 35.264Z" fill="white"/>
<path d="M110.762 40.4767C110.828 40.4609 110.896 40.4533 110.964 40.4539C111.194 40.4607 111.417 40.5359 111.605 40.67C111.792 40.8041 111.936 40.9911 112.017 41.207C112.054 41.3117 112.074 41.4218 112.075 41.533L112.248 41.6471C112.262 41.4802 112.24 41.3124 112.183 41.1548C112.079 40.8639 111.875 40.6193 111.608 40.4647C111.34 40.31 111.026 40.2554 110.722 40.3105C110.656 40.3268 110.59 40.3486 110.527 40.3757L110.69 40.5061L110.762 40.4767Z" fill="white"/>
<path d="M114.729 39.4108C114.593 39.4366 114.463 39.492 114.351 39.5731C114.238 39.6542 114.145 39.759 114.077 39.8802C114.007 40.0141 113.967 40.1614 113.959 40.3121C113.952 40.4628 113.976 40.6135 114.031 40.7539C114.125 41.0044 114.291 41.2212 114.509 41.3763C114.727 41.5314 114.986 41.6178 115.254 41.6243C115.334 41.6237 115.414 41.615 115.492 41.5982C115.553 41.5836 115.613 41.564 115.671 41.5396C115.691 41.4646 115.707 41.3863 115.72 41.3114C115.639 41.3656 115.548 41.4043 115.453 41.4255C115.191 41.471 114.922 41.4227 114.692 41.2892C114.462 41.1556 114.287 40.9452 114.198 40.6952C114.15 40.5781 114.129 40.4522 114.135 40.3262C114.142 40.2001 114.175 40.0769 114.233 39.965C114.288 39.8674 114.362 39.7827 114.452 39.7169C114.542 39.651 114.646 39.6055 114.755 39.5836C114.821 39.5677 114.889 39.5601 114.957 39.5607C115.133 39.5651 115.306 39.6101 115.462 39.692C115.618 39.774 115.753 39.8908 115.857 40.0334C115.857 39.9487 115.857 39.8639 115.857 39.7792C115.713 39.6302 115.535 39.5187 115.339 39.4545C115.142 39.3903 114.933 39.3753 114.729 39.4108Z" fill="white"/>
</g>
<path d="M120.529 79.3229C125.931 61.8265 127.146 52.1084 127.146 52.1084L114.25 51.4108C114.25 51.4108 112.18 69.0148 111.277 79.8021C110.299 86.2341 109.158 97.1649 108.434 104.506C110.591 104.541 112.747 104.363 114.869 103.975C117.223 97.7028 120.004 88.565 120.529 79.3229Z" fill="#FF7200"/>
<path d="M111.87 112.337C111.87 112.337 113.122 108.963 114.426 103.929C112.835 104.493 110.938 103.157 108.965 103.385C108.846 106.553 108.532 109.71 108.026 112.839C108.616 113.142 110.856 112.777 111.87 112.337Z" fill="#7F3E3B"/>
<path d="M102.97 117.022C106.641 115.691 107.74 115.701 107.622 112.229C108.444 111.848 112.552 111.685 112.552 111.685C111.746 115.202 111.948 114.844 112.157 115.705C112.418 116.787 113.034 118.329 111.577 118.329C110.69 118.329 110.364 118.153 109.259 118.163C107.971 118.163 105.957 118.329 103.391 118.329C102.002 118.329 102.253 117.282 102.97 117.022Z" fill="#263238"/>
<path d="M108.323 102.86C108.271 103.473 108.164 105.008 108.323 105.566C108.331 105.598 108.349 105.628 108.373 105.651C108.397 105.674 108.427 105.69 108.46 105.696C110.416 106.11 112.44 106.069 114.377 105.576C114.44 105.557 114.494 105.516 114.53 105.462C115 104.761 115.508 103.238 115.727 102.599C115.74 102.568 115.745 102.534 115.74 102.501C115.736 102.468 115.723 102.436 115.702 102.41C115.682 102.383 115.654 102.363 115.623 102.35C115.592 102.337 115.558 102.334 115.525 102.339C113.226 102.561 110.916 102.651 108.607 102.606C108.537 102.608 108.471 102.635 108.419 102.681C108.367 102.728 108.333 102.791 108.323 102.86Z" fill="#FF7200"/>
<path opacity="0.2" d="M108.323 102.86C108.271 103.473 108.164 105.008 108.323 105.566C108.331 105.598 108.349 105.628 108.373 105.651C108.397 105.674 108.427 105.69 108.46 105.696C110.416 106.11 112.44 106.069 114.377 105.576C114.44 105.557 114.494 105.516 114.53 105.462C115 104.761 115.508 103.238 115.727 102.599C115.74 102.568 115.745 102.534 115.74 102.501C115.736 102.468 115.723 102.436 115.702 102.41C115.682 102.383 115.654 102.363 115.623 102.35C115.592 102.337 115.558 102.334 115.525 102.339C113.226 102.561 110.916 102.651 108.607 102.606C108.537 102.608 108.471 102.635 108.419 102.681C108.367 102.728 108.333 102.791 108.323 102.86Z" fill="black"/>
<path opacity="0.2" d="M120.376 60.7474C118.987 66.3546 119.808 74.0124 120.979 77.8526C121.733 75.3685 122.401 73.0517 122.984 70.9023C123.003 70.6839 123.019 70.4655 123.036 70.2503C121.953 66.5567 120.698 63.476 120.376 60.7474Z" fill="black"/>
<path d="M131.297 79.3229C131.717 57.1549 128.447 51.075 128.447 51.075L116.93 51.401C116.93 51.401 120.395 68.8681 122.739 79.9162C124.164 86.27 125.093 97.1551 126.495 104.497C128.601 104.537 130.707 104.359 132.777 103.965C133.314 97.7028 133.448 88.565 131.297 79.3229Z" fill="#FF7200"/>
<path d="M132.203 112.337C132.386 109.538 132.426 106.732 132.324 103.929C130.896 104.493 128.614 103.157 126.707 103.385C127.493 106.498 128.093 109.655 128.503 112.839C129.181 113.142 131.313 112.777 132.203 112.337Z" fill="#7F3E3B"/>
<path d="M124.532 116.878C127.919 115.545 128.77 115.705 127.926 112.233C128.666 111.851 132.737 111.688 132.737 111.688C132.718 113.126 132.932 114.557 133.373 115.926C133.699 117.074 134.139 118.329 132.777 118.329C131.893 118.329 131.544 118.153 130.442 118.163C129.138 118.163 127.557 118.329 125.001 118.329C123.593 118.329 123.86 117.136 124.532 116.878Z" fill="#263238"/>
<path d="M125.908 102.86C126.035 103.473 126.367 105.008 126.69 105.566C126.709 105.599 126.734 105.627 126.764 105.649C126.795 105.672 126.829 105.688 126.866 105.696C129.311 106.208 131.756 105.928 132.734 105.576C132.762 105.568 132.787 105.553 132.808 105.533C132.829 105.513 132.845 105.489 132.855 105.462C133.119 104.761 133.2 103.238 133.223 102.599C133.224 102.563 133.217 102.527 133.202 102.494C133.188 102.461 133.167 102.431 133.141 102.406C133.114 102.382 133.083 102.363 133.049 102.351C133.015 102.34 132.979 102.335 132.943 102.338C130.668 102.564 128.382 102.653 126.097 102.606C126.067 102.608 126.037 102.616 126.011 102.631C125.984 102.645 125.962 102.665 125.944 102.689C125.926 102.714 125.913 102.741 125.907 102.771C125.901 102.8 125.901 102.831 125.908 102.86Z" fill="#FF7200"/>
<path opacity="0.2" d="M125.908 102.86C126.035 103.473 126.367 105.008 126.69 105.566C126.709 105.599 126.734 105.627 126.764 105.649C126.795 105.672 126.829 105.688 126.866 105.696C129.311 106.208 131.756 105.928 132.734 105.576C132.762 105.568 132.787 105.553 132.808 105.533C132.829 105.513 132.845 105.489 132.855 105.462C133.119 104.761 133.2 103.238 133.223 102.599C133.224 102.563 133.217 102.527 133.202 102.494C133.188 102.461 133.167 102.431 133.141 102.406C133.114 102.382 133.083 102.363 133.049 102.351C133.015 102.34 132.979 102.335 132.943 102.338C130.668 102.564 128.382 102.653 126.097 102.606C126.067 102.608 126.037 102.616 126.011 102.631C125.984 102.645 125.962 102.665 125.944 102.689C125.926 102.714 125.913 102.741 125.907 102.771C125.901 102.8 125.901 102.831 125.908 102.86Z" fill="black"/>
<path d="M109.311 37.5427C110.09 40.5191 108.529 43.0521 111.446 44.1605C111.225 46.5077 113.262 53.4678 113.728 54.8566C115.358 55.5346 122.514 54.361 128.764 51.1858C128.402 48.5615 125.654 41.4938 125.36 32.8059C125.346 32.3295 125.231 31.8614 125.024 31.4322C124.817 31.0029 124.522 30.6221 124.158 30.3145C123.794 30.007 123.369 29.7796 122.911 29.6472C122.453 29.5147 121.972 29.4802 121.5 29.5459C120.966 29.6209 120.405 29.7122 119.831 29.823C117.826 30.1633 115.847 30.647 113.911 31.2705C113.285 31.4856 112.646 31.7269 112.036 31.9681C110.977 32.4003 110.113 33.2074 109.611 34.2356C109.108 35.2638 109.001 36.441 109.311 37.5427Z" fill="#263238"/>
<g opacity="0.4">
<path d="M112.059 32.581C112.001 32.6763 111.923 32.7578 111.83 32.8198C111.737 32.8817 111.632 32.9226 111.521 32.9396C111.252 32.9815 110.977 32.9159 110.755 32.757C110.709 32.7961 110.661 32.832 110.618 32.8744C110.833 33.0379 111.095 33.1282 111.365 33.1319C111.427 33.1313 111.489 33.1259 111.551 33.1156C111.684 33.0936 111.812 33.0428 111.925 32.9669C112.037 32.8909 112.132 32.7915 112.203 32.6755C112.273 32.5551 112.319 32.4218 112.337 32.2835C112.354 32.1452 112.344 32.0046 112.307 31.8703L112.141 31.9355C112.17 32.0431 112.178 32.1556 112.164 32.2664C112.151 32.3772 112.115 32.4841 112.059 32.581Z" fill="white"/>
<path d="M114.178 31.5018C114.26 31.7665 114.421 31.9993 114.641 32.1681C114.861 32.3369 115.127 32.4333 115.404 32.444C115.466 32.4504 115.528 32.4504 115.59 32.444C115.724 32.4215 115.851 32.3706 115.964 32.2947C116.076 32.2188 116.171 32.1196 116.242 32.0039C116.318 31.8737 116.366 31.7287 116.382 31.5786C116.398 31.4284 116.381 31.2766 116.333 31.1335C116.276 30.9635 116.185 30.807 116.066 30.6738L115.877 30.7227C116.009 30.8511 116.107 31.0101 116.163 31.1856C116.205 31.3048 116.22 31.4315 116.207 31.557C116.195 31.6825 116.155 31.8038 116.092 31.9126C116.034 32.008 115.955 32.0895 115.863 32.1514C115.77 32.2134 115.664 32.2542 115.554 32.2712C115.29 32.3032 115.023 32.2418 114.8 32.0977C114.577 31.9536 114.411 31.7359 114.331 31.4823C114.303 31.3861 114.29 31.2859 114.292 31.1856L114.116 31.241C114.125 31.3303 114.146 31.418 114.178 31.5018Z" fill="white"/>
<path d="M118.214 30.162C118.148 30.3742 118.148 30.6017 118.214 30.814C118.299 31.0771 118.464 31.3075 118.685 31.4733C118.906 31.6391 119.173 31.7323 119.45 31.7398C119.512 31.7392 119.574 31.7338 119.636 31.7235C119.77 31.7011 119.897 31.6501 120.009 31.5742C120.122 31.4983 120.217 31.3991 120.288 31.2834C120.364 31.153 120.411 31.0078 120.426 30.8577C120.441 30.7076 120.424 30.556 120.376 30.413C120.303 30.1828 120.167 29.9774 119.985 29.8197L119.808 29.849H119.753C119.967 29.9944 120.128 30.2063 120.209 30.4521C120.25 30.5714 120.264 30.698 120.252 30.8233C120.24 30.9487 120.201 31.07 120.138 31.1791C120.078 31.2737 119.999 31.3546 119.906 31.4164C119.812 31.4782 119.707 31.5195 119.597 31.5377C119.333 31.5693 119.066 31.5074 118.843 31.3626C118.621 31.2178 118.456 30.9994 118.377 30.7455C118.31 30.5382 118.32 30.3132 118.407 30.1131L118.214 30.162Z" fill="white"/>
<path d="M122.25 29.5394C122.212 29.7244 122.221 29.9162 122.276 30.0968C122.36 30.3601 122.524 30.5908 122.745 30.7572C122.965 30.9236 123.232 31.0175 123.508 31.0259C123.571 31.0253 123.633 31.0199 123.694 31.0096C123.828 30.9872 123.955 30.9363 124.068 30.8603C124.18 30.7844 124.275 30.6852 124.346 30.5695C124.346 30.5695 124.346 30.5402 124.362 30.5304C124.32 30.4848 124.274 30.4456 124.229 30.4033C124.229 30.4261 124.209 30.4522 124.193 30.4782C124.134 30.573 124.056 30.6539 123.963 30.7152C123.87 30.7766 123.765 30.817 123.655 30.8336C123.391 30.8667 123.125 30.8057 122.902 30.6614C122.679 30.5171 122.514 30.2987 122.436 30.0447C122.386 29.8886 122.378 29.7222 122.413 29.5622C122.359 29.5517 122.305 29.5441 122.25 29.5394Z" fill="white"/>
<path d="M109.458 36.9461C109.499 37.0653 109.514 37.192 109.502 37.3175C109.489 37.4429 109.45 37.5643 109.386 37.6731C109.376 37.6878 109.365 37.702 109.353 37.7155C109.37 37.7905 109.386 37.8622 109.399 37.9372C109.452 37.8855 109.498 37.8274 109.536 37.7644C109.613 37.6342 109.66 37.4892 109.676 37.3391C109.692 37.1889 109.675 37.0371 109.627 36.894C109.539 36.633 109.373 36.4053 109.151 36.242C109.151 36.3169 109.151 36.3952 109.151 36.4734C109.29 36.6038 109.396 36.766 109.458 36.9461Z" fill="white"/>
<path d="M112.923 37.5036C113.057 37.4811 113.185 37.4302 113.297 37.3543C113.41 37.2784 113.504 37.1792 113.575 37.0635C113.652 36.9333 113.699 36.7882 113.715 36.6379C113.73 36.4877 113.712 36.3359 113.663 36.1931C113.573 35.8976 113.381 35.6437 113.122 35.4766C112.862 35.3094 112.551 35.2398 112.245 35.2803C112.111 35.3027 111.984 35.3536 111.871 35.4296C111.759 35.5055 111.664 35.6046 111.593 35.7204C111.517 35.8506 111.469 35.9956 111.454 36.1457C111.438 36.2958 111.454 36.4476 111.502 36.5908C111.586 36.8546 111.75 37.0856 111.972 37.2521C112.193 37.4185 112.461 37.5121 112.738 37.5199C112.8 37.5193 112.862 37.5139 112.923 37.5036ZM111.671 36.5256C111.631 36.4069 111.616 36.2808 111.628 36.1559C111.641 36.031 111.68 35.9102 111.743 35.8019C111.801 35.7065 111.88 35.625 111.972 35.563C112.065 35.5011 112.171 35.4602 112.281 35.4433C112.334 35.4384 112.388 35.4384 112.441 35.4433C112.679 35.4508 112.909 35.5319 113.1 35.6755C113.29 35.8191 113.431 36.0182 113.504 36.2452C113.544 36.3645 113.558 36.4911 113.546 36.6164C113.534 36.7418 113.495 36.8631 113.432 36.9722C113.372 37.0668 113.293 37.1477 113.2 37.2095C113.106 37.2713 113.001 37.3126 112.891 37.3308C112.627 37.3625 112.36 37.3005 112.138 37.1557C111.915 37.0109 111.75 36.7926 111.671 36.5386V36.5256Z" fill="white"/>
<path d="M117.627 36.356C117.702 36.2252 117.749 36.0801 117.764 35.9302C117.779 35.7802 117.763 35.6287 117.715 35.4856C117.625 35.1901 117.433 34.9362 117.174 34.7691C116.914 34.6019 116.603 34.5323 116.297 34.5728C116.163 34.5952 116.036 34.6461 115.923 34.722C115.811 34.798 115.716 34.8971 115.645 35.0129C115.57 35.1436 115.524 35.2887 115.508 35.4387C115.493 35.5887 115.51 35.7402 115.557 35.8833C115.641 36.1462 115.805 36.3765 116.026 36.5423C116.247 36.7081 116.513 36.8014 116.789 36.8091C116.851 36.814 116.913 36.814 116.975 36.8091C117.11 36.7852 117.238 36.7323 117.351 36.654C117.463 36.5758 117.558 36.4741 117.627 36.356ZM115.73 35.8376C115.689 35.7185 115.674 35.5918 115.686 35.4663C115.699 35.3408 115.738 35.2195 115.802 35.1107C115.86 35.0159 115.939 34.9348 116.032 34.8729C116.124 34.8111 116.229 34.7699 116.34 34.7521C116.393 34.7487 116.446 34.7487 116.499 34.7521C116.737 34.7605 116.967 34.8424 117.157 34.9866C117.346 35.1308 117.487 35.3301 117.559 35.5573C117.6 35.676 117.615 35.8021 117.602 35.927C117.59 36.0519 117.551 36.1727 117.487 36.281C117.429 36.3767 117.351 36.4584 117.258 36.5204C117.165 36.5824 117.06 36.6231 116.949 36.6396C116.684 36.672 116.416 36.6092 116.192 36.4624C115.969 36.3155 115.805 36.0941 115.73 35.8376Z" fill="white"/>
<path d="M120.343 33.8785C120.209 33.9009 120.082 33.9518 119.969 34.0277C119.857 34.1037 119.762 34.2028 119.691 34.3186C119.616 34.4492 119.569 34.5943 119.554 34.7444C119.539 34.8944 119.555 35.0459 119.603 35.189C119.688 35.4516 119.851 35.6816 120.072 35.8474C120.293 36.0132 120.559 36.1066 120.835 36.1148C120.897 36.1213 120.959 36.1213 121.021 36.1148C121.155 36.0928 121.283 36.042 121.395 35.9661C121.508 35.8901 121.602 35.7907 121.673 35.6747C121.75 35.5448 121.798 35.3998 121.814 35.2495C121.83 35.0993 121.813 34.9474 121.764 34.8043C121.677 34.5058 121.485 34.2485 121.225 34.0787C120.964 33.9089 120.651 33.8379 120.343 33.8785ZM121.52 35.5671C121.462 35.6625 121.383 35.744 121.29 35.806C121.198 35.8679 121.092 35.9088 120.982 35.9257C120.718 35.9576 120.452 35.8961 120.229 35.7519C120.007 35.6078 119.841 35.3901 119.763 35.1368C119.721 35.0179 119.705 34.8913 119.717 34.7658C119.729 34.6403 119.768 34.5189 119.831 34.4098C119.89 34.3144 119.969 34.2329 120.062 34.1709C120.156 34.109 120.261 34.0682 120.372 34.0512C120.424 34.0464 120.477 34.0464 120.529 34.0512C120.767 34.0588 120.997 34.1399 121.187 34.2835C121.378 34.4271 121.519 34.6261 121.591 34.8532C121.631 34.9705 121.645 35.0948 121.632 35.2179C121.62 35.3409 121.582 35.46 121.52 35.5671Z" fill="white"/>
<path d="M124.415 33.3503C124.468 33.3456 124.521 33.3456 124.574 33.3503C124.729 33.3542 124.882 33.3901 125.022 33.4557C125.162 33.5214 125.287 33.6153 125.389 33.7318V33.4775C125.254 33.3617 125.095 33.276 124.923 33.226C124.752 33.176 124.572 33.1628 124.395 33.1873C124.261 33.2098 124.134 33.2607 124.021 33.3366C123.909 33.4125 123.814 33.5117 123.743 33.6274C123.667 33.7576 123.619 33.9027 123.603 34.0528C123.588 34.2029 123.604 34.3546 123.652 34.4979C123.737 34.7614 123.901 34.9922 124.122 35.1586C124.343 35.3249 124.611 35.4187 124.887 35.427C124.95 35.4264 125.012 35.4209 125.073 35.4107C125.233 35.3826 125.383 35.3154 125.51 35.2151C125.51 35.1401 125.51 35.0684 125.494 34.9934C125.374 35.1229 125.215 35.2089 125.041 35.2379C124.777 35.2695 124.51 35.2076 124.287 35.0628C124.065 34.918 123.9 34.6996 123.821 34.4457C123.78 34.327 123.766 34.2009 123.778 34.076C123.79 33.9511 123.83 33.8303 123.893 33.722C123.948 33.6263 124.024 33.5437 124.114 33.4796C124.204 33.4155 124.306 33.3714 124.415 33.3503Z" fill="white"/>
<path d="M110.247 42.5957C110.381 42.5725 110.508 42.5209 110.621 42.4444C110.733 42.368 110.828 42.2684 110.899 42.1523C110.975 42.0222 111.023 41.877 111.038 41.7268C111.053 41.5765 111.036 41.4248 110.987 41.2819C110.896 40.9871 110.704 40.7339 110.444 40.5674C110.185 40.4009 109.874 40.3318 109.569 40.3724H109.552V40.5549H109.598C109.651 40.55 109.704 40.55 109.758 40.5549C109.996 40.5629 110.226 40.6446 110.416 40.7889C110.605 40.9331 110.746 41.1327 110.817 41.3602C110.858 41.4787 110.873 41.6046 110.861 41.7294C110.849 41.8542 110.811 41.9751 110.749 42.0839C110.69 42.1793 110.611 42.2608 110.518 42.3228C110.424 42.3847 110.318 42.4255 110.208 42.4425C110.03 42.4714 109.849 42.4511 109.683 42.3838L109.741 42.5859C109.842 42.6154 109.946 42.6308 110.051 42.6316C110.117 42.6251 110.183 42.6131 110.247 42.5957Z" fill="white"/>
<path d="M113.624 39.6714C113.49 39.6938 113.363 39.7447 113.25 39.8207C113.138 39.8966 113.043 39.9958 112.972 40.1115C112.897 40.2422 112.85 40.3873 112.835 40.5373C112.82 40.6873 112.837 40.8388 112.884 40.9819C112.969 41.2402 113.132 41.4663 113.349 41.63C113.566 41.7937 113.828 41.8872 114.1 41.898C114.162 41.8974 114.224 41.8919 114.286 41.8817C114.42 41.8596 114.547 41.8089 114.66 41.7329C114.773 41.657 114.867 41.5576 114.938 41.4416C115.015 41.3117 115.063 41.1666 115.079 41.0164C115.095 40.8661 115.078 40.7142 115.029 40.5711C114.937 40.2806 114.746 40.0315 114.489 39.8671C114.233 39.7028 113.927 39.6335 113.624 39.6714ZM114.873 40.6494C114.914 40.7686 114.929 40.8952 114.916 41.0207C114.904 41.1462 114.865 41.2675 114.801 41.3764C114.742 41.4709 114.663 41.5517 114.571 41.6136C114.478 41.6754 114.373 41.7168 114.263 41.735C114 41.7668 113.733 41.7053 113.511 41.5611C113.288 41.417 113.123 41.1994 113.044 40.946C113.003 40.827 112.988 40.7005 113 40.5752C113.012 40.4498 113.05 40.3284 113.112 40.2191C113.171 40.1236 113.25 40.0421 113.343 39.9802C113.437 39.9182 113.543 39.8774 113.653 39.8605C113.706 39.8556 113.758 39.8556 113.81 39.8605C114.045 39.8659 114.272 39.9427 114.462 40.0808C114.652 40.2188 114.795 40.4115 114.873 40.6331V40.6494Z" fill="white"/>
<path d="M118.338 41.1906C118.472 41.1681 118.599 41.1172 118.712 41.0413C118.824 40.9654 118.919 40.8662 118.99 40.7505C119.066 40.6203 119.114 40.4752 119.13 40.3251C119.145 40.175 119.129 40.0233 119.081 39.88C118.988 39.5861 118.795 39.3341 118.535 39.1674C118.276 39.0008 117.966 38.93 117.66 38.9672C117.526 38.9897 117.399 39.0406 117.286 39.1165C117.174 39.1925 117.079 39.2916 117.008 39.4073C116.931 39.5375 116.884 39.6827 116.869 39.8329C116.853 39.9832 116.871 40.1349 116.92 40.2778C117.004 40.5413 117.167 40.7723 117.388 40.9387C117.609 41.1052 117.876 41.1989 118.152 41.2069C118.214 41.2063 118.277 41.2008 118.338 41.1906ZM117.086 40.2126C117.045 40.0934 117.03 39.9667 117.043 39.8413C117.055 39.7158 117.094 39.5945 117.158 39.4856C117.217 39.391 117.296 39.3104 117.39 39.249C117.483 39.1877 117.589 39.1472 117.699 39.1302C117.751 39.12 117.803 39.1145 117.856 39.114C118.094 39.1222 118.324 39.204 118.515 39.3481C118.705 39.4923 118.846 39.6917 118.918 39.9192C118.96 40.0383 118.974 40.165 118.962 40.2905C118.95 40.416 118.91 40.5373 118.847 40.6461C118.787 40.7403 118.709 40.8208 118.616 40.8821C118.523 40.9433 118.418 40.9841 118.309 41.0015C118.046 41.0355 117.78 40.9765 117.557 40.8348C117.334 40.693 117.167 40.4775 117.086 40.2256V40.2126Z" fill="white"/>
<path d="M121.054 38.7064C120.977 38.8366 120.93 38.9816 120.914 39.1318C120.898 39.2819 120.915 39.4336 120.962 39.5768C121.047 39.84 121.212 40.0704 121.433 40.2362C121.654 40.402 121.922 40.4951 122.198 40.5027C122.259 40.5077 122.32 40.5077 122.381 40.5027C122.514 40.4802 122.642 40.4293 122.754 40.3534C122.867 40.2775 122.962 40.1783 123.033 40.0626C123.108 39.9313 123.154 39.7856 123.169 39.6351C123.185 39.4846 123.168 39.3326 123.121 39.1889C123.03 38.8941 122.838 38.6409 122.578 38.4744C122.318 38.3079 122.008 38.2388 121.702 38.2794C121.57 38.3007 121.444 38.3498 121.332 38.4235C121.221 38.4971 121.126 38.5935 121.054 38.7064ZM121.901 38.4261C122.14 38.4335 122.37 38.5151 122.56 38.6594C122.75 38.8037 122.89 39.0036 122.961 39.2313C123.002 39.3472 123.018 39.4704 123.008 39.5929C122.997 39.7154 122.962 39.8344 122.902 39.942C122.843 40.0374 122.764 40.1189 122.671 40.1809C122.578 40.2428 122.472 40.2836 122.361 40.3006C122.097 40.3337 121.831 40.2727 121.607 40.1284C121.384 39.9841 121.219 39.7657 121.142 39.5116C121.101 39.3925 121.086 39.2658 121.098 39.1403C121.11 39.0148 121.15 38.8935 121.213 38.7847C121.273 38.6901 121.351 38.6093 121.444 38.5475C121.537 38.4856 121.641 38.4443 121.751 38.4261C121.801 38.4218 121.851 38.4218 121.901 38.4261Z" fill="white"/>
<path d="M126.058 39.6161C125.854 39.5764 125.665 39.4828 125.51 39.3452C125.356 39.2076 125.241 39.0309 125.177 38.8337C125.136 38.7145 125.121 38.5878 125.134 38.4623C125.146 38.3368 125.185 38.2155 125.249 38.1067C125.306 38.0133 125.382 37.9332 125.473 37.8719C125.563 37.8106 125.666 37.7695 125.774 37.7513C125.774 37.6927 125.758 37.634 125.751 37.5753C125.617 37.5982 125.49 37.6492 125.378 37.7251C125.265 37.801 125.17 37.9 125.099 38.0154C125.024 38.1461 124.977 38.2912 124.962 38.4412C124.947 38.5912 124.964 38.7427 125.011 38.8858C125.089 39.1235 125.231 39.3348 125.423 39.496C125.614 39.6572 125.846 39.762 126.093 39.7986C126.08 39.7269 126.067 39.6682 126.058 39.6161Z" fill="white"/>
<path d="M112.369 45.6731C112.299 45.46 112.177 45.2676 112.015 45.1134C111.852 44.9591 111.653 44.8479 111.437 44.7897C111.437 44.8484 111.437 44.9103 111.437 44.9722C111.613 45.0288 111.774 45.1266 111.906 45.2575C112.037 45.3885 112.136 45.5488 112.193 45.7253C112.239 45.8443 112.258 45.9718 112.25 46.0991C112.241 46.2263 112.205 46.3502 112.144 46.4621C112.039 46.6252 111.876 46.7419 111.688 46.7881L111.717 46.9641C111.956 46.9052 112.163 46.7556 112.294 46.5468C112.368 46.415 112.413 46.2688 112.426 46.1181C112.439 45.9674 112.419 45.8157 112.369 45.6731Z" fill="white"/>
<path d="M115.661 46.2795C115.795 46.257 115.923 46.2061 116.035 46.1302C116.148 46.0543 116.242 45.9551 116.313 45.8394C116.389 45.7087 116.435 45.5636 116.45 45.4136C116.466 45.2636 116.449 45.1121 116.401 44.969C116.311 44.6741 116.119 44.421 115.859 44.2545C115.599 44.0879 115.289 44.0188 114.983 44.0594C114.849 44.0819 114.722 44.1328 114.61 44.2087C114.497 44.2847 114.402 44.3838 114.331 44.4995C114.254 44.6294 114.206 44.7745 114.19 44.9248C114.175 45.075 114.191 45.2269 114.24 45.37C114.325 45.6331 114.489 45.8635 114.711 46.0293C114.932 46.1951 115.199 46.2882 115.476 46.2958C115.538 46.2973 115.6 46.2918 115.661 46.2795ZM114.426 45.3178C114.385 45.1986 114.37 45.0719 114.382 44.9465C114.394 44.821 114.434 44.6996 114.498 44.5908C114.557 44.4963 114.635 44.4155 114.728 44.3536C114.821 44.2918 114.925 44.2504 115.035 44.2322C115.089 44.2274 115.142 44.2274 115.195 44.2322C115.433 44.2398 115.664 44.3209 115.854 44.4645C116.044 44.6081 116.185 44.8071 116.258 45.0342C116.298 45.1535 116.313 45.2801 116.3 45.4054C116.288 45.5308 116.249 45.652 116.186 45.7612C116.127 45.8566 116.049 45.9381 115.955 46.0001C115.862 46.062 115.756 46.1028 115.645 46.1198C115.38 46.1515 115.112 46.0885 114.889 45.9417C114.666 45.7949 114.502 45.5739 114.426 45.3178Z" fill="white"/>
<path d="M119.521 45.5948C119.584 45.5943 119.646 45.5888 119.707 45.5785C119.841 45.5561 119.968 45.5052 120.081 45.4293C120.193 45.3533 120.288 45.2542 120.359 45.1384C120.434 45.0077 120.481 44.8626 120.496 44.7126C120.511 44.5626 120.494 44.4111 120.447 44.268C120.357 43.9726 120.165 43.7187 119.906 43.5515C119.646 43.3844 119.335 43.3148 119.029 43.3552C118.895 43.3785 118.768 43.43 118.655 43.5065C118.543 43.5829 118.448 43.6825 118.377 43.7986C118.3 43.9287 118.253 44.0739 118.238 44.2242C118.223 44.3744 118.24 44.5262 118.289 44.669C118.374 44.9317 118.538 45.1617 118.758 45.3274C118.979 45.4932 119.245 45.5866 119.521 45.5948ZM118.543 43.8899C118.601 43.7942 118.679 43.7125 118.772 43.6505C118.865 43.5885 118.971 43.5478 119.081 43.5313C119.134 43.5263 119.188 43.5263 119.241 43.5313C119.479 43.539 119.708 43.6203 119.898 43.7639C120.088 43.9075 120.228 44.1064 120.3 44.3332C120.342 44.4524 120.357 44.5791 120.344 44.7046C120.332 44.8301 120.292 44.9514 120.229 45.0602C120.17 45.155 120.092 45.2361 119.999 45.2979C119.906 45.3598 119.801 45.401 119.691 45.4188C119.427 45.4505 119.16 45.3885 118.938 45.2437C118.715 45.0989 118.55 44.8805 118.472 44.6266C118.427 44.507 118.409 44.379 118.419 44.2517C118.429 44.1244 118.467 44.0008 118.53 43.8899H118.543Z" fill="white"/>
<path d="M124.412 44.4376C124.488 44.3074 124.536 44.1624 124.551 44.0122C124.567 43.8621 124.551 43.7104 124.503 43.5672C124.413 43.2711 124.22 43.0167 123.96 42.8495C123.7 42.6823 123.388 42.6131 123.082 42.6544C122.948 42.6768 122.82 42.7277 122.708 42.8036C122.595 42.8796 122.5 42.9787 122.43 43.0945C122.354 43.2249 122.307 43.3701 122.292 43.5202C122.276 43.6703 122.293 43.8219 122.342 43.9649C122.426 44.2281 122.589 44.4589 122.81 44.6253C123.031 44.7916 123.298 44.8855 123.574 44.894C123.636 44.8934 123.698 44.888 123.76 44.8777C123.893 44.8552 124.021 44.8043 124.133 44.7284C124.246 44.6525 124.341 44.5533 124.412 44.4376ZM123.724 44.7016C123.46 44.7343 123.193 44.6732 122.969 44.529C122.746 44.3848 122.58 44.1667 122.501 43.9127C122.464 43.7955 122.451 43.6718 122.464 43.5495C122.477 43.4271 122.515 43.3088 122.576 43.202C122.636 43.1075 122.715 43.0268 122.808 42.9655C122.902 42.9042 123.007 42.8637 123.117 42.8467C123.169 42.8364 123.221 42.831 123.274 42.8304C123.512 42.8386 123.743 42.9204 123.933 43.0646C124.123 43.2087 124.264 43.4082 124.337 43.6356C124.378 43.7548 124.393 43.8815 124.38 44.007C124.368 44.1325 124.329 44.2538 124.265 44.3626C124.204 44.4544 124.124 44.5322 124.031 44.5906C123.938 44.6491 123.833 44.687 123.724 44.7016Z" fill="white"/>
<path d="M126.961 43.9942C126.941 43.9094 126.918 43.8247 126.899 43.7367C126.735 43.5981 126.613 43.4163 126.547 43.2118C126.506 43.0932 126.491 42.967 126.503 42.8421C126.515 42.7171 126.555 42.5963 126.619 42.4881L126.57 42.2631C126.532 42.3031 126.498 42.3468 126.469 42.3935C126.392 42.5237 126.344 42.6687 126.329 42.8188C126.313 42.969 126.329 43.1208 126.377 43.264C126.478 43.5694 126.685 43.8285 126.961 43.9942Z" fill="white"/>
<path d="M112.989 51.3716C113.122 51.3491 113.25 51.2982 113.362 51.2223C113.475 51.1464 113.57 51.0472 113.641 50.9315C113.716 50.8007 113.762 50.6556 113.777 50.5056C113.792 50.3557 113.776 50.2042 113.729 50.061C113.639 49.7656 113.447 49.5117 113.187 49.3445C112.927 49.1774 112.617 49.1078 112.31 49.1482C112.258 49.1589 112.207 49.1731 112.157 49.1906L112.196 49.3634C112.243 49.3454 112.291 49.3323 112.34 49.3243C112.393 49.3193 112.446 49.3193 112.5 49.3243C112.737 49.332 112.967 49.4133 113.157 49.5569C113.346 49.7005 113.487 49.8994 113.559 50.1262C113.6 50.2454 113.615 50.3721 113.603 50.4976C113.59 50.6231 113.551 50.7444 113.487 50.8532C113.429 50.948 113.35 51.0291 113.257 51.0909C113.164 51.1528 113.06 51.194 112.949 51.2118C112.852 51.2266 112.753 51.2266 112.656 51.2118L112.705 51.3911H112.793C112.859 51.39 112.924 51.3835 112.989 51.3716Z" fill="white"/>
<path d="M115.704 48.8875C115.629 49.0182 115.582 49.1633 115.567 49.3133C115.552 49.4633 115.568 49.6148 115.616 49.7579C115.7 50.0212 115.864 50.2519 116.084 50.4183C116.305 50.5847 116.572 50.6785 116.848 50.687C116.91 50.6864 116.972 50.681 117.034 50.6707C117.168 50.6487 117.295 50.5979 117.408 50.522C117.521 50.446 117.615 50.3466 117.686 50.2306C117.762 50.1004 117.81 49.9554 117.826 49.8053C117.841 49.6551 117.825 49.5034 117.777 49.3602C117.684 49.0665 117.492 48.8145 117.233 48.6479C116.974 48.4812 116.665 48.4102 116.359 48.4474C116.225 48.4694 116.097 48.5201 115.983 48.596C115.87 48.672 115.775 48.7714 115.704 48.8875ZM116.551 48.6071C116.79 48.6153 117.02 48.6971 117.21 48.8413C117.401 48.9854 117.542 49.1849 117.614 49.4123C117.655 49.531 117.67 49.6571 117.657 49.782C117.645 49.907 117.606 50.0277 117.542 50.1361C117.484 50.2314 117.406 50.3129 117.313 50.3749C117.22 50.4368 117.115 50.4777 117.004 50.4947C116.741 50.5273 116.474 50.4662 116.25 50.322C116.027 50.1778 115.861 49.9597 115.782 49.7057C115.742 49.5864 115.727 49.4599 115.74 49.3345C115.752 49.2092 115.791 49.0879 115.854 48.9788C115.913 48.8842 115.993 48.8033 116.086 48.7415C116.179 48.6797 116.284 48.6383 116.395 48.6202C116.447 48.6126 116.499 48.6082 116.551 48.6071Z" fill="white"/>
<path d="M120.894 49.9829C120.956 49.9839 121.019 49.9784 121.08 49.9666C121.214 49.9441 121.341 49.8932 121.454 49.8173C121.566 49.7413 121.661 49.6422 121.732 49.5264C121.808 49.3963 121.856 49.2513 121.872 49.1011C121.888 48.951 121.871 48.7992 121.823 48.656C121.73 48.3624 121.536 48.1107 121.277 47.9446C121.017 47.7784 120.708 47.7084 120.402 47.7465C120.268 47.7689 120.141 47.8199 120.028 47.8958C119.916 47.9717 119.821 48.0709 119.75 48.1866C119.673 48.3167 119.626 48.4618 119.61 48.6119C119.594 48.7621 119.611 48.9138 119.659 49.057C119.744 49.3197 119.909 49.5495 120.13 49.7152C120.351 49.8809 120.618 49.9744 120.894 49.9829ZM119.916 48.2779C119.974 48.1828 120.053 48.1015 120.146 48.0396C120.239 47.9777 120.344 47.9367 120.454 47.9193C120.507 47.9146 120.561 47.9146 120.614 47.9193C120.852 47.9268 121.082 48.0079 121.272 48.1515C121.463 48.2951 121.604 48.4942 121.676 48.7212C121.718 48.8404 121.733 48.9671 121.72 49.0926C121.708 49.2181 121.668 49.3394 121.605 49.4482C121.546 49.5433 121.468 49.6246 121.375 49.6865C121.282 49.7484 121.177 49.7894 121.067 49.8068C120.803 49.8388 120.536 49.7774 120.313 49.6333C120.09 49.4892 119.924 49.2715 119.844 49.0179C119.799 48.898 119.78 48.7696 119.79 48.6417C119.799 48.5138 119.837 48.3896 119.9 48.2779H119.916Z" fill="white"/>
<path d="M124.936 49.2819C124.999 49.2815 125.061 49.2761 125.122 49.2656C125.256 49.2432 125.383 49.1923 125.496 49.1163C125.608 49.0404 125.703 48.9412 125.774 48.8255C125.851 48.6954 125.898 48.5502 125.913 48.4C125.929 48.2497 125.911 48.0979 125.862 47.9551C125.772 47.6597 125.58 47.4058 125.32 47.2386C125.061 47.0714 124.75 47.0019 124.444 47.0423C124.31 47.0643 124.182 47.1151 124.07 47.1911C123.957 47.267 123.863 47.3664 123.792 47.4824C123.716 47.6126 123.668 47.7576 123.652 47.9077C123.637 48.0579 123.653 48.2096 123.701 48.3528C123.785 48.6166 123.949 48.8477 124.171 49.0141C124.392 49.1806 124.659 49.2741 124.936 49.2819ZM123.958 47.5769C124.016 47.4816 124.095 47.4001 124.188 47.3381C124.28 47.2762 124.386 47.2353 124.496 47.2183C124.549 47.2134 124.603 47.2134 124.656 47.2183C124.894 47.2261 125.123 47.3073 125.313 47.451C125.503 47.5946 125.643 47.7935 125.715 48.0203C125.757 48.1392 125.773 48.2658 125.761 48.3913C125.749 48.5168 125.71 48.6382 125.647 48.7473C125.587 48.8419 125.508 48.9228 125.415 48.9846C125.321 49.0464 125.216 49.0877 125.106 49.1059C124.842 49.1375 124.575 49.0756 124.353 48.9308C124.13 48.786 123.965 48.5676 123.887 48.3137C123.842 48.1941 123.824 48.0661 123.834 47.9388C123.844 47.8115 123.882 47.6879 123.945 47.5769H123.958Z" fill="white"/>
<path d="M127.737 47.0358C127.678 47.237 127.678 47.4507 127.737 47.6519C127.794 47.8314 127.889 47.9962 128.017 48.1344C127.939 47.7856 127.838 47.4205 127.737 47.0358Z" fill="white"/>
<path d="M113.689 53.5395C113.573 53.5604 113.463 53.6036 113.363 53.6667C113.38 53.7221 113.396 53.784 113.415 53.8394C113.513 53.772 113.624 53.7285 113.741 53.7123C113.793 53.7075 113.846 53.7075 113.898 53.7123C114.136 53.7198 114.366 53.801 114.557 53.9446C114.747 54.0882 114.888 54.2872 114.961 54.5143C115.014 54.6895 115.014 54.8769 114.961 55.0522H115.137C115.19 54.858 115.19 54.653 115.137 54.4588C115.047 54.1565 114.851 53.8968 114.585 53.7278C114.319 53.5588 114.001 53.4919 113.689 53.5395Z" fill="white"/>
<path d="M118.856 54.612L119.094 54.5631C119.157 54.44 119.194 54.3057 119.204 54.168C119.214 54.0304 119.197 53.8921 119.153 53.7612C119.063 53.4657 118.871 53.2118 118.611 53.0447C118.352 52.8775 118.041 52.8079 117.735 52.8484C117.601 52.8708 117.474 52.9217 117.361 52.9976C117.249 53.0736 117.154 53.1727 117.083 53.2885C117.007 53.4187 116.959 53.5637 116.943 53.7138C116.928 53.8639 116.944 54.0157 116.992 54.1589C117.084 54.439 117.265 54.6816 117.507 54.85L117.781 54.8076C117.635 54.7397 117.504 54.6423 117.398 54.5217C117.291 54.4011 117.211 54.2599 117.161 54.1067C117.12 53.9875 117.105 53.8609 117.118 53.7354C117.13 53.61 117.169 53.4886 117.233 53.3797C117.292 53.2853 117.37 53.2046 117.463 53.1433C117.556 53.082 117.661 53.0414 117.771 53.0244C117.824 53.0196 117.877 53.0196 117.931 53.0244C118.169 53.0319 118.399 53.1131 118.589 53.2567C118.78 53.4003 118.921 53.5993 118.993 53.8264C119.034 53.9457 119.048 54.0722 119.036 54.1976C119.023 54.3229 118.985 54.4442 118.922 54.5533C118.901 54.5744 118.88 54.594 118.856 54.612Z" fill="white"/>
<path d="M123.248 53.4449C123.255 53.3094 123.239 53.1736 123.199 53.0439C123.108 52.7491 122.916 52.4959 122.656 52.3294C122.397 52.1629 122.086 52.0938 121.781 52.1344C121.647 52.1569 121.519 52.2078 121.407 52.2837C121.294 52.3596 121.199 52.4588 121.129 52.5745C121.054 52.7053 121.007 52.8504 120.992 53.0003C120.977 53.1503 120.993 53.3018 121.041 53.4449C121.11 53.6572 121.231 53.8489 121.393 54.0024L121.598 53.96C121.416 53.8183 121.281 53.6252 121.21 53.4058C121.164 53.2841 121.145 53.1536 121.156 53.0239C121.167 52.8942 121.206 52.7685 121.272 52.656C121.331 52.5612 121.409 52.4802 121.502 52.4183C121.595 52.3564 121.7 52.3152 121.81 52.2974C121.862 52.2942 121.914 52.2942 121.966 52.2974C122.205 52.3052 122.435 52.3868 122.626 52.531C122.816 52.6752 122.957 52.8749 123.029 53.1026C123.071 53.232 123.084 53.3687 123.068 53.5036L123.248 53.4449Z" fill="white"/>
<path d="M125.836 51.4335C125.702 51.4559 125.575 51.5068 125.462 51.5828C125.35 51.6587 125.255 51.7579 125.184 51.8736C125.109 52.0043 125.062 52.1494 125.047 52.2994C125.032 52.4494 125.048 52.6009 125.096 52.744C125.101 52.7608 125.108 52.7772 125.116 52.7929L125.282 52.731L125.262 52.6918C125.221 52.5727 125.206 52.446 125.219 52.3205C125.231 52.195 125.27 52.0737 125.334 51.9649C125.393 51.8694 125.472 51.7879 125.565 51.726C125.659 51.664 125.764 51.6232 125.875 51.6063C125.927 51.6014 125.98 51.6014 126.032 51.6063C126.205 51.6111 126.375 51.6557 126.529 51.7365C126.683 51.8173 126.816 51.9322 126.918 52.0724L127.081 52.0007C126.947 51.8001 126.759 51.6408 126.539 51.5406C126.319 51.4405 126.076 51.4034 125.836 51.4335Z" fill="white"/>
</g>
<path d="M126.393 32.3626C126.661 32.5484 126.863 32.6886 127.091 32.8581C127.319 33.0277 127.525 33.1841 127.743 33.3504C128.17 33.6764 128.581 34.035 128.988 34.3903C129.813 35.1157 130.591 35.8932 131.316 36.718C131.681 37.1385 132.04 37.5786 132.382 38.0415C132.729 38.5202 133.051 39.0176 133.344 39.5314C134.031 40.6838 134.454 41.9742 134.582 43.3097V43.4466C134.597 43.6229 134.582 43.8004 134.537 43.9715C134.313 44.7843 133.984 45.5645 133.559 46.2926C133.186 46.9468 132.767 47.5733 132.304 48.1671C131.859 48.7393 131.386 49.2888 130.886 49.8134C130.388 50.3371 129.86 50.8313 129.305 51.2934C129.089 51.4687 128.82 51.5648 128.543 51.5656C128.265 51.5665 127.995 51.472 127.779 51.2979C127.563 51.1239 127.412 50.8809 127.354 50.6095C127.295 50.3381 127.331 50.0548 127.456 49.8069L127.482 49.758L128.379 48.0106C128.672 47.4271 128.959 46.8501 129.217 46.273C129.474 45.696 129.715 45.1255 129.911 44.5778C130.093 44.0926 130.22 43.5885 130.289 43.075L130.253 43.727C130.091 43.0715 129.809 42.4516 129.422 41.8981C128.935 41.1939 128.39 40.5319 127.792 39.9193C127.169 39.2673 126.488 38.6414 125.794 38.0383C125.445 37.7318 125.083 37.4384 124.724 37.1418L124.18 36.7115C124.004 36.5713 123.802 36.4181 123.661 36.3137L123.609 36.2746C123.121 35.8927 122.799 35.337 122.71 34.7234C122.622 34.1099 122.773 33.4857 123.134 32.9812C123.494 32.4767 124.035 32.1308 124.644 32.0155C125.253 31.9003 125.883 32.0246 126.403 32.3626H126.393Z" fill="#7F3E3B"/>
<path d="M117.48 31.3585C118.116 33.797 123.808 37.3569 123.808 37.3569C123.808 37.3569 128.473 35.7269 128.793 33.4612C128.284 32.6821 126.648 30.4946 124.392 29.7905C122.38 29.1613 119.316 29.233 117.48 31.3585Z" fill="#263238"/>
<g opacity="0.4">
<path d="M117.523 31.3129C117.615 31.2465 117.719 31.1999 117.829 31.176C117.896 31.1603 117.963 31.1527 118.032 31.1531C118.262 31.1594 118.486 31.2345 118.673 31.3687C118.861 31.5028 119.004 31.69 119.084 31.9062C119.132 32.0227 119.153 32.1481 119.147 32.2736C119.141 32.3992 119.107 32.5219 119.049 32.6332C118.995 32.7312 118.92 32.8164 118.83 32.8828C118.74 32.9493 118.637 32.9953 118.527 33.0178H118.475L118.605 33.1711C118.731 33.1393 118.849 33.0821 118.953 33.0031C119.056 32.924 119.142 32.8248 119.205 32.7114C119.275 32.5776 119.315 32.4303 119.323 32.2795C119.331 32.1288 119.306 31.9781 119.251 31.8377C119.148 31.5525 118.948 31.3122 118.687 31.1581C118.426 31.004 118.119 30.9457 117.82 30.9934C117.719 31.0977 117.621 31.202 117.523 31.3129Z" fill="white"/>
<path d="M121.797 30.1099C121.663 30.137 121.537 30.1931 121.427 30.2742C121.317 30.3553 121.227 30.4595 121.161 30.5794C121.091 30.713 121.051 30.8602 121.042 31.0109C121.034 31.1616 121.058 31.3124 121.112 31.453C121.206 31.7033 121.373 31.9199 121.591 32.0749C121.809 32.23 122.068 32.3165 122.335 32.3235C122.415 32.3228 122.495 32.3141 122.573 32.2974C122.709 32.2694 122.837 32.2128 122.95 32.1312C123.062 32.0497 123.156 31.9452 123.225 31.8247C123.295 31.6908 123.335 31.5435 123.342 31.3928C123.35 31.2421 123.326 31.0914 123.271 30.951C123.166 30.6581 122.96 30.4123 122.689 30.258C122.419 30.1038 122.103 30.0513 121.797 30.1099ZM123.101 31.0129C123.148 31.1295 123.169 31.2548 123.163 31.3804C123.157 31.5059 123.124 31.6286 123.065 31.7399C123.011 31.8376 122.936 31.9224 122.846 31.9888C122.756 32.0552 122.653 32.1015 122.544 32.1246C122.282 32.1688 122.013 32.12 121.784 31.9866C121.555 31.8532 121.379 31.6436 121.288 31.3944C121.241 31.2773 121.22 31.1514 121.226 31.0253C121.233 30.8992 121.266 30.776 121.324 30.6641C121.379 30.5665 121.453 30.4816 121.543 30.4152C121.633 30.3489 121.737 30.3026 121.846 30.2794C121.913 30.2665 121.98 30.2599 122.048 30.2599C122.277 30.2672 122.499 30.3428 122.685 30.477C122.871 30.6112 123.012 30.7978 123.091 31.0129H123.101Z" fill="white"/>
<path d="M125.119 30.5598C125.213 30.8098 125.38 31.0258 125.598 31.1804C125.815 31.3349 126.074 31.4208 126.341 31.427C126.422 31.4281 126.501 31.4193 126.579 31.4009C126.695 31.3765 126.805 31.3324 126.905 31.2705L126.762 31.1499C126.696 31.1846 126.626 31.2109 126.553 31.2281C126.292 31.273 126.023 31.2245 125.793 31.091C125.564 30.9575 125.389 30.7475 125.298 30.4979C125.254 30.3791 125.233 30.2529 125.236 30.1263L125.07 30.0513C125.048 30.2223 125.065 30.3962 125.119 30.5598Z" fill="white"/>
<path d="M123.378 34.4262C123.241 34.4522 123.112 34.508 122.999 34.5897C122.887 34.6714 122.793 34.777 122.726 34.8989C122.655 35.0323 122.614 35.1795 122.606 35.3304C122.597 35.4812 122.622 35.6321 122.677 35.7726C122.772 36.0223 122.939 36.2381 123.156 36.3926C123.374 36.547 123.633 36.6331 123.9 36.6398C123.98 36.6409 124.06 36.6321 124.138 36.6137C124.274 36.5879 124.403 36.5325 124.516 36.4514C124.628 36.3703 124.722 36.2654 124.79 36.1443C124.859 36.0103 124.899 35.8632 124.908 35.7126C124.916 35.5621 124.893 35.4114 124.839 35.2706C124.735 34.9796 124.531 34.7351 124.263 34.5804C123.996 34.4258 123.682 34.3711 123.378 34.4262ZM124.682 35.3293C124.728 35.4468 124.748 35.5727 124.741 35.6986C124.735 35.8245 124.701 35.9476 124.643 36.0595C124.59 36.1576 124.515 36.2428 124.425 36.3087C124.335 36.3747 124.231 36.4198 124.121 36.4409C123.86 36.4851 123.591 36.4363 123.362 36.3029C123.132 36.1695 122.957 35.9599 122.866 35.7107C122.819 35.5942 122.798 35.4688 122.804 35.3432C122.81 35.2177 122.844 35.095 122.902 34.9837C122.957 34.886 123.031 34.8012 123.121 34.7348C123.211 34.6684 123.314 34.6221 123.424 34.599C123.491 34.5834 123.56 34.5757 123.629 34.5762C123.858 34.5848 124.079 34.6609 124.265 34.7949C124.45 34.9289 124.592 35.1148 124.672 35.3293H124.682Z" fill="white"/>
<path d="M127.384 33.533C127.248 33.5583 127.119 33.6136 127.006 33.6947C126.893 33.7759 126.8 33.8809 126.732 34.0024C126.662 34.1358 126.62 34.283 126.612 34.4339C126.604 34.5847 126.628 34.7356 126.684 34.8761C126.791 35.1567 126.988 35.3939 127.244 35.5509L127.394 35.4336C127.144 35.3013 126.95 35.0822 126.85 34.8174C126.803 34.7003 126.782 34.5744 126.788 34.4484C126.794 34.3223 126.827 34.1991 126.886 34.0872C126.94 33.9896 127.014 33.9049 127.104 33.8391C127.195 33.7732 127.298 33.7277 127.407 33.7058C127.475 33.6901 127.544 33.6825 127.613 33.6829C127.793 33.6882 127.97 33.7358 128.128 33.8219C128.287 33.9079 128.423 34.0301 128.525 34.1785C128.558 34.123 128.587 34.0644 128.617 34.0024C128.472 33.8217 128.281 33.683 128.064 33.6005C127.848 33.5179 127.613 33.4946 127.384 33.533Z" fill="white"/>
</g>
<path d="M114.534 34.7261C114.534 34.7261 117.389 32.8288 119.134 34.1687C122.195 29.9665 120.565 28.8092 119.821 29.8231C117.08 30.9022 114.534 34.7261 114.534 34.7261Z" fill="white"/>
<path d="M114.534 34.7261C114.534 34.7261 112.858 33.8622 112.33 34.6218C112.079 32.0562 113.194 31 113.689 31.3455C113.503 32.0529 114.534 34.7261 114.534 34.7261Z" fill="white"/>
<path d="M118.377 23.1238C118.377 25.145 118.667 28.3659 119.821 29.8361C118.275 31.6858 116.498 33.3293 114.534 34.7261C113.331 32.5876 113.689 31.3455 113.689 31.3455C115.098 30.6283 114.889 28.7538 114.54 27.339L118.377 23.1238Z" fill="#7F3E3B"/>
<path opacity="0.2" d="M114.54 27.352L116.708 24.9461C116.831 25.3402 116.847 25.7595 116.757 26.1621C116.46 27.326 115.761 28.3477 114.785 29.0472C114.762 28.4752 114.68 27.9071 114.54 27.352Z" fill="black"/>
<path d="M118.765 19.3292C118.765 22.6087 118.853 23.9942 117.34 25.7775C115.058 28.4572 111.114 27.7335 110.142 24.5321C109.265 21.6405 109.389 16.7636 112.441 15.2607C115.492 13.7578 118.749 16.0464 118.765 19.3292Z" fill="#7F3E3B"/>
<path d="M116.61 15.7268C114.582 17.5916 116.753 20.3821 118.403 20.8907C120.052 21.3992 120.493 14.0773 116.61 15.7268Z" fill="#263238"/>
<path d="M118.012 15.6812C117.141 17.7187 109.389 16.6331 109.122 19.4596C108.659 15.2476 114.69 12.6136 118.012 15.6812Z" fill="#263238"/>
<path d="M114.181 20.7081C114.198 20.9754 114.071 21.2003 113.898 21.2101C113.725 21.2199 113.572 21.0145 113.552 20.7472C113.533 20.4799 113.663 20.2582 113.836 20.2484C114.009 20.2386 114.165 20.444 114.181 20.7081Z" fill="#263238"/>
<path d="M110.911 20.9689C110.931 21.2362 110.804 21.4611 110.628 21.4709C110.452 21.4807 110.302 21.2753 110.282 21.008C110.263 20.7407 110.393 20.519 110.566 20.506C110.739 20.4929 110.895 20.7081 110.911 20.9689Z" fill="#263238"/>
<path d="M110.644 20.5158L109.992 20.3756C109.992 20.3756 110.354 20.8515 110.644 20.5158Z" fill="#263238"/>
<path d="M111.727 20.9917C111.529 21.6134 111.246 22.2047 110.886 22.7488C111.028 22.8373 111.187 22.8937 111.354 22.914C111.52 22.9342 111.688 22.9179 111.847 22.8662L111.727 20.9917Z" fill="#630F0F"/>
<path d="M113.448 23.7497C113.303 23.7872 113.154 23.8101 113.005 23.8182C112.984 23.8191 112.965 23.8121 112.949 23.7987C112.934 23.7854 112.925 23.7666 112.923 23.7464C112.922 23.7362 112.923 23.7258 112.927 23.716C112.93 23.7061 112.935 23.697 112.941 23.6891C112.948 23.6812 112.956 23.6748 112.965 23.6701C112.975 23.6653 112.985 23.6625 112.995 23.6617C113.327 23.6476 113.65 23.5555 113.94 23.393C114.229 23.2304 114.476 23.0019 114.661 22.7261C114.672 22.7084 114.689 22.6956 114.709 22.6901C114.729 22.6847 114.75 22.687 114.768 22.6967C114.786 22.7076 114.799 22.7247 114.804 22.7447C114.81 22.7647 114.807 22.786 114.798 22.8043C114.488 23.2833 114.004 23.6225 113.448 23.7497Z" fill="#263238"/>
<path d="M119.753 22.1229C119.613 22.4438 119.406 22.7313 119.147 22.9667C118.888 23.2022 118.582 23.3801 118.25 23.4889C117.396 23.7334 116.965 22.801 117.197 21.8589C117.409 21.0015 118.103 19.8409 118.96 20.0202C119.818 20.1995 120.141 21.2786 119.753 22.1229Z" fill="#7F3E3B"/>
<path d="M114.683 18.8955C114.662 18.8952 114.641 18.89 114.622 18.8804C114.602 18.8708 114.586 18.8571 114.572 18.8401C114.449 18.6868 114.292 18.5645 114.113 18.483C113.934 18.4015 113.739 18.363 113.542 18.3707C113.521 18.373 113.499 18.3711 113.479 18.3651C113.458 18.3591 113.439 18.3491 113.422 18.3356C113.405 18.3221 113.391 18.3055 113.381 18.2866C113.37 18.2677 113.364 18.247 113.361 18.2256C113.359 18.2042 113.361 18.1825 113.367 18.1619C113.373 18.1412 113.383 18.1219 113.396 18.1051C113.41 18.0883 113.427 18.0743 113.445 18.0639C113.464 18.0536 113.485 18.047 113.506 18.0447C113.754 18.0303 114.002 18.0754 114.229 18.1764C114.456 18.2773 114.655 18.4311 114.81 18.625C114.836 18.6567 114.849 18.6973 114.845 18.7382C114.842 18.779 114.822 18.8168 114.791 18.8434C114.763 18.8743 114.725 18.8931 114.683 18.8955Z" fill="#263238"/>
<path d="M109.285 19.3389C109.245 19.3429 109.205 19.3312 109.174 19.3063C109.158 19.2933 109.144 19.2773 109.134 19.2591C109.124 19.2409 109.118 19.2209 109.116 19.2002C109.114 19.1796 109.116 19.1588 109.122 19.1389C109.128 19.1191 109.138 19.1006 109.151 19.0846C109.304 18.8866 109.502 18.7284 109.729 18.6235C109.956 18.5185 110.205 18.4698 110.455 18.4815C110.498 18.4859 110.538 18.5072 110.565 18.5408C110.593 18.5744 110.606 18.6176 110.602 18.6608C110.597 18.7041 110.576 18.7438 110.542 18.7713C110.509 18.7988 110.466 18.8119 110.422 18.8075C110.226 18.8024 110.031 18.8441 109.853 18.9291C109.676 19.0141 109.521 19.14 109.402 19.2965C109.387 19.3114 109.368 19.3229 109.348 19.3302C109.328 19.3375 109.306 19.3405 109.285 19.3389Z" fill="#263238"/>
<path d="M113.914 20.2615L113.262 20.118C113.262 20.118 113.624 20.594 113.914 20.2615Z" fill="#263238"/>
<path d="M127.883 49.2886L126.935 50.4165C126.621 50.7902 126.412 51.24 126.328 51.7205L126.24 52.2258C126.198 52.4653 126.24 52.712 126.358 52.9242C126.477 53.1363 126.666 53.3008 126.892 53.3897L128.076 53.8526C128.334 53.9523 128.622 53.9464 128.876 53.836C129.131 53.7256 129.331 53.5196 129.435 53.2625L129.644 52.7377C129.644 52.7377 130.693 50.8273 130.446 49.1517L129.989 49.0082C129.641 48.8884 129.269 48.8513 128.903 48.9C128.538 48.9486 128.189 49.0817 127.883 49.2886Z" fill="#7F3E3B"/>
</svg>
