<svg width="35" height="35" viewBox="0 0 35 35" fill="none" xmlns="http://www.w3.org/2000/svg">
<path opacity="0.4" d="M2.91675 18.7833V16.2166C2.91675 14.6999 4.15633 13.4458 5.68758 13.4458C8.32716 13.4458 9.40633 11.5791 8.07925 9.28951C7.32091 7.97701 7.773 6.27076 9.10008 5.51243L11.623 4.06868C12.7751 3.38326 14.2626 3.79159 14.948 4.94368L15.1084 5.22076C16.4209 7.51034 18.5792 7.51034 19.9063 5.22076L20.0667 4.94368C20.7522 3.79159 22.2397 3.38326 23.3917 4.06868L25.9147 5.51243C27.2417 6.27076 27.6938 7.97701 26.9355 9.28951C25.6084 11.5791 26.6876 13.4458 29.3272 13.4458C30.8438 13.4458 32.098 14.6853 32.098 16.2166V18.7833C32.098 20.2999 30.8584 21.5541 29.3272 21.5541C26.6876 21.5541 25.6084 23.4208 26.9355 25.7103C27.6938 27.0374 27.2417 28.7291 25.9147 29.4874L23.3917 30.9312C22.2397 31.6166 20.7522 31.2083 20.0667 30.0562L19.9063 29.7791C18.5938 27.4895 16.4355 27.4895 15.1084 29.7791L14.948 30.0562C14.2626 31.2083 12.7751 31.6166 11.623 30.9312L9.10008 29.4874C7.773 28.7291 7.32091 27.0228 8.07925 25.7103C9.40633 23.4208 8.32716 21.5541 5.68758 21.5541C4.15633 21.5541 2.91675 20.2999 2.91675 18.7833Z" fill="#0CAFF5"/>
<path d="M17.5001 22.2397C20.1177 22.2397 22.2397 20.1177 22.2397 17.5001C22.2397 14.8825 20.1177 12.7605 17.5001 12.7605C14.8825 12.7605 12.7605 14.8825 12.7605 17.5001C12.7605 20.1177 14.8825 22.2397 17.5001 22.2397Z" fill="#0CAFF5"/>
</svg>
