<svg width="35" height="35" viewBox="0 0 35 35" fill="none" xmlns="http://www.w3.org/2000/svg">
<path opacity="0.4" d="M24.8325 0H10.1675C3.7975 0 0 3.7975 0 10.1675V24.8325C0 31.2025 3.7975 35 10.1675 35H24.8325C31.2025 35 35 31.2025 35 24.8325V10.1675C35 3.7975 31.2025 0 24.8325 0Z" fill="#0CAFF5"/>
<path d="M28.5425 12.0225C28.5425 12.74 27.965 13.335 27.23 13.335H18.0425C17.325 13.335 16.73 12.74 16.73 12.0225C16.73 11.305 17.325 10.71 18.0425 10.71H27.23C27.965 10.71 28.5425 11.305 28.5425 12.0225Z" fill="#0CAFF5"/>
<path d="M13.9475 10.325L10.01 14.2625C9.74748 14.525 9.41498 14.6475 9.08248 14.6475C8.74998 14.6475 8.39998 14.525 8.15498 14.2625L6.84248 12.95C6.31748 12.4425 6.31748 11.6025 6.84248 11.095C7.34998 10.5875 8.17248 10.5875 8.69748 11.095L9.08248 11.48L12.0925 8.46998C12.6 7.96248 13.4225 7.96248 13.9475 8.46998C14.455 8.97748 14.455 9.81748 13.9475 10.325Z" fill="#0CAFF5"/>
<path d="M28.5425 24.2725C28.5425 24.99 27.965 25.585 27.23 25.585H18.0425C17.325 25.585 16.73 24.99 16.73 24.2725C16.73 23.555 17.325 22.96 18.0425 22.96H27.23C27.965 22.96 28.5425 23.555 28.5425 24.2725Z" fill="#0CAFF5"/>
<path d="M13.9475 22.575L10.01 26.5125C9.74748 26.775 9.41498 26.8975 9.08248 26.8975C8.74998 26.8975 8.39998 26.775 8.15498 26.5125L6.84248 25.2C6.31748 24.6925 6.31748 23.8525 6.84248 23.345C7.34998 22.8375 8.17248 22.8375 8.69748 23.345L9.08248 23.73L12.0925 20.72C12.6 20.2125 13.4225 20.2125 13.9475 20.72C14.455 21.2275 14.455 22.0675 13.9475 22.575Z" fill="#0CAFF5"/>
</svg>
